SplineFontDB: 3.2
FontName: NeanesRTLEngraving
FullName: NeanesRTL
FamilyName: NeanesRTL
Weight: Regular
Copyright: Copyright (c) 2022, Daniel
UComments: "2022-3-8: Created with FontForge (http://fontforge.org)"
Version: 1.0.4
ItalicAngle: 0
UnderlinePosition: 0
UnderlineWidth: 0
Ascent: 800
Descent: 200
InvalidEm: 0
LayerCount: 2
Layer: 0 0 "Back" 1
Layer: 1 0 "Fore" 0
XUID: [1021 151 880831689 20337]
FSType: 0
OS2Version: 0
OS2_WeightWidthSlopeOnly: 0
OS2_UseTypoMetrics: 1
CreationTime: 1646795337
ModificationTime: 1780804165
PfmFamily: 17
TTFWeight: 400
TTFWidth: 5
LineGap: 0
VLineGap: 0
OS2TypoAscent: 1400
OS2TypoAOffset: 0
OS2TypoDescent: -466
OS2TypoDOffset: 0
OS2TypoLinegap: 0
OS2WinAscent: 1400
OS2WinAOffset: 0
OS2WinDescent: 466
OS2WinDOffset: 0
HheadAscent: 1400
HheadAOffset: 0
HheadDescent: -466
HheadDOffset: 0
OS2Vendor: 'PfEd'
Lookup: 3 0 0 "'salt' Stylistic Alternatives in Byzantine Music lookup 4" { "'salt' Stylistic Alternatives in Byzantine Music lookup 4-1"  } ['salt' ('DFLT' <'dflt' > 'byzm' <'dflt' > ) ]
Lookup: 6 0 0 "'rclt' Required Contextual Alternates lookup 3" { "'rclt' Required Contextual Alternates lookup 3-1"  } ['rclt' ('DFLT' <'dflt' > 'byzm' <'dflt' > 'latn' <'dflt' > ) ]
Lookup: 4 0 0 "'ccmp' Glyph Composition/Decomposition lookup 2" { "'ccmp' Glyph Composition/Decomposition lookup 2-1"  } ['ccmp' ('DFLT' <'dflt' > 'byzm' <'dflt' > 'latn' <'dflt' > ) ]
Lookup: 1 0 0 "subs" { "subs-1"  } []
Lookup: 5 0 0 "'rclt' Required Contextual Alternates lookup 1" { "'rclt' Required Contextual Alternates lookup 1-1"  } ['rclt' ('DFLT' <'dflt' > 'byzm' <'dflt' > 'latn' <'dflt' > ) ]
Lookup: 260 0 0 "'mark' Mark Positioning lookup 0" { "'mark' Mark Positioning lookup 0-1"  } ['mark' ('DFLT' <'dflt' > 'byzm' <'dflt' > 'latn' <'dflt' > ) ]
Lookup: 262 0 0 "'mkmk' Mark to Mark lookup 1" { "'mkmk' Mark to Mark lookup 1-1"  } ['mkmk' ('DFLT' <'dflt' > 'byzm' <'dflt' > 'latn' <'dflt' > ) ]
MarkAttachClasses: 1
DEI: 91125

StartChar: u1D046
Encoding: 118854 118854 0
Width: 1524
VWidth: 345
Flags: W
HStem: 246 123<1036.67 1330.87>
LayerCount: 2
Fore
SplineSet
108 443 m 1
 82.6666666667 489 75.8333333333 528.5 87.5 561.5 c 0
 99.1666666667 594.5 120 612 150 614 c 0
 169.333333333 615.333333333 184.166666667 613.833333333 194.5 609.5 c 0
 204.833333333 605.166666667 213.833333333 600.833333333 221.5 596.5 c 0
 229.166666667 592.166666667 236.5 587.5 243.5 582.5 c 0
 250.5 577.5 257.166666667 572.333333333 263.5 567 c 0
 269.833333333 561.666666667 274.166666667 556.833333333 276.5 552.5 c 0
 278.833333333 548.166666667 279.833333333 544.166666667 279.5 540.5 c 0
 279.166666667 536.833333333 277.833333333 534.333333333 275.5 533 c 0
 273.166666667 531.666666667 266.166666667 528.666666667 254.5 524 c 0
 242.833333333 519.333333333 227.666666667 511.833333333 209 501.5 c 0
 190.333333333 491.166666667 181.333333333 473.666666667 182 449 c 0
 182 423.666666667 208.333333333 399.833333333 261 377.5 c 0
 313.666666667 355.166666667 392 346 496 350 c 1
 1230 369 l 2
 1252 369 1269.66666667 367.5 1283 364.5 c 0
 1296.33333333 361.5 1308.16666667 357.666666667 1318.5 353 c 0
 1328.83333333 348.333333333 1337.83333333 343.833333333 1345.5 339.5 c 0
 1353.16666667 335.166666667 1362 328.5 1372 319.5 c 0
 1382 310.5 1393.5 299 1406.5 285 c 0
 1419.5 271 1428 260.666666667 1432 254 c 0
 1436 247.333333333 1438 240.833333333 1438 234.5 c 0
 1438 228.166666667 1436 224 1432 222 c 0
 1428 220 1423.66666667 219 1419 219 c 0
 1414.33333333 219 1409.33333333 220 1404 222 c 0
 1398.66666667 224 1392.16666667 226.333333333 1384.5 229 c 0
 1376.83333333 231.666666667 1368.33333333 234.333333333 1359 237 c 0
 1349.66666667 239.666666667 1341 241.666666667 1333 243 c 0
 1325 244.333333333 1314 245.333333333 1300 246 c 2
 905 252 l 2
 843.666666667 252 779.166666667 254.5 711.5 259.5 c 0
 643.833333333 264.5 580 271 520 279 c 0
 460 287 407.333333333 295.666666667 362 305 c 0
 316.666666667 314.333333333 285.666666667 322 269 328 c 0
 240.333333333 340 214.833333333 351.833333333 192.5 363.5 c 0
 170.166666667 375.166666667 142 401.666666667 108 443 c 1
EndSplineSet
Validated: 33
EndChar

StartChar: u1D047
Encoding: 118855 118855 1
Width: 1515
VWidth: 345
Flags: W
HStem: 246 121<182.719 1326.04>
LayerCount: 2
Fore
SplineSet
85 384 m 0
 88.3333333333 389.333333333 92.1666666667 392.166666667 96.5 392.5 c 0
 100.833333333 392.833333333 105.333333333 391.666666667 110 389 c 0
 114.666666667 386.333333333 120.666666667 383.166666667 128 379.5 c 0
 135.333333333 375.833333333 144.666666667 372.833333333 156 370.5 c 0
 167.333333333 368.166666667 183.333333333 367 204 367 c 2
 1228 367 l 2
 1246.66666667 367 1263.66666667 365.5 1279 362.5 c 0
 1294.33333333 359.5 1308.33333333 354.666666667 1321 348 c 0
 1333.66666667 341.333333333 1343.5 335.333333333 1350.5 330 c 0
 1357.5 324.666666667 1367 315.5 1379 302.5 c 0
 1391 289.5 1401.5 277 1410.5 265 c 0
 1419.5 253 1421.33333333 241.333333333 1416 230 c 1
 1410.66666667 222 1404.5 220.333333333 1397.5 225 c 0
 1390.5 229.666666667 1382.33333333 233.666666667 1373 237 c 0
 1363.66666667 240.333333333 1353.5 242.666666667 1342.5 244 c 0
 1331.5 245.333333333 1314.33333333 246 1291 246 c 2
 282 246 l 2
 266.666666667 246 252.666666667 247 240 249 c 0
 227.333333333 251 217.5 253.166666667 210.5 255.5 c 0
 203.5 257.833333333 196 261 188 265 c 0
 180 269 171.5 273.833333333 162.5 279.5 c 0
 153.5 285.166666667 144 293.166666667 134 303.5 c 0
 124 313.833333333 113.833333333 325.833333333 103.5 339.5 c 0
 93.1666666667 353.166666667 86.6666666667 362.666666667 84 368 c 0
 81.3333333333 373.333333333 81.6666666667 378.666666667 85 384 c 0
EndSplineSet
Validated: 33
EndChar

StartChar: u1D049
Encoding: 118857 118857 2
Width: 1243
VWidth: 345
Flags: W
HStem: 133.5 38<688.719 920.029> 469.5 28.5<333.041 373.656 876.611 981.738>
VStem: 1030.5 149.5<261.308 407.941>
LayerCount: 2
Fore
SplineSet
885 498 m 5
 910.333333333 507.333333333 953.333333333 506.666666667 1014 496 c 5
 1049.33333333 486.666666667 1080.5 474.833333333 1107.5 460.5 c 4
 1134.5 446.166666667 1155.33333333 420.666666667 1170 384 c 5
 1180 348.666666667 1183.33333333 320.333333333 1180 299 c 4
 1176.66666667 277.666666667 1165 253.333333333 1145 226 c 5
 1125.66666667 202.666666667 1103.16666667 185.166666667 1077.5 173.5 c 4
 1051.83333333 161.833333333 1020 152 982 144 c 4
 944.666666667 136.666666667 914.333333333 133.166666667 891 133.5 c 4
 867.666666667 133.833333333 842.666666667 134.333333333 816 135 c 4
 789.333333333 136.333333333 764.5 138.5 741.5 141.5 c 4
 718.5 144.5 690.666666667 151 658 161 c 4
 604 175.666666667 550.666666667 196 498 222 c 4
 468.666666667 236.666666667 437.333333333 252.5 404 269.5 c 4
 370.666666667 286.5 333.666666667 306.666666667 293 330 c 4
 274.333333333 341.333333333 254 353.5 232 366.5 c 4
 210 379.5 186.333333333 392.666666667 161 406 c 5
 141.666666667 418 122.5 430.166666667 103.5 442.5 c 4
 84.5 454.833333333 76.5 467.166666667 79.5 479.5 c 4
 82.5 491.833333333 89.6666666667 497.666666667 101 497 c 4
 112.333333333 496.333333333 148 496.5 208 497.5 c 4
 268 498.5 320.666666667 498.666666667 366 498 c 5
 384 484.666666667 383.666666667 475.166666667 365 469.5 c 4
 346.333333333 463.833333333 332.666666667 456.666666667 324 448 c 4
 307.333333333 430.666666667 300 416.833333333 302 406.5 c 4
 304 396.166666667 306.666666667 388.166666667 310 382.5 c 4
 313.333333333 376.833333333 318.666666667 370.833333333 326 364.5 c 4
 333.333333333 358.166666667 351.5 345 380.5 325 c 4
 409.5 305 445.666666667 284 489 262 c 5
 527.666666667 245.333333333 558 231.666666667 580 221 c 4
 602 210.333333333 637.666666667 198.333333333 687 185 c 5
 723.666666667 177.666666667 761 173.166666667 799 171.5 c 4
 837 169.833333333 875.666666667 175.333333333 915 188 c 5
 942.333333333 200 961.5 210.333333333 972.5 219 c 4
 983.5 227.666666667 996 242.333333333 1010 263 c 4
 1022 283 1028.83333333 300 1030.5 314 c 4
 1032.16666667 328 1032.33333333 344 1031 362 c 4
 1030.33333333 380.666666667 1028.16666667 394.166666667 1024.5 402.5 c 4
 1020.83333333 410.833333333 1016 419.333333333 1010 428 c 4
 1004 436.666666667 996.666666667 444.5 988 451.5 c 4
 979.333333333 458.5 965.666666667 463.333333333 947 466 c 4
 928.333333333 468.666666667 910 471 892 473 c 4
 884 474.333333333 878.833333333 477.666666667 876.5 483 c 4
 874.166666667 488.333333333 877 493.333333333 885 498 c 5
EndSplineSet
Validated: 33
EndChar

StartChar: u1D08F
Encoding: 118927 118927 3
Width: 0
Flags: W
HStem: 1149.5 38<-84.5 162.174>
VStem: -148.5 66.5<1000.5 1149.5>
LayerCount: 2
Fore
SplineSet
-137.5 1187.5 m 0
 -88.1669921875 1187.5 -38.6669921875 1187.66699219 11 1188 c 0
 60.6669921875 1188.33300781 109.833007812 1188.83300781 158.5 1189.5 c 1
 161.833007812 1184.83300781 163.166992188 1178.83300781 162.5 1171.5 c 0
 161.833007812 1164.16699219 160.833007812 1157.83300781 159.5 1152.5 c 1
 149.5 1150.5 116.666992188 1149.5 61 1149.5 c 0
 -22.5 1149.5 -22.5 1149.5 -84.5 1149.5 c 1
 -84.5 1114.83300781 -83.6669921875 1079.5 -82 1043.5 c 0
 -80.3330078125 1007.5 -81.5 989.166992188 -85.5 988.5 c 0
 -95.5 988.5 -106.333007812 987.666992188 -118 986 c 0
 -129.666992188 984.333007812 -139.833007812 985.166992188 -148.5 988.5 c 0
 -149.166992188 988.5 -149.833007812 991.833007812 -150.5 998.5 c 0
 -150.5 998.5 -150.5 998.5 -149.5 999.5 c 0
 -148.5 1000.5 -148.5 1000.5 -148.5 1000.5 c 0
 -148.5 1035.83300781 -148.333007812 1064.5 -148 1086.5 c 0
 -147.666992188 1108.5 -147.5 1136.83300781 -147.5 1171.5 c 0
 -147.5 1181.5 -144.166992188 1186.83300781 -137.5 1187.5 c 0
EndSplineSet
Validated: 33
EndChar

StartChar: u1D04E
Encoding: 118862 118862 5
Width: 738
VWidth: 345
Flags: W
HStem: 423 29<85.7838 128.574 394.26 436.917>
LayerCount: 2
Fore
SplineSet
107 452 m 4
 129.666666667 452 153.666666667 451.666666667 179 451 c 4
 204.333333333 450.333333333 227 448.333333333 247 445 c 5
 261 445 276.5 417.5 293.5 362.5 c 4
 310.5 307.5 330.666666667 259.333333333 354 218 c 4
 362 204 369.333333333 196 376 194 c 4
 382 192 386.666666667 188.5 390 183.5 c 4
 393.333333333 178.5 390 174 380 170 c 5
 356.666666667 166 333.166666667 164.333333333 309.5 165 c 4
 285.833333333 165.666666667 263.333333333 167.333333333 242 170 c 5
 222 178 205.5 203.666666667 192.5 247 c 4
 179.5 290.333333333 161.333333333 340.666666667 138 398 c 4
 136 401.333333333 131.833333333 405.833333333 125.5 411.5 c 4
 119.166666667 417.166666667 112 421 104 423 c 4
 93.3333333333 425 87.1666666667 430.166666667 85.5 438.5 c 4
 83.8333333333 446.833333333 91 451.333333333 107 452 c 4
416 452 m 4
 438.666666667 452 462.5 451.666666667 487.5 451 c 4
 512.5 450.333333333 535.333333333 448.333333333 556 445 c 5
 570 445 585.333333333 417.5 602 362.5 c 4
 618.666666667 307.5 639 259.333333333 663 218 c 4
 671 204 678.333333333 196 685 194 c 4
 691 192 695.5 188.5 698.5 183.5 c 4
 701.5 178.5 698 174 688 170 c 5
 664.666666667 166 641.333333333 164.333333333 618 165 c 4
 594.666666667 165.666666667 572.333333333 167.333333333 551 170 c 5
 531 178 514.333333333 203.666666667 501 247 c 4
 487.666666667 290.333333333 469.333333333 340.666666667 446 398 c 4
 444 401.333333333 440 405.833333333 434 411.5 c 4
 428 417.166666667 420.666666667 421 412 423 c 4
 401.333333333 425 395.333333333 430.166666667 394 438.5 c 4
 392.666666667 446.833333333 400 451.333333333 416 452 c 4
EndSplineSet
Validated: 33
EndChar

StartChar: u1D04F
Encoding: 118863 118863 6
Width: 279
VWidth: 345
Flags: W
HStem: 418 29<-41.6787 0.88916>
VStem: -42 303
LayerCount: 2
Fore
SplineSet
-21 447 m 0
 1.66666666667 447 25.5 446.666666667 50.5 446 c 0
 75.5 445.333333333 98 443.666666667 118 441 c 1
 132 441 147.5 413.333333333 164.5 358 c 0
 181.5 302.666666667 201.666666667 254.333333333 225 213 c 0
 233 199 240.333333333 191 247 189 c 0
 253 187 257.666666667 183.666666667 261 179 c 0
 264.333333333 174.333333333 261 170 251 166 c 1
 227.666666667 162 204.333333333 160.166666667 181 160.5 c 0
 157.666666667 160.833333333 135 162.666666667 113 166 c 1
 93 174 76.5 199.5 63.5 242.5 c 0
 50.5 285.5 32.3333333333 336 9 394 c 0
 7 397.333333333 3 401.833333333 -3 407.5 c 0
 -9 413.166666667 -16 416.666666667 -24 418 c 0
 -34.6666666667 420 -40.6666666667 425.333333333 -42 434 c 0
 -43.3333333333 442.666666667 -36.3333333333 447 -21 447 c 0
EndSplineSet
Validated: 33
EndChar

StartChar: u1D050
Encoding: 118864 118864 7
Width: 1515
VWidth: 345
Flags: W
HStem: 595 22<627.535 706.586> 1132 31<1043.3 1080.93>
LayerCount: 2
Fore
SplineSet
1067 1163 m 5
 1077.66699219 1161 1082.33300781 1155.5 1081 1146.5 c 4
 1079.66699219 1137.5 1073 1132.66699219 1061 1132 c 5
 1047 1127.33300781 1035.83300781 1109.66699219 1027.5 1079 c 4
 1019.16699219 1048.33300781 1010 1016 1000 982 c 4
 977.333007812 902.666992188 956.666992188 838.333007812 938 789 c 4
 919.333007812 739.666992188 901.666992188 705.166992188 885 685.5 c 4
 868.333007812 665.833007812 848.333007812 650.666992188 825 640 c 4
 789 624.666992188 753.333007812 613.333007812 718 606 c 4
 682.666992188 598.666992188 652.333007812 595 627 595 c 5
 639.666992188 565 661 544 691 532 c 4
 721 520 729.666992188 507.333007812 717 494 c 4
 709.666992188 486.666992188 686.5 496.333007812 647.5 523 c 4
 608.5 549.666992188 582 576 568 602 c 5
 568 618.666992188 574.666992188 625.666992188 588 623 c 4
 601.333007812 620.333007812 616 618.333007812 632 617 c 260
 647.333007812 616.333007812 663.166992188 617.333007812 679.5 620 c 4
 695.833007812 622.666992188 717.666992188 631 745 645 c 4
 758.333007812 651.666992188 771 666.833007812 783 690.5 c 4
 795 714.166992188 805.666992188 740.333007812 815 769 c 4
 824.333007812 797.666992188 832.333007812 826.166992188 839 854.5 c 4
 845.666992188 882.833007812 854.5 923.666992188 865.5 977 c 4
 876.5 1030.33300781 886 1066 894 1084 c 4
 902 1102 913.166992188 1116.66699219 927.5 1128 c 4
 941.833007812 1139.33300781 955.5 1146.66699219 968.5 1150 c 4
 981.5 1153.33300781 995.833007812 1155.66699219 1011.5 1157 c 4
 1027.16699219 1158.33300781 1045.66699219 1160.33300781 1067 1163 c 5
EndSplineSet
Validated: 33
EndChar

StartChar: u1D055
Encoding: 118869 118869 8
Width: 1243
VWidth: 345
Flags: W
HStem: 140 25<292.995 383.389> 466.5 38.5<340.132 569.561>
VStem: 80 149<230.031 375.995>
LayerCount: 2
Fore
SplineSet
375 140 m 1
 349.666666667 130.666666667 306.666666667 131.333333333 246 142 c 1
 210.666666667 150.666666667 179.5 162.333333333 152.5 177 c 0
 125.5 191.666666667 104.666666667 217.333333333 90 254 c 1
 80 289.333333333 76.6666666667 317.5 80 338.5 c 0
 83.3333333333 359.5 95 384 115 412 c 1
 134.333333333 435.333333333 156.833333333 453 182.5 465 c 0
 208.166666667 477 239.666666667 486.666666667 277 494 c 0
 314.333333333 501.333333333 344.666666667 505 368 505 c 0
 391.333333333 505 416.666666667 504.333333333 444 503 c 0
 470.666666667 501.666666667 495.5 499.5 518.5 496.5 c 0
 541.5 493.5 569.333333333 487 602 477 c 0
 656 462.333333333 709.333333333 442 762 416 c 0
 791.333333333 401.333333333 822.5 385.5 855.5 368.5 c 0
 888.5 351.5 925.333333333 331.333333333 966 308 c 0
 984.666666667 296.666666667 1005.16666667 284.666666667 1027.5 272 c 0
 1049.83333333 259.333333333 1073.66666667 246.333333333 1099 233 c 1
 1118.33333333 221 1137.5 208.833333333 1156.5 196.5 c 0
 1175.5 184.166666667 1183.5 171.833333333 1180.5 159.5 c 0
 1177.5 147.166666667 1170.33333333 141.333333333 1159 142 c 0
 1147.66666667 142.666666667 1111.83333333 142.333333333 1051.5 141 c 0
 991.166666667 139.666666667 938.666666667 139.333333333 894 140 c 1
 876 153.333333333 876.166666667 163 894.5 169 c 0
 912.833333333 175 926.666666667 182.333333333 936 191 c 0
 952.666666667 208.333333333 960 222 958 232 c 0
 956 242 953.166666667 249.833333333 949.5 255.5 c 0
 945.833333333 261.166666667 940.333333333 267.166666667 933 273.5 c 0
 925.666666667 279.833333333 907.5 293 878.5 313 c 0
 849.5 333 813.666666667 354 771 376 c 1
 732.333333333 392.666666667 702 406.333333333 680 417 c 0
 658 427.666666667 622.333333333 439.666666667 573 453 c 1
 536.333333333 460.333333333 499 464.833333333 461 466.5 c 0
 423 468.166666667 384.333333333 462.666666667 345 450 c 1
 317.666666667 438 298.5 427.833333333 287.5 419.5 c 0
 276.5 411.166666667 264 396.333333333 250 375 c 0
 238 355 231.166666667 338 229.5 324 c 0
 227.833333333 310 227.666666667 294 229 276 c 0
 229.666666667 257.333333333 231.833333333 243.833333333 235.5 235.5 c 0
 239.166666667 227.166666667 243.833333333 218.833333333 249.5 210.5 c 0
 255.166666667 202.166666667 262.5 194.5 271.5 187.5 c 0
 280.5 180.5 294.333333333 175.5 313 172.5 c 0
 331.666666667 169.5 350 167 368 165 c 0
 376 163.666666667 381.166666667 160.333333333 383.5 155 c 0
 385.833333333 149.666666667 383 144.666666667 375 140 c 1
EndSplineSet
Validated: 33
EndChar

StartChar: u1D056
Encoding: 118870 118870 9
Width: 1113
VWidth: 345
Flags: W
HStem: 290 30<594.953 788 905 1044.16>
LayerCount: 2
Fore
SplineSet
905 290 m 5
 914 252 l 6
 914.666666667 249.333333333 918.333333333 242.833333333 925 232.5 c 4
 931.666666667 222.166666667 935 215.666666667 935 213 c 260
 935 210.333333333 929.5 208 918.5 206 c 4
 907.5 204 900 203 896 203 c 6
 835 203 l 6
 827 203 819.5 208.666666667 812.5 220 c 4
 805.5 231.333333333 801 242 799 252 c 6
 791 290 l 5
 713 290 641.5 293.166666667 576.5 299.5 c 4
 512.166666667 305.833333333 466 311.333333333 438 316 c 4
 335.333333333 332 271.333333333 368.666666667 246 426 c 4
 240 438.666666667 230 464 216 502 c 4
 202 540 187.166666667 579.333333333 171.5 620 c 4
 155.833333333 660.666666667 141 697.5 127 730.5 c 4
 113 763.5 103.333333333 781.333333333 98 784 c 4
 70.6666666667 793.333333333 64.6666666667 803.666666667 80 815 c 5
 114 817.666666667 146.166666667 819.333333333 176.5 820 c 4
 206.833333333 820.666666667 238.333333333 819.666666667 271 817 c 4
 287 816.333333333 300.5 804.666666667 311.5 782 c 4
 322.5 759.333333333 332.166666667 732 340.5 700 c 4
 348.833333333 668 356.333333333 634 363 598 c 4
 369.666666667 562 376.333333333 530 383 502 c 4
 397 446 414.333333333 407.833333333 435 387.5 c 4
 455.666666667 367.166666667 491 350.333333333 541 337 c 4
 591.666666667 323.666666667 674 318 788 320 c 5
 775 389 l 6
 774.333333333 392.333333333 771 396.666666667 765 402 c 4
 759 407.333333333 756 411.666666667 756 415 c 4
 756 419 761.5 421.666666667 772.5 423 c 4
 783.5 424.333333333 791 425 795 425 c 6
 856 425 l 6
 863.333333333 425 870.5 419.833333333 877.5 409.5 c 4
 884.5 399.166666667 889.333333333 388 892 376 c 6
 902 321 l 5
 946.666666667 321.666666667 977.166666667 323.166666667 993.5 325.5 c 4
 1009.83333333 327.833333333 1027 330.333333333 1045 333 c 5
 1052.33333333 332.333333333 1056.83333333 329 1058.5 323 c 4
 1060.16666667 317 1058.66666667 311.333333333 1054 306 c 4
 1047.33333333 300.666666667 1033.66666667 296.666666667 1013 294 c 4
 992.333333333 291.333333333 956.333333333 290 905 290 c 5
EndSplineSet
Validated: 33
EndChar

StartChar: u1D051
Encoding: 118865 118865 10
Width: 703
VWidth: 345
Flags: W
HStem: 145 32<416.995 469.781> 465 29.5<85.6115 279.594>
LayerCount: 2
Fore
SplineSet
416 153 m 1
 408.666666667 159 408.166666667 164.5 414.5 169.5 c 0
 420.833333333 174.5 429 177 439 177 c 0
 449.666666667 177 464.833333333 186.833333333 484.5 206.5 c 0
 504.166666667 226.166666667 517 250.333333333 523 279 c 0
 533 327.666666667 507.666666667 367.333333333 447 398 c 0
 381 430.666666667 296 452.333333333 192 463 c 0
 174 464.333333333 154.333333333 465 133 465 c 0
 111.666666667 465 99.3333333333 465.666666667 96 467 c 0
 86.6666666667 470.333333333 83.1666666667 475.833333333 85.5 483.5 c 0
 87.8333333333 491.166666667 93 495.333333333 101 496 c 0
 108.333333333 496.666666667 126.333333333 496.166666667 155 494.5 c 0
 183.666666667 492.833333333 215.333333333 489.666666667 250 485 c 0
 289.333333333 479 329.166666667 471.166666667 369.5 461.5 c 0
 409.833333333 451.833333333 447.333333333 440 482 426 c 0
 521.333333333 410.666666667 552.666666667 395.166666667 576 379.5 c 0
 599.333333333 363.833333333 621 343.333333333 641 318 c 0
 660.333333333 291.333333333 668.5 265 665.5 239 c 0
 662.5 213 651 192.666666667 631 178 c 0
 613 164.666666667 592.5 155.833333333 569.5 151.5 c 0
 546.5 147.166666667 524.333333333 145 503 145 c 256
 481.666666667 145 467.166666667 145.166666667 459.5 145.5 c 0
 451.833333333 145.833333333 437.333333333 148.333333333 416 153 c 1
EndSplineSet
Validated: 33
EndChar

StartChar: u1D053
Encoding: 118867 118867 11
Width: 400
VWidth: 345
Flags: W
HStem: 417 30<334.051 380.419>
VStem: 75 305.5
LayerCount: 2
Fore
SplineSet
358 447 m 0
 373.333333333 447 380.833333333 442.333333333 380.5 433 c 0
 380.166666667 423.666666667 374.666666667 418.333333333 364 417 c 0
 346 413 334 405.333333333 328 394 c 0
 304 336.666666667 285.5 286.333333333 272.5 243 c 0
 259.5 199.666666667 243 174 223 166 c 1
 201.666666667 163.333333333 179.166666667 161.666666667 155.5 161 c 0
 131.833333333 160.333333333 108.333333333 162 85 166 c 1
 75 170 71.6666666667 174.333333333 75 179 c 0
 78.3333333333 183.666666667 83.3333333333 187 90 189 c 0
 96.6666666667 190.333333333 103.666666667 198.333333333 111 213 c 0
 134.333333333 254.333333333 153.833333333 301.166666667 169.5 353.5 c 0
 185.166666667 405.833333333 201.666666667 435 219 441 c 0
 241.666666667 447.666666667 264.666666667 450.333333333 288 449 c 0
 311.333333333 447.666666667 334.666666667 447 358 447 c 0
EndSplineSet
Validated: 33
EndChar

StartChar: u1D058
Encoding: 118872 118872 12
Width: 534
VWidth: 345
Flags: W
HStem: -72 15<533.252 579.418>
LayerCount: 2
Fore
SplineSet
74 697 m 1
 78 705 99.3333333333 704.166666667 138 694.5 c 0
 176.666666667 684.833333333 208.666666667 674.333333333 234 663 c 0
 246.666666667 657 254 647.5 256 634.5 c 0
 258 621.5 259.333333333 601 260 573 c 0
 260.666666667 493 263.5 429.666666667 268.5 383 c 0
 273.5 336.333333333 278.666666667 296.666666667 284 264 c 0
 292 212 302 168.5 314 133.5 c 0
 326 98.5 344.666666667 68 370 42 c 0
 395.333333333 16 418.833333333 -3.83333333333 440.5 -17.5 c 0
 462.166666667 -31.1666666667 504 -44.3333333333 566 -57 c 1
 576.666666667 -57 581.166666667 -59.5 579.5 -64.5 c 0
 577.833333333 -69.5 571.333333333 -72 560 -72 c 1
 522 -64 503.666666667 -60.6666666667 505 -62 c 0
 506.333333333 -63.3333333333 491 -59 459 -49 c 1
 401.666666667 -25.6666666667 356.666666667 7 324 49 c 0
 291.333333333 91 263.333333333 132 240 172 c 1
 206 235.333333333 178.333333333 301.333333333 157 370 c 0
 135.666666667 438.666666667 120.333333333 528 111 638 c 0
 107.666666667 668 100.333333333 682.333333333 89 681 c 0
 77.6666666667 679.666666667 72.6666666667 685 74 697 c 1
EndSplineSet
Validated: 33
EndChar

StartChar: u1D05B
Encoding: 118875 118875 13
Width: 0
VWidth: 345
Flags: W
HStem: -88 45<-579.5 380> 38 29<569.591 612.201>
LayerCount: 2
Fore
SplineSet
397 -43 m 1
 407.666992188 -15 417.333007812 9.1669921875 426 29.5 c 0
 434.666992188 49.8330078125 443 60 451 60 c 0
 471 62.6669921875 493.666992188 64.5 519 65.5 c 0
 544.333007812 66.5 568.333007812 67 591 67 c 0
 606.333007812 67 613.5 62.6669921875 612.5 54 c 0
 611.5 45.3330078125 605.333007812 40 594 38 c 0
 586 36.6669921875 579 33 573 27 c 0
 567 21 563 16.3330078125 561 13 c 0
 537.666992188 -45 519.5 -95.5 506.5 -138.5 c 0
 493.5 -181.5 476.666992188 -207 456 -215 c 1
 434.666992188 -217.666992188 412.166992188 -219.333007812 388.5 -220 c 0
 364.833007812 -220.666992188 341.333007812 -219 318 -215 c 1
 308 -211 304.666992188 -206.5 308 -201.5 c 0
 311.333007812 -196.5 316.333007812 -193 323 -191 c 0
 329.666992188 -189.666992188 336.666992188 -182 344 -168 c 0
 350.666992188 -156 357 -143.166992188 363 -129.5 c 0
 369 -115.833007812 374.666992188 -102 380 -88 c 1
 -458 -88 l 1
 -510 -91 l 2
 -528 -91.6669921875 -544.333007812 -91 -559 -89 c 0
 -573 -87.6669921875 -579.833007812 -79.6669921875 -579.5 -65 c 0
 -579.166992188 -50.3330078125 -571.666992188 -43 -557 -43 c 2
 397 -43 l 1
EndSplineSet
Validated: 33
EndChar

StartChar: u1D05C
Encoding: 118876 118876 14
Width: 0
VWidth: 345
Flags: W
HStem: -205 14.5<378.546 399.316> 54 28<-352.079 -158.376 16.624 248.825>
LayerCount: 2
Fore
SplineSet
-649.375976562 64 m 0
 -549.375976562 68.6669921875 -431.708984375 74.6669921875 -296.375976562 82 c 0
 -161.041992188 89.3330078125 -43.708984375 91.3330078125 55.6240234375 88 c 0
 142.291015625 86 225.624023438 80.8330078125 305.624023438 72.5 c 0
 385.624023438 64.1669921875 446.624023438 55.3330078125 488.624023438 46 c 0
 531.291015625 36 570.458007812 19.5 606.124023438 -3.5 c 0
 641.791015625 -26.5 662.291015625 -49.6669921875 667.624023438 -73 c 256
 672.958007812 -96.3330078125 673.291015625 -116 668.624023438 -132 c 0
 663.958007812 -148 637.958007812 -166.666992188 590.624023438 -188 c 1
 557.291015625 -195.333007812 522.124023438 -200.166992188 485.124023438 -202.5 c 0
 448.124023438 -204.833007812 415.624023438 -205.666992188 387.624023438 -205 c 1
 376.291015625 -200.333007812 375.458007812 -195.5 385.124023438 -190.5 c 0
 394.791015625 -185.5 408.124023438 -178.833007812 425.124023438 -170.5 c 0
 442.124023438 -162.166992188 459.624023438 -151.5 477.624023438 -138.5 c 0
 495.624023438 -125.5 507.624023438 -109 513.624023438 -89 c 0
 524.291015625 -52.3330078125 508.124023438 -24.3330078125 465.124023438 -5 c 0
 422.124023438 14.3330078125 370.791015625 28.3330078125 311.124023438 37 c 0
 251.458007812 45.6669921875 192.458007812 50.5 134.124023438 51.5 c 0
 75.791015625 52.5 36.6240234375 53.6669921875 16.6240234375 55 c 0
 -25.3759765625 57 -83.708984375 56.6669921875 -158.375976562 54 c 0
 -233.041992188 51.3330078125 -306.708984375 47.8330078125 -379.375976562 43.5 c 0
 -452.041992188 39.1669921875 -515.208984375 35.3330078125 -568.875976562 32 c 0
 -649.375976562 27 -649.375976562 27 -649.375976562 27 c 1
 -660.041992188 29 -665.208984375 35.3330078125 -664.875976562 46 c 0
 -664.541992188 56.6669921875 -659.375976562 62.6669921875 -649.375976562 64 c 0
EndSplineSet
Validated: 33
EndChar

StartChar: u1D05A
Encoding: 118874 118874 15
Width: 0
VWidth: 345
Flags: W
HStem: 101.5 48.5<-157.168 128.104> 426 31<664.058 728.401>
LayerCount: 2
Fore
SplineSet
497.950195312 449 m 1
 537.950195312 451.666992188 574.1171875 454 606.450195312 456 c 0
 638.783203125 458 675.6171875 458.333007812 716.950195312 457 c 1
 725.6171875 454.333007812 729.450195312 448.333007812 728.450195312 439 c 0
 727.450195312 429.666992188 722.950195312 425.333007812 714.950195312 426 c 0
 710.950195312 425.333007812 708.6171875 425.166992188 707.950195312 425.5 c 0
 707.283203125 425.833007812 704.283203125 426 698.950195312 426 c 0
 683.6171875 424.666992188 658.783203125 410.166992188 624.450195312 382.5 c 0
 590.1171875 354.833007812 552.6171875 324.166992188 511.950195312 290.5 c 0
 471.283203125 256.833007812 440.1171875 232.333007812 418.450195312 217 c 0
 396.783203125 201.666992188 378.450195312 189.166992188 363.450195312 179.5 c 0
 348.450195312 169.833007812 323.950195312 157 289.950195312 141 c 0
 251.283203125 122.333007812 200.283203125 110.333007812 136.950195312 105 c 0
 73.6171875 99.6669921875 19.4501953125 98.5 -25.5498046875 101.5 c 0
 -70.5498046875 104.5 -109.3828125 110.166992188 -142.049804688 118.5 c 0
 -174.716796875 126.833007812 -213.716796875 138.833007812 -259.049804688 154.5 c 0
 -304.3828125 170.166992188 -368.049804688 201.666992188 -450.049804688 249 c 0
 -550.716796875 307.666992188 -614.216796875 346.333007812 -640.549804688 365 c 0
 -666.8828125 383.666992188 -695.049804688 403.333007812 -725.049804688 424 c 1
 -730.3828125 434 -729.716796875 443.833007812 -723.049804688 453.5 c 0
 -716.3828125 463.166992188 -704.716796875 463.333007812 -688.049804688 454 c 0
 -671.3828125 444 -637.216796875 421 -585.549804688 385 c 0
 -533.8828125 349 -467.716796875 308.333007812 -387.049804688 263 c 0
 -329.049804688 229.666992188 -265.8828125 202.833007812 -197.549804688 182.5 c 0
 -129.216796875 162.166992188 -71.0498046875 151.333007812 -23.0498046875 150 c 0
 19.6171875 149.333007812 61.9501953125 154 103.950195312 164 c 0
 145.950195312 174 192.950195312 197.333007812 244.950195312 234 c 1
 304.950195312 288 354.6171875 335.833007812 393.950195312 377.5 c 0
 433.283203125 419.166992188 467.950195312 443 497.950195312 449 c 1
EndSplineSet
Validated: 33
EndChar

StartChar: u1D07E
Encoding: 118910 118910 16
Width: 457
VWidth: 345
Flags: W
HStem: 276 45<90 240 286 436>
VStem: 240 46<126.035 276 321 471>
LayerCount: 2
Fore
SplineSet
286 276 m 1
 286 140 l 2
 286 130 281 125.333333333 271 126 c 2
 254 126 l 2
 244.666666667 126 240 130.666666667 240 140 c 2
 240 276 l 1
 105 276 l 2
 95 276 90 280.666666667 90 290 c 2
 90 307 l 2
 90 316.333333333 95 321 105 321 c 2
 241 321 l 1
 240 456 l 2
 240 466 244.666666667 471 254 471 c 2
 271 471 l 2
 280.333333333 471 285.333333333 466 286 456 c 2
 286 321 l 1
 421 321 l 2
 431 321 436 316.333333333 436 307 c 2
 436 290 l 2
 436 280.666666667 431 276 421 276 c 2
 286 276 l 1
EndSplineSet
Validated: 1
EndChar

StartChar: u1D07F
Encoding: 118911 118911 17
Width: 0
VWidth: 345
Flags: W
LayerCount: 2
Fore
SplineSet
-206.377929688 768 m 0
 -200.377929688 765.333007812 -193.7109375 761.166992188 -186.377929688 755.5 c 0
 -179.044921875 749.833007812 -173.044921875 745.333007812 -168.377929688 742 c 0
 -140.377929688 722.666992188 -115.377929688 706.166992188 -93.3779296875 692.5 c 0
 -71.3779296875 678.833007812 -44.7109375 669 -13.3779296875 663 c 0
 1.955078125 660.333007812 18.6220703125 659.5 36.6220703125 660.5 c 0
 54.6220703125 661.5 66.955078125 663.666992188 73.6220703125 667 c 0
 92.955078125 673.666992188 103.455078125 685.5 105.122070312 702.5 c 0
 106.7890625 719.5 104.955078125 733.333007812 99.6220703125 744 c 0
 95.6220703125 751.333007812 94.1220703125 759.5 95.1220703125 768.5 c 0
 96.1220703125 777.5 100.622070312 782.666992188 108.622070312 784 c 1
 143.955078125 781.333007812 173.622070312 770.5 197.622070312 751.5 c 0
 221.622070312 732.5 234.2890625 715.666992188 235.622070312 701 c 1
 235.622070312 693 l 2
 235.622070312 681 229.2890625 666.333007812 216.622070312 649 c 0
 203.955078125 631.666992188 183.955078125 619.666992188 156.622070312 613 c 0
 91.955078125 598.333007812 28.6220703125 603 -33.3779296875 627 c 0
 -68.7109375 641 -103.044921875 657 -136.377929688 675 c 0
 -169.7109375 693 -200.044921875 713 -227.377929688 735 c 0
 -236.044921875 741.666992188 -237.877929688 750.333007812 -232.877929688 761 c 0
 -227.877929688 771.666992188 -219.044921875 774 -206.377929688 768 c 0
EndSplineSet
Validated: 33
EndChar

StartChar: u1D085
Encoding: 118917 118917 18
Width: 0
VWidth: 345
Flags: W
HStem: -109 108<-48.6037 48.9475> -108 30<-61.6676 -54.635>
VStem: -68.3418 135
LayerCount: 2
Fore
SplineSet
-22.341796875 -1 m 2xa0
 36.658203125 -1 l 2
 41.658203125 -1 41.658203125 -1 52.658203125 -1 c 0xa0
 59.9912109375 -1 64.658203125 -2 66.658203125 -4 c 0
 69.32421875 -6.6669921875 68.82421875 -8.1669921875 65.158203125 -8.5 c 0
 61.4912109375 -8.8330078125 58.658203125 -16.3330078125 56.658203125 -31 c 2
 50.658203125 -78 l 2x60
 48.658203125 -98 38.9912109375 -108.333007812 21.658203125 -109 c 2
 -37.341796875 -109 l 2xa0
 -40.0087890625 -109 -45.841796875 -108.666992188 -54.841796875 -108 c 0
 -63.841796875 -107.333007812 -68.341796875 -105.333007812 -68.341796875 -102 c 0
 -68.341796875 -98 -66.67578125 -95.3330078125 -63.341796875 -94 c 0
 -60.0087890625 -92.6669921875 -58.0087890625 -87.3330078125 -57.341796875 -78 c 2x60
 -56.67578125 -78 -54.341796875 -62.3330078125 -50.341796875 -31 c 2
 -47.67578125 -11 -38.341796875 -1 -22.341796875 -1 c 2xa0
EndSplineSet
Validated: 1
EndChar

StartChar: u1D086
Encoding: 118918 118918 19
Width: 8
VWidth: 345
Flags: W
HStem: -109 108<-157.561 -59.558 67.4638 165.727>
LayerCount: 2
Fore
SplineSet
-131.5625 -1 m 2
 -71.5625 -1 l 2
 -66.5625 -1 -66.5625 -1 -55.5625 -1 c 0
 -48.2294921875 -1 -43.5625 -2 -41.5625 -4 c 0
 -38.8955078125 -6.6669921875 -39.3955078125 -8.1669921875 -43.0625 -8.5 c 0
 -46.7294921875 -8.8330078125 -49.5625 -16.3330078125 -51.5625 -31 c 2
 -57.5625 -78 l 2
 -60.2294921875 -98 -69.8955078125 -108.333007812 -86.5625 -109 c 2
 -145.5625 -109 l 2
 -148.895507812 -109 -154.729492188 -108.666992188 -163.0625 -108 c 0
 -171.395507812 -107.333007812 -175.895507812 -105.333007812 -176.5625 -102 c 0
 -176.5625 -98 -175.0625 -95.3330078125 -172.0625 -94 c 0
 -169.0625 -92.6669921875 -166.895507812 -87.3330078125 -165.5625 -78 c 2
 -159.5625 -31 l 2
 -156.229492188 -11 -146.895507812 -1 -131.5625 -1 c 2
94.4375 -1 m 2
 153.4375 -1 l 2
 158.4375 -1 158.4375 -1 168.9375 -1 c 0
 175.9375 -1 180.770507812 -2 183.4375 -4 c 0
 185.4375 -6.6669921875 184.770507812 -8.1669921875 181.4375 -8.5 c 0
 178.104492188 -8.8330078125 175.4375 -16.3330078125 173.4375 -31 c 2
 167.4375 -78 l 2
 165.4375 -98 155.770507812 -108.333007812 138.4375 -109 c 2
 79.4375 -109 l 2
 76.1044921875 -109 70.2705078125 -108.666992188 61.9375 -108 c 0
 53.6044921875 -107.333007812 49.1044921875 -105.333007812 48.4375 -102 c 0
 48.4375 -98 50.1044921875 -95.3330078125 53.4375 -94 c 0
 56.7705078125 -92.6669921875 58.7705078125 -87.3330078125 59.4375 -78 c 2
 65.4375 -31 l 2
 68.7705078125 -11 78.4375 -1 94.4375 -1 c 2
EndSplineSet
Validated: 1
EndChar

StartChar: u1D0A3
Encoding: 118947 118947 20
Width: 0
VWidth: 345
Flags: W
VStem: -163 55.5<449.226 565.713> 38.5 60<150.096 415.891> 70 44<592 645.235>
LayerCount: 2
Fore
SplineSet
3 613 m 4x80
 -15 621 -33 618.5 -51 605.5 c 4
 -69 592.5 -84 572.666992188 -96 546 c 4
 -108 519.333007812 -111.833007812 494 -107.5 470 c 4
 -103.166992188 446 -92 430 -74 422 c 5
 -51.3330078125 414 -29.8330078125 414.666992188 -9.5 424 c 4
 10.8330078125 433.333007812 25.3330078125 455 34 489 c 4
 51.3330078125 555.666992188 41 597 3 613 c 4x80
65 592 m 5
 70 646 l 5
 84 650 98.6669921875 649 114 643 c 5xa0
 114.666992188 619 113.333007812 578.333007812 110 521 c 4
 106.666992188 463.666992188 103.666992188 354.333007812 101 193 c 4
 101 184.333007812 100.166992188 175.5 98.5 166.5 c 4
 96.8330078125 157.5 94.6669921875 152 92 150 c 4
 78.6669921875 140 64 139 48 147 c 4
 43.3330078125 149 40.1669921875 155.166992188 38.5 165.5 c 4xc0
 36.8330078125 175.833007812 36 185 36 193 c 4
 36 216.333007812 37.1669921875 232.166992188 39.5 240.5 c 4
 41.8330078125 248.833007812 43.3330078125 256 44 262 c 4
 48.6669921875 298 52 328.666992188 54 354 c 4
 56 379.333007812 58 410.333007812 60 447 c 5
 34 411.666992188 -4.6669921875 396.333007812 -56 401 c 4
 -92 404.333007812 -119.666992188 419.166992188 -139 445.5 c 4
 -158.333007812 471.833007812 -166.333007812 501.666992188 -163 535 c 260
 -159.666992188 568.333007812 -145.666992188 595.166992188 -121 615.5 c 4
 -96.3330078125 635.833007812 -66 644.666992188 -30 642 c 4
 14.6669921875 637.333007812 46.3330078125 620.666992188 65 592 c 5
EndSplineSet
Validated: 33
EndChar

StartChar: u1D0A7
Encoding: 118951 118951 21
Width: 652
VWidth: 345
Flags: W
HStem: 170 34.5<304.556 352.757 587.419 634.938>
VStem: 195.945 93<239.048 514.724> 476.945 95<240.412 513.875>
LayerCount: 2
Fore
SplineSet
356.9453125 176 m 5
 354.278320312 170.666992188 343.4453125 168.666992188 324.4453125 170 c 4
 305.4453125 171.333007812 285.612304688 178.5 264.9453125 191.5 c 4
 244.278320312 204.5 226.278320312 223.833007812 210.9453125 249.5 c 4
 195.612304688 275.166992188 190.612304688 309.666992188 195.9453125 353 c 4
 203.9453125 423 205.112304688 480.5 199.4453125 525.5 c 4
 193.778320312 570.5 170.9453125 588.666992188 130.9453125 580 c 4
 105.612304688 574 98.9453125 559.666992188 110.9453125 537 c 4
 122.9453125 514.333007812 115.278320312 498.666992188 87.9453125 490 c 4
 75.9453125 486 64.7783203125 488.666992188 54.4453125 498 c 4
 44.1123046875 507.333007812 38.9453125 518.333007812 38.9453125 531 c 4
 38.9453125 561.666992188 52.2783203125 582 78.9453125 592 c 4
 93.6123046875 597.333007812 113.278320312 600 137.9453125 600 c 4
 162.612304688 600 183.9453125 594.333007812 201.9453125 583 c 4
 238.612304688 559 262.278320312 532.333007812 272.9453125 503 c 4
 283.612304688 473.666992188 288.9453125 405 288.9453125 297 c 4
 288.9453125 244.333007812 300.612304688 213.5 323.9453125 204.5 c 4
 347.278320312 195.5 358.278320312 186 356.9453125 176 c 5
638.9453125 176 m 5
 636.278320312 170.666992188 625.4453125 168.666992188 606.4453125 170 c 4
 587.4453125 171.333007812 567.4453125 178.5 546.4453125 191.5 c 4
 525.4453125 204.5 507.4453125 223.833007812 492.4453125 249.5 c 4
 477.4453125 275.166992188 472.278320312 309.666992188 476.9453125 353 c 4
 484.9453125 423 486.278320312 480.5 480.9453125 525.5 c 4
 475.612304688 570.5 452.9453125 588.666992188 412.9453125 580 c 4
 387.612304688 574 380.9453125 559.666992188 392.9453125 537 c 4
 404.9453125 514.333007812 397.278320312 498.666992188 369.9453125 490 c 4
 357.9453125 486 346.9453125 488.666992188 336.9453125 498 c 4
 326.9453125 507.333007812 321.9453125 518.333007812 321.9453125 531 c 4
 321.9453125 561.666992188 334.9453125 582 360.9453125 592 c 4
 375.612304688 597.333007812 395.278320312 600 419.9453125 600 c 4
 444.612304688 600 466.278320312 594.333007812 484.9453125 583 c 4
 520.9453125 559 544.278320312 532.333007812 554.9453125 503 c 4
 565.612304688 473.666992188 571.278320312 405 571.9453125 297 c 4
 571.9453125 244.333007812 583.4453125 213.5 606.4453125 204.5 c 4
 629.4453125 195.5 640.278320312 186 638.9453125 176 c 5
EndSplineSet
Validated: 33
EndChar

StartChar: u1D0A5
Encoding: 118949 118949 22
Width: 826
VWidth: 345
Flags: W
VStem: 65 89<462.719 550.274>
LayerCount: 2
Fore
SplineSet
65 528 m 4
 73.666015625 551.333007812 98 559.333007812 138 552 c 4
 146.666015625 550.666992188 152 541.333007812 154 524 c 4
 156 506.666992188 150 488 136 468 c 4
 125.333007812 454 121.833007812 439.333007812 125.5 424 c 4
 129.166015625 408.666992188 149 398.666992188 185 394 c 5
 262.333007812 389.333007812 323 389.333007812 367 394 c 4
 411 398.666992188 470.333007812 404.666992188 545 412 c 4
 589 415.333007812 637.333007812 417.333007812 690 418 c 4
 724 417.333007812 747.5 404.666992188 760.5 380 c 4
 773.5 355.333007812 778.333007812 329.333007812 775 302 c 4
 769.666015625 256 749 234.666992188 713 238 c 4
 704.333007812 238.666992188 695.833007812 244.833007812 687.5 256.5 c 4
 679.166015625 268.166992188 678.666015625 281.666992188 686 297 c 4
 692.666015625 312.333007812 700.833007812 320.5 710.5 321.5 c 4
 720.166015625 322.5 727 331 731 347 c 4
 737.666015625 373 725 385 693 383 c 4
 595 377.666992188 520.666015625 371.666992188 470 365 c 4
 419.333007812 358.333007812 371.5 354.5 326.5 353.5 c 4
 281.5 352.5 239.666015625 354.666992188 201 360 c 4
 174.333007812 364 147.166015625 373.166992188 119.5 387.5 c 4
 91.8330078125 401.833007812 73.3330078125 424.333007812 64 455 c 4
 56 482.333007812 56.3330078125 506.666992188 65 528 c 4
EndSplineSet
Validated: 33
EndChar

StartChar: u1D0A8
Encoding: 118952 118952 23
Width: 657
VWidth: 345
Flags: W
HStem: 530 71<278.845 366.527>
VStem: 235 30<317.573 514.232> 250 15<254.53 386.596> 366 80<383.659 526.176> 452 83<146.5 352.656>
LayerCount: 2
Fore
SplineSet
177 345 m 4xd8
 151.666992188 327 135 303 127 273 c 4
 121.666992188 249.666992188 121.333007812 227.666992188 126 207 c 4
 131.333007812 185.666992188 154 185.666992188 194 207 c 4
 216.666992188 218.333007812 231.166992188 230 237.5 242 c 4
 243.833007812 254 248 269.5 250 288.5 c 4xb8
 252 307.5 248.333007812 348.666992188 239 412 c 4
 237 424.666992188 235.666992188 446.666992188 235 478 c 4
 235 508 244 537.333007812 262 566 c 4
 272 582 287.666992188 592 309 596 c 4
 329.666992188 599.333007812 347.666992188 601 363 601 c 4
 398.333007812 601 424.333007812 584.333007812 441 551 c 5
 443.666992188 522.333007812 445 500.666992188 445 486 c 4
 444.333007812 468.666992188 444.666992188 452.666992188 446 438 c 5
 446 415.333007812 449.333007812 397 456 383 c 5
 462 375 476.333007812 369.666992188 499 367 c 5
 521.666992188 359 533.666992188 338.333007812 535 305 c 4
 535.666992188 283 535 261.166992188 533 239.5 c 4
 531 217.833007812 531.666992188 196 535 174 c 4
 535.666992188 167.333007812 538.333007812 156 543 140 c 4
 546.333007812 130 558 121.666992188 578 115 c 4
 582.666992188 113.666992188 585.666992188 112.666992188 587 112 c 5
 587 109.333007812 575.166992188 109.5 551.5 112.5 c 4
 527.833007812 115.5 513 118.333007812 507 121 c 4
 479.666992188 133 462.666992188 155 456 187 c 4
 452 207 450.666992188 227.333007812 452 248 c 4
 453.333007812 268.666992188 452 289.333007812 448 310 c 5
 448 336 440 351 424 355 c 5
 409.333007812 356.333007812 395 365.333007812 381 382 c 4
 367.666992188 399.333007812 362.666992188 427.666992188 366 467 c 5
 372.666992188 499 368 518.333007812 352 525 c 4
 346.666992188 527 335 528.666992188 317 530 c 4
 301 530 289 525.666992188 281 517 c 5
 271.666992188 503 267.333007812 487 268 469 c 4
 268 456.333007812 267 437.666992188 265 413 c 5
 267.666992188 355 269.5 310.5 270.5 279.5 c 4
 271.5 248.5 269.333007812 222.5 264 201.5 c 4
 258.666992188 180.5 243.333007812 163.666992188 218 151 c 4
 168.666992188 123.666992188 127.666992188 128.666992188 95 166 c 4
 87.6669921875 176 80 188 72 202 c 5
 65.3330078125 226 64.6669921875 251.666992188 70 279 c 4
 81.3330078125 323.666992188 104 353.666992188 138 369 c 5
 151.333007812 377.666992188 169 383.333007812 191 386 c 5
 202.333007812 385.333007812 212.666992188 383.666992188 222 381 c 5
 240.666992188 373 242.333007812 368.333007812 227 367 c 4
 212.333007812 365 195.666992188 357.666992188 177 345 c 4xd8
EndSplineSet
Validated: 33
EndChar

StartChar: u1D0A9
Encoding: 118953 118953 24
Width: 564
VWidth: 345
Flags: W
VStem: 47 71<493.918 583.062>
LayerCount: 2
Fore
SplineSet
47 533 m 4
 45 559 53.333984375 580 72 596 c 4
 86 606.666992188 110.333984375 610 145 606 c 4
 179.666992188 602 210.333984375 580 237 540 c 5
 388 302 l 6
 388.666992188 301.333007812 394.5 316.5 405.5 347.5 c 4
 416.5 378.5 428.666992188 395.333007812 442 398 c 4
 472.666992188 402.666992188 491.666992188 398.333007812 499 385 c 4
 501.666992188 378.333007812 500.666992188 375.333007812 496 376 c 4
 491.333984375 376.666992188 483.666992188 369.666992188 473 355 c 5
 473 355 473 355 460.5 332.5 c 4
 452.166992188 317.5 446.5 300.666992188 443.5 282 c 4
 440.5 263.333007812 443.5 245.666992188 452.5 229 c 4
 461.5 212.333007812 483.333984375 202 518 198 c 5
 524 183.333007812 513.666992188 178.666992188 487 184 c 4
 468.333984375 188.666992188 448.166992188 199.333007812 426.5 216 c 4
 404.833984375 232.666992188 391 247.666992188 385 261 c 5
 297 395 l 5
 223 191 l 5
 152 192 l 5
 262 447 l 5
 239.333984375 504.333007812 208.833984375 546 170.5 572 c 4
 132.166992188 598 114.666992188 580 118 518 c 4
 118.666992188 505.333007812 108 496.166992188 86 490.5 c 4
 64 484.833007812 51 499 47 533 c 4
EndSplineSet
Validated: 33
EndChar

StartChar: u1D0D4
Encoding: 118996 118996 25
Width: 0
Flags: W
HStem: 286 25<-45.9977 44.8165> 492 24<-43.9577 43.7252>
VStem: -116 26<354.237 447.208> 89 25<355.538 446.897>
LayerCount: 2
Fore
SplineSet
-74 313 m 1
 -176 212 l 1
 -187 199 l 2
 -193.666992188 191.666992188 -200.333007812 191.333007812 -207 198 c 0
 -213.666992188 204.666992188 -213.666992188 212 -207 220 c 2
 -178 247 l 1
 -91 331 l 1
 -107 351.666992188 -115.333007812 375 -116 401 c 0
 -116 432.333007812 -104.5 459.333007812 -81.5 482 c 0
 -58.5 504.666992188 -31.3330078125 516 0 516 c 0
 31.3330078125 516 58.1669921875 504.833007812 80.5 482.5 c 0
 102.833007812 460.166992188 114 433 114 401 c 256
 114 369.666992188 102.833007812 342.666992188 80.5 320 c 0
 58.1669921875 297.333007812 31.3330078125 286 0 286 c 0
 -28 286 -52.6669921875 295 -74 313 c 1
0 492 m 256
 -24.6669921875 492 -45.8330078125 483 -63.5 465 c 0
 -81.1669921875 447 -90 425.666992188 -90 401 c 256
 -90 376.333007812 -81.3330078125 355.166992188 -64 337.5 c 0
 -46.6669921875 319.833007812 -25.3330078125 311 0 311 c 256
 24.6669921875 311 45.6669921875 319.833007812 63 337.5 c 0
 80.3330078125 355.166992188 89 376.333007812 89 401 c 256
 89 425.666992188 80.3330078125 447 63 465 c 0
 45.6669921875 483 24.6669921875 492 0 492 c 256
EndSplineSet
Validated: 1
EndChar

StartChar: u1D0D0
Encoding: 118992 118992 26
Width: 0
Flags: W
HStem: 290 24<-63.637 25.8165> 492 25<-64.3935 27.4842>
VStem: -132 25<357.169 448.582> 70 25<357.169 448.65>
LayerCount: 2
Fore
SplineSet
54 491 m 1
 154 591 l 1
 166 604 l 2
 172.666992188 610.666992188 179.333007812 610.666992188 186 604 c 0
 192.666992188 597.333007812 192.333007812 590.333007812 185 583 c 2
 157 556 l 1
 71 473 l 1
 86.3330078125 452.333007812 94.3330078125 429 95 403 c 0
 95 371.666992188 83.8330078125 345 61.5 323 c 0
 39.1669921875 301 12.3330078125 290 -19 290 c 0
 -50.3330078125 290 -77 301 -99 323 c 0
 -121 345 -132 371.666992188 -132 403 c 0
 -132 433.666992188 -120.833007812 460.333007812 -98.5 483 c 0
 -76.1669921875 505.666992188 -49.6669921875 517 -19 517 c 0
 8.3330078125 517 32.6669921875 508.333007812 54 491 c 1
-19 314 m 0
 5.6669921875 314 26.6669921875 322.666992188 44 340 c 0
 61.3330078125 357.333007812 70 378.333007812 70 403 c 0
 70 427.666992188 61.5 448.666992188 44.5 466 c 0
 27.5 483.333007812 6.3330078125 492 -19 492 c 0
 -43.6669921875 492 -64.5 483.333007812 -81.5 466 c 0
 -98.5 448.666992188 -107 427.666992188 -107 403 c 0
 -107 378.333007812 -98.5 357.333007812 -81.5 340 c 0
 -64.5 322.666992188 -43.6669921875 314 -19 314 c 0
EndSplineSet
Validated: 1
EndChar

StartChar: u1D0F1
Encoding: 119025 119025 27
Width: 279
VWidth: 345
Flags: W
HStem: 418 29<-41.6787 0.88916>
VStem: -42 303
LayerCount: 2
Fore
SplineSet
-21 447 m 0
 1.66666666667 447 25.5 446.666666667 50.5 446 c 0
 75.5 445.333333333 98 443.666666667 118 441 c 1
 132 441 147.5 413.333333333 164.5 358 c 0
 181.5 302.666666667 201.666666667 254.333333333 225 213 c 0
 233 199 240.333333333 191 247 189 c 0
 253 187 257.666666667 183.666666667 261 179 c 0
 264.333333333 174.333333333 261 170 251 166 c 1
 227.666666667 162 204.333333333 160.166666667 181 160.5 c 0
 157.666666667 160.833333333 135 162.666666667 113 166 c 1
 93 174 76.5 199.5 63.5 242.5 c 0
 50.5 285.5 32.3333333333 336 9 394 c 0
 7 397.333333333 3 401.833333333 -3 407.5 c 0
 -9 413.166666667 -16 416.666666667 -24 418 c 0
 -34.6666666667 420 -40.6666666667 425.333333333 -42 434 c 0
 -43.3333333333 442.666666667 -36.3333333333 447 -21 447 c 0
EndSplineSet
Validated: 33
EndChar

StartChar: u1D0F3
Encoding: 119027 119027 28
Width: 279
VWidth: 345
Flags: W
HStem: 418 29<-41.6787 0.88916>
VStem: -42 303
LayerCount: 2
Fore
SplineSet
-21 447 m 0
 1.66666666667 447 25.5 446.666666667 50.5 446 c 0
 75.5 445.333333333 98 443.666666667 118 441 c 1
 132 441 147.5 413.333333333 164.5 358 c 0
 181.5 302.666666667 201.666666667 254.333333333 225 213 c 0
 233 199 240.333333333 191 247 189 c 0
 253 187 257.666666667 183.666666667 261 179 c 0
 264.333333333 174.333333333 261 170 251 166 c 1
 227.666666667 162 204.333333333 160.166666667 181 160.5 c 0
 157.666666667 160.833333333 135 162.666666667 113 166 c 1
 93 174 76.5 199.5 63.5 242.5 c 0
 50.5 285.5 32.3333333333 336 9 394 c 0
 7 397.333333333 3 401.833333333 -3 407.5 c 0
 -9 413.166666667 -16 416.666666667 -24 418 c 0
 -34.6666666667 420 -40.6666666667 425.333333333 -42 434 c 0
 -43.3333333333 442.666666667 -36.3333333333 447 -21 447 c 0
EndSplineSet
Validated: 33
EndChar

StartChar: u1D0F2
Encoding: 119026 119026 29
Width: 738
VWidth: 345
Flags: W
HStem: 423 29<85.7838 128.574 394.26 436.917>
LayerCount: 2
Fore
SplineSet
107 452 m 4
 129.666666667 452 153.666666667 451.666666667 179 451 c 4
 204.333333333 450.333333333 227 448.333333333 247 445 c 5
 261 445 276.5 417.5 293.5 362.5 c 4
 310.5 307.5 330.666666667 259.333333333 354 218 c 4
 362 204 369.333333333 196 376 194 c 4
 382 192 386.666666667 188.5 390 183.5 c 4
 393.333333333 178.5 390 174 380 170 c 5
 356.666666667 166 333.166666667 164.333333333 309.5 165 c 4
 285.833333333 165.666666667 263.333333333 167.333333333 242 170 c 5
 222 178 205.5 203.666666667 192.5 247 c 4
 179.5 290.333333333 161.333333333 340.666666667 138 398 c 4
 136 401.333333333 131.833333333 405.833333333 125.5 411.5 c 4
 119.166666667 417.166666667 112 421 104 423 c 4
 93.3333333333 425 87.1666666667 430.166666667 85.5 438.5 c 4
 83.8333333333 446.833333333 91 451.333333333 107 452 c 4
416 452 m 4
 438.666666667 452 462.5 451.666666667 487.5 451 c 4
 512.5 450.333333333 535.333333333 448.333333333 556 445 c 5
 570 445 585.333333333 417.5 602 362.5 c 4
 618.666666667 307.5 639 259.333333333 663 218 c 4
 671 204 678.333333333 196 685 194 c 4
 691 192 695.5 188.5 698.5 183.5 c 4
 701.5 178.5 698 174 688 170 c 5
 664.666666667 166 641.333333333 164.333333333 618 165 c 4
 594.666666667 165.666666667 572.333333333 167.333333333 551 170 c 5
 531 178 514.333333333 203.666666667 501 247 c 4
 487.666666667 290.333333333 469.333333333 340.666666667 446 398 c 4
 444 401.333333333 440 405.833333333 434 411.5 c 4
 428 417.166666667 420.666666667 421 412 423 c 4
 401.333333333 425 395.333333333 430.166666667 394 438.5 c 4
 392.666666667 446.833333333 400 451.333333333 416 452 c 4
EndSplineSet
Validated: 33
EndChar

StartChar: u1D0F4
Encoding: 119028 119028 30
Width: 4
VWidth: 345
Flags: W
LayerCount: 2
Fore
SplineSet
-204.377929688 768 m 0
 -198.377929688 765.333007812 -191.7109375 761.166992188 -184.377929688 755.5 c 0
 -177.044921875 749.833007812 -171.044921875 745.333007812 -166.377929688 742 c 0
 -138.377929688 722.666992188 -113.377929688 706.166992188 -91.3779296875 692.5 c 0
 -69.3779296875 678.833007812 -42.7109375 669 -11.3779296875 663 c 0
 3.955078125 660.333007812 20.6220703125 659.5 38.6220703125 660.5 c 0
 56.6220703125 661.5 68.955078125 663.666992188 75.6220703125 667 c 0
 94.955078125 673.666992188 105.455078125 685.5 107.122070312 702.5 c 0
 108.7890625 719.5 106.955078125 733.333007812 101.622070312 744 c 0
 97.6220703125 751.333007812 96.1220703125 759.5 97.1220703125 768.5 c 0
 98.1220703125 777.5 102.622070312 782.666992188 110.622070312 784 c 1
 145.955078125 781.333007812 175.622070312 770.5 199.622070312 751.5 c 0
 223.622070312 732.5 236.2890625 715.666992188 237.622070312 701 c 1
 237.622070312 693 l 2
 237.622070312 681 231.2890625 666.333007812 218.622070312 649 c 0
 205.955078125 631.666992188 185.955078125 619.666992188 158.622070312 613 c 0
 93.955078125 598.333007812 30.6220703125 603 -31.3779296875 627 c 0
 -66.7109375 641 -101.044921875 657 -134.377929688 675 c 0
 -167.7109375 693 -198.044921875 713 -225.377929688 735 c 0
 -234.044921875 741.666992188 -235.877929688 750.333007812 -230.877929688 761 c 0
 -225.877929688 771.666992188 -217.044921875 774 -204.377929688 768 c 0
EndSplineSet
Validated: 33
EndChar

StartChar: u1D0F5
Encoding: 119029 119029 31
Width: 0
Flags: W
HStem: 183.5 38<-90.5 156.174>
VStem: -154.5 66.5<34.5 183.5>
LayerCount: 2
Fore
SplineSet
-143.5 221.5 m 0
 -94.1669921875 221.5 -44.6669921875 221.666992188 5 222 c 0
 54.6669921875 222.333007812 103.833007812 222.833007812 152.5 223.5 c 1
 155.833007812 218.833007812 157.166992188 212.833007812 156.5 205.5 c 0
 155.833007812 198.166992188 154.833007812 191.833007812 153.5 186.5 c 1
 143.5 184.5 110.666992188 183.5 55 183.5 c 0
 -28.5 183.5 -28.5 183.5 -90.5 183.5 c 1
 -90.5 148.833007812 -89.6669921875 113.5 -88 77.5 c 0
 -86.3330078125 41.5 -87.5 23.1669921875 -91.5 22.5 c 0
 -101.5 22.5 -112.333007812 21.6669921875 -124 20 c 0
 -135.666992188 18.3330078125 -145.833007812 19.1669921875 -154.5 22.5 c 0
 -155.166992188 22.5 -155.833007812 25.8330078125 -156.5 32.5 c 0
 -156.5 32.5 -156.5 32.5 -155.5 33.5 c 0
 -154.5 34.5 -154.5 34.5 -154.5 34.5 c 0
 -154.5 69.8330078125 -154.333007812 98.5 -154 120.5 c 0
 -153.666992188 142.5 -153.5 170.833007812 -153.5 205.5 c 0
 -153.5 215.5 -150.166992188 220.833007812 -143.5 221.5 c 0
EndSplineSet
Validated: 33
EndChar

StartChar: u1D0F0
Encoding: 119024 119024 32
Width: 738
VWidth: 345
Flags: W
HStem: 423 29<85.7838 128.574 394.26 436.917>
LayerCount: 2
Fore
SplineSet
107 452 m 4
 129.666666667 452 153.666666667 451.666666667 179 451 c 4
 204.333333333 450.333333333 227 448.333333333 247 445 c 5
 261 445 276.5 417.5 293.5 362.5 c 4
 310.5 307.5 330.666666667 259.333333333 354 218 c 4
 362 204 369.333333333 196 376 194 c 4
 382 192 386.666666667 188.5 390 183.5 c 4
 393.333333333 178.5 390 174 380 170 c 5
 356.666666667 166 333.166666667 164.333333333 309.5 165 c 4
 285.833333333 165.666666667 263.333333333 167.333333333 242 170 c 5
 222 178 205.5 203.666666667 192.5 247 c 4
 179.5 290.333333333 161.333333333 340.666666667 138 398 c 4
 136 401.333333333 131.833333333 405.833333333 125.5 411.5 c 4
 119.166666667 417.166666667 112 421 104 423 c 4
 93.3333333333 425 87.1666666667 430.166666667 85.5 438.5 c 4
 83.8333333333 446.833333333 91 451.333333333 107 452 c 4
416 452 m 4
 438.666666667 452 462.5 451.666666667 487.5 451 c 4
 512.5 450.333333333 535.333333333 448.333333333 556 445 c 5
 570 445 585.333333333 417.5 602 362.5 c 4
 618.666666667 307.5 639 259.333333333 663 218 c 4
 671 204 678.333333333 196 685 194 c 4
 691 192 695.5 188.5 698.5 183.5 c 4
 701.5 178.5 698 174 688 170 c 5
 664.666666667 166 641.333333333 164.333333333 618 165 c 4
 594.666666667 165.666666667 572.333333333 167.333333333 551 170 c 5
 531 178 514.333333333 203.666666667 501 247 c 4
 487.666666667 290.333333333 469.333333333 340.666666667 446 398 c 4
 444 401.333333333 440 405.833333333 434 411.5 c 4
 428 417.166666667 420.666666667 421 412 423 c 4
 401.333333333 425 395.333333333 430.166666667 394 438.5 c 4
 392.666666667 446.833333333 400 451.333333333 416 452 c 4
EndSplineSet
Validated: 33
EndChar

StartChar: ison
Encoding: 57344 57344 33
Width: 1356
VWidth: 345
Flags: W
HStem: 246 123<954.684 1248.88>
AnchorPoint: "yfenAbove" 512.018 641 basechar 0
AnchorPoint: "yfenBelow" 513.018 -40 basechar 0
AnchorPoint: "koronis" 701.018 801 basechar 0
AnchorPoint: "endofonon" 720.018 -62 basechar 0
AnchorPoint: "measureNumber" 90.0176 753 basechar 0
AnchorPoint: "isonIndicator" 710.018 913 basechar 0
AnchorPoint: "gorgonBottom" 631.018 125 basechar 0
AnchorPoint: "heteronConnecting" -257.982 -19 basechar 0
AnchorPoint: "heteron" 945.018 207 basechar 0
AnchorPoint: "omalonConnecting" -28.9824 133 basechar 0
AnchorPoint: "omalon" 949.018 133 basechar 0
AnchorPoint: "apli" 721.018 30 basechar 0
AnchorPoint: "antikenoma" 738.018 165 basechar 0
AnchorPoint: "noteTop" 232.018 676 basechar 0
AnchorPoint: "fthoraBottom" 707.018 209 basechar 0
AnchorPoint: "fthoraTop" 706.018 507 basechar 0
AnchorPoint: "diesis" 318.018 133 basechar 0
AnchorPoint: "yfesis" 1234.02 619 basechar 0
AnchorPoint: "psifiston" 758.018 113 basechar 0
AnchorPoint: "klasmaTop" 791.018 487 basechar 0
AnchorPoint: "gorgonTop" 704.018 505 basechar 0
LayerCount: 2
Fore
SplineSet
26.017578125 443 m 1
 0.6845703125 489 -6.1484375 528.5 5.517578125 561.5 c 0
 17.1845703125 594.5 38.017578125 612 68.017578125 614 c 0
 87.3515625 615.333007812 102.184570312 613.833007812 112.517578125 609.5 c 0
 122.8515625 605.166992188 131.8515625 600.833007812 139.517578125 596.5 c 0
 147.184570312 592.166992188 154.517578125 587.5 161.517578125 582.5 c 0
 168.517578125 577.5 175.184570312 572.333007812 181.517578125 567 c 0
 187.8515625 561.666992188 192.184570312 556.833007812 194.517578125 552.5 c 0
 196.8515625 548.166992188 197.8515625 544.166992188 197.517578125 540.5 c 0
 197.184570312 536.833007812 195.8515625 534.333007812 193.517578125 533 c 0
 191.184570312 531.666992188 184.184570312 528.666992188 172.517578125 524 c 0
 160.8515625 519.333007812 145.684570312 511.833007812 127.017578125 501.5 c 0
 108.3515625 491.166992188 99.3515625 473.666992188 100.017578125 449 c 0
 100.017578125 423.666992188 126.3515625 399.833007812 179.017578125 377.5 c 0
 231.684570312 355.166992188 310.017578125 346 414.017578125 350 c 1
 1148.01757812 369 l 2
 1170.01757812 369 1187.68457031 367.5 1201.01757812 364.5 c 0
 1214.3515625 361.5 1226.18457031 357.666992188 1236.51757812 353 c 0
 1246.8515625 348.333007812 1255.8515625 343.833007812 1263.51757812 339.5 c 0
 1271.18457031 335.166992188 1280.01757812 328.5 1290.01757812 319.5 c 0
 1300.01757812 310.5 1311.51757812 299 1324.51757812 285 c 0
 1337.51757812 271 1346.01757812 260.666992188 1350.01757812 254 c 0
 1354.01757812 247.333007812 1356.01757812 240.833007812 1356.01757812 234.5 c 0
 1356.01757812 228.166992188 1354.01757812 224 1350.01757812 222 c 0
 1346.01757812 220 1341.68457031 219 1337.01757812 219 c 0
 1332.3515625 219 1327.3515625 220 1322.01757812 222 c 0
 1316.68457031 224 1310.18457031 226.333007812 1302.51757812 229 c 0
 1294.8515625 231.666992188 1286.3515625 234.333007812 1277.01757812 237 c 0
 1267.68457031 239.666992188 1259.01757812 241.666992188 1251.01757812 243 c 0
 1243.01757812 244.333007812 1232.01757812 245.333007812 1218.01757812 246 c 2
 823.017578125 252 l 2
 761.684570312 252 697.184570312 254.5 629.517578125 259.5 c 0
 561.8515625 264.5 498.017578125 271 438.017578125 279 c 0
 378.017578125 287 325.3515625 295.666992188 280.017578125 305 c 0
 234.684570312 314.333007812 203.684570312 322 187.017578125 328 c 0
 158.3515625 340 132.8515625 351.833007812 110.517578125 363.5 c 0
 88.1845703125 375.166992188 60.017578125 401.666992188 26.017578125 443 c 1
EndSplineSet
LCarets2: 1 0
EndChar

StartChar: oligonKentimaBelow
Encoding: 57347 57347 34
Width: 1337
VWidth: 345
Flags: W
HStem: -17 19<1023.14 1050.62> 157 23<759.643 804.189> 246 121<100.497 1243.82>
AnchorPoint: "apli" 680.777 -180 basechar 0
AnchorPoint: "gorgonBottom" 367.777 125 basechar 0
AnchorPoint: "yfenAbove" 502.777 641 basechar 0
AnchorPoint: "yfenBelow" 503.777 -200 basechar 0
AnchorPoint: "koronis" 700.777 801 basechar 0
AnchorPoint: "endofonon" 719.777 -62 basechar 0
AnchorPoint: "measureNumber" 89.7773 753 basechar 0
AnchorPoint: "isonIndicator" 709.777 913 basechar 0
AnchorPoint: "heteronConnecting" -259.223 -51 basechar 0
AnchorPoint: "heteron" 944.777 -33 basechar 0
AnchorPoint: "omalon" 950.777 -67 basechar 0
AnchorPoint: "omalonConnecting" -40.2227 -53 basechar 0
AnchorPoint: "antikenoma" 737.777 -55 basechar 0
AnchorPoint: "noteTop" 231.777 676 basechar 0
AnchorPoint: "fthoraTop" 705.777 507 basechar 0
AnchorPoint: "fthoraBottom" 337.777 107 basechar 0
AnchorPoint: "diesis" 317.777 133 basechar 0
AnchorPoint: "yfesis" 1233.78 619 basechar 0
AnchorPoint: "klasmaTop" 710.777 487 basechar 0
AnchorPoint: "gorgonTop" 697.777 500 basechar 0
AnchorPoint: "psifiston" 757.777 113 basechar 0
LayerCount: 2
Fore
SplineSet
780.77734375 180 m 0
 803.444335938 180 827.444335938 179.833007812 852.77734375 179.5 c 0
 878.111328125 179.166992188 900.77734375 177.666992188 920.77734375 175 c 1
 934.77734375 175 948.111328125 158 960.77734375 124 c 0
 973.444335938 90 991.444335938 56 1014.77734375 22 c 0
 1022.77734375 10 1030.11132812 3.3330078125 1036.77734375 2 c 0
 1042.77734375 0.6669921875 1047.44433594 -2 1050.77734375 -6 c 0
 1054.11132812 -10 1050.77734375 -13.6669921875 1040.77734375 -17 c 1
 1017.44433594 -20.3330078125 993.944335938 -21.6669921875 970.27734375 -21 c 0
 946.611328125 -20.3330078125 924.111328125 -19 902.77734375 -17 c 1
 882.77734375 -10.3330078125 868.444335938 5.1669921875 859.77734375 29.5 c 0
 851.111328125 53.8330078125 835.111328125 89.6669921875 811.77734375 137 c 1
 804.444335938 148.333007812 793.111328125 155 777.77734375 157 c 0
 767.111328125 158.333007812 760.944335938 162.5 759.27734375 169.5 c 0
 757.611328125 176.5 764.77734375 180 780.77734375 180 c 0
2.77734375 384 m 0
 6.111328125 389.333007812 9.9443359375 392.166992188 14.27734375 392.5 c 0
 18.611328125 392.833007812 23.111328125 391.666992188 27.77734375 389 c 0
 32.4443359375 386.333007812 38.4443359375 383.166992188 45.77734375 379.5 c 0
 53.111328125 375.833007812 62.4443359375 372.833007812 73.77734375 370.5 c 0
 85.111328125 368.166992188 101.111328125 367 121.77734375 367 c 2
 1145.77734375 367 l 2
 1164.44433594 367 1181.44433594 365.5 1196.77734375 362.5 c 0
 1212.11132812 359.5 1226.11132812 354.666992188 1238.77734375 348 c 0
 1251.44433594 341.333007812 1261.27734375 335.333007812 1268.27734375 330 c 0
 1275.27734375 324.666992188 1284.77734375 315.5 1296.77734375 302.5 c 0
 1308.77734375 289.5 1319.27734375 277 1328.27734375 265 c 0
 1337.27734375 253 1339.11132812 241.333007812 1333.77734375 230 c 1
 1328.44433594 222 1322.27734375 220.333007812 1315.27734375 225 c 0
 1308.27734375 229.666992188 1300.11132812 233.666992188 1290.77734375 237 c 0
 1281.44433594 240.333007812 1271.27734375 242.666992188 1260.27734375 244 c 0
 1249.27734375 245.333007812 1232.11132812 246 1208.77734375 246 c 2
 199.77734375 246 l 2
 184.444335938 246 170.444335938 247 157.77734375 249 c 0
 145.111328125 251 135.27734375 253.166992188 128.27734375 255.5 c 0
 121.27734375 257.833007812 113.77734375 261 105.77734375 265 c 0
 97.77734375 269 89.27734375 273.833007812 80.27734375 279.5 c 0
 71.27734375 285.166992188 61.77734375 293.166992188 51.77734375 303.5 c 0
 41.77734375 313.833007812 31.611328125 325.833007812 21.27734375 339.5 c 0
 10.9443359375 353.166992188 4.4443359375 362.666992188 1.77734375 368 c 0
 -0.888671875 373.333007812 -0.5556640625 378.666992188 2.77734375 384 c 0
EndSplineSet
EndChar

StartChar: oligon
Encoding: 57345 57345 35
Width: 1337
VWidth: 345
Flags: W
HStem: 246 121<100.497 1243.82>
AnchorPoint: "yfenAbove" 502.777 641 basechar 0
AnchorPoint: "yfenBelow" 503.777 -40 basechar 0
AnchorPoint: "koronis" 603.777 801 basechar 0
AnchorPoint: "endofonon" 719.777 -62 basechar 0
AnchorPoint: "measureNumber" 89.7773 753 basechar 0
AnchorPoint: "isonIndicator" 709.777 913 basechar 0
AnchorPoint: "gorgonBottom" 584.777 125 basechar 0
AnchorPoint: "heteronConnecting" -259.223 -19 basechar 0
AnchorPoint: "heteron" 1004.78 227 basechar 0
AnchorPoint: "omalon" 948.777 133 basechar 0
AnchorPoint: "omalonConnecting" -38.2227 133 basechar 0
AnchorPoint: "apli" 720.777 30 basechar 0
AnchorPoint: "antikenoma" 737.777 165 basechar 0
AnchorPoint: "noteTop" 231.777 676 basechar 0
AnchorPoint: "fthoraTop" 705.777 507 basechar 0
AnchorPoint: "fthoraBottom" 706.777 209 basechar 0
AnchorPoint: "diesis" 317.777 133 basechar 0
AnchorPoint: "yfesis" 1233.78 619 basechar 0
AnchorPoint: "klasmaTop" 710.777 487 basechar 0
AnchorPoint: "psifiston" 757.777 113 basechar 0
AnchorPoint: "gorgonTop" 697.777 500 basechar 0
LayerCount: 2
Fore
SplineSet
2.77734375 384 m 0
 6.111328125 389.333007812 9.9443359375 392.166992188 14.27734375 392.5 c 0
 18.611328125 392.833007812 23.111328125 391.666992188 27.77734375 389 c 0
 32.4443359375 386.333007812 38.4443359375 383.166992188 45.77734375 379.5 c 0
 53.111328125 375.833007812 62.4443359375 372.833007812 73.77734375 370.5 c 0
 85.111328125 368.166992188 101.111328125 367 121.77734375 367 c 2
 1145.77734375 367 l 2
 1164.44433594 367 1181.44433594 365.5 1196.77734375 362.5 c 0
 1212.11132812 359.5 1226.11132812 354.666992188 1238.77734375 348 c 0
 1251.44433594 341.333007812 1261.27734375 335.333007812 1268.27734375 330 c 0
 1275.27734375 324.666992188 1284.77734375 315.5 1296.77734375 302.5 c 0
 1308.77734375 289.5 1319.27734375 277 1328.27734375 265 c 0
 1337.27734375 253 1339.11132812 241.333007812 1333.77734375 230 c 1
 1328.44433594 222 1322.27734375 220.333007812 1315.27734375 225 c 0
 1308.27734375 229.666992188 1300.11132812 233.666992188 1290.77734375 237 c 0
 1281.44433594 240.333007812 1271.27734375 242.666992188 1260.27734375 244 c 0
 1249.27734375 245.333007812 1232.11132812 246 1208.77734375 246 c 2
 199.77734375 246 l 2
 184.444335938 246 170.444335938 247 157.77734375 249 c 0
 145.111328125 251 135.27734375 253.166992188 128.27734375 255.5 c 0
 121.27734375 257.833007812 113.77734375 261 105.77734375 265 c 0
 97.77734375 269 89.27734375 273.833007812 80.27734375 279.5 c 0
 71.27734375 285.166992188 61.77734375 293.166992188 51.77734375 303.5 c 0
 41.77734375 313.833007812 31.611328125 325.833007812 21.27734375 339.5 c 0
 10.9443359375 353.166992188 4.4443359375 362.666992188 1.77734375 368 c 0
 -0.888671875 373.333007812 -0.5556640625 378.666992188 2.77734375 384 c 0
EndSplineSet
EndChar

StartChar: oligonKentimaAbove
Encoding: 57348 57348 36
Width: 1337
VWidth: 345
Flags: W
HStem: 246 121<100.497 1243.82> 755 28<489.684 531.821>
AnchorPoint: "gorgonBottom" 584.777 125 basechar 0
AnchorPoint: "yfenAbove" 502.777 911 basechar 0
AnchorPoint: "yfenBelow" 503.777 -40 basechar 0
AnchorPoint: "koronis" 700.777 891 basechar 0
AnchorPoint: "endofonon" 719.777 -62 basechar 0
AnchorPoint: "measureNumber" 89.7773 753 basechar 0
AnchorPoint: "isonIndicator" 709.777 913 basechar 0
AnchorPoint: "heteronConnecting" -259.223 -19 basechar 0
AnchorPoint: "heteron" 1004.78 227 basechar 0
AnchorPoint: "omalon" 948.777 133 basechar 0
AnchorPoint: "omalonConnecting" -38.2227 133 basechar 0
AnchorPoint: "antikenoma" 737.777 165 basechar 0
AnchorPoint: "apli" 720.777 30 basechar 0
AnchorPoint: "noteTop" 231.777 676 basechar 0
AnchorPoint: "fthoraTop" 1170.78 440 basechar 0
AnchorPoint: "fthoraBottom" 706.777 209 basechar 0
AnchorPoint: "diesis" 317.777 133 basechar 0
AnchorPoint: "yfesis" 1233.78 619 basechar 0
AnchorPoint: "klasmaTop" 300.777 487 basechar 0
AnchorPoint: "klasmaBottom" 702.777 160 basechar 0
AnchorPoint: "gorgonTop" 1055.78 500 basechar 0
AnchorPoint: "psifiston" 757.777 113 basechar 0
LayerCount: 2
Fore
SplineSet
510.77734375 783 m 0
 533.444335938 783 557.444335938 782.833007812 582.77734375 782.5 c 0
 608.111328125 782.166992188 630.77734375 780.333007812 650.77734375 777 c 1
 664.77734375 777 680.27734375 749.5 697.27734375 694.5 c 0
 714.27734375 639.5 734.444335938 591 757.77734375 549 c 0
 765.77734375 535 773.111328125 527.333007812 779.77734375 526 c 0
 785.77734375 524 790.27734375 520.5 793.27734375 515.5 c 0
 796.27734375 510.5 793.111328125 506 783.77734375 502 c 1
 760.444335938 498 736.944335938 496.333007812 713.27734375 497 c 0
 689.611328125 497.666992188 667.111328125 499.333007812 645.77734375 502 c 1
 625.77734375 510 609.27734375 535.5 596.27734375 578.5 c 0
 583.27734375 621.5 565.111328125 672 541.77734375 730 c 0
 539.77734375 733.333007812 535.611328125 737.833007812 529.27734375 743.5 c 0
 522.944335938 749.166992188 515.77734375 753 507.77734375 755 c 0
 497.111328125 757 490.944335938 762.166992188 489.27734375 770.5 c 0
 487.611328125 778.833007812 494.77734375 783 510.77734375 783 c 0
2.77734375 384 m 0
 6.111328125 389.333007812 9.9443359375 392.166992188 14.27734375 392.5 c 0
 18.611328125 392.833007812 23.111328125 391.666992188 27.77734375 389 c 0
 32.4443359375 386.333007812 38.4443359375 383.166992188 45.77734375 379.5 c 0
 53.111328125 375.833007812 62.4443359375 372.833007812 73.77734375 370.5 c 0
 85.111328125 368.166992188 101.111328125 367 121.77734375 367 c 2
 1145.77734375 367 l 2
 1164.44433594 367 1181.44433594 365.5 1196.77734375 362.5 c 0
 1212.11132812 359.5 1226.11132812 354.666992188 1238.77734375 348 c 0
 1251.44433594 341.333007812 1261.27734375 335.333007812 1268.27734375 330 c 0
 1275.27734375 324.666992188 1284.77734375 315.5 1296.77734375 302.5 c 0
 1308.77734375 289.5 1319.27734375 277 1328.27734375 265 c 0
 1337.27734375 253 1339.11132812 241.333007812 1333.77734375 230 c 1
 1328.44433594 222 1322.27734375 220.333007812 1315.27734375 225 c 0
 1308.27734375 229.666992188 1300.11132812 233.666992188 1290.77734375 237 c 0
 1281.44433594 240.333007812 1271.27734375 242.666992188 1260.27734375 244 c 0
 1249.27734375 245.333007812 1232.11132812 246 1208.77734375 246 c 2
 199.77734375 246 l 2
 184.444335938 246 170.444335938 247 157.77734375 249 c 0
 145.111328125 251 135.27734375 253.166992188 128.27734375 255.5 c 0
 121.27734375 257.833007812 113.77734375 261 105.77734375 265 c 0
 97.77734375 269 89.27734375 273.833007812 80.27734375 279.5 c 0
 71.27734375 285.166992188 61.77734375 293.166992188 51.77734375 303.5 c 0
 41.77734375 313.833007812 31.611328125 325.833007812 21.27734375 339.5 c 0
 10.9443359375 353.166992188 4.4443359375 362.666992188 1.77734375 368 c 0
 -0.888671875 373.333007812 -0.5556640625 378.666992188 2.77734375 384 c 0
EndSplineSet
EndChar

StartChar: oligonYpsiliRight
Encoding: 57349 57349 37
Width: 1359
VWidth: 345
Flags: W
HStem: 246 121<100.497 1243.82> 595 22<905.313 984.363> 1132 31<1321.07 1358.71>
AnchorPoint: "gorgonBottom" 584.777 125 basechar 0
AnchorPoint: "yfenAbove" 502.777 1203 basechar 0
AnchorPoint: "yfenBelow" 503.777 -40 basechar 0
AnchorPoint: "koronis" 700.777 801 basechar 0
AnchorPoint: "endofonon" 719.777 -62 basechar 0
AnchorPoint: "measureNumber" 89.7773 753 basechar 0
AnchorPoint: "isonIndicator" 709.777 1098 basechar 0
AnchorPoint: "heteronConnecting" -259.223 -19 basechar 0
AnchorPoint: "heteron" 1004.78 227 basechar 0
AnchorPoint: "omalon" 948.777 133 basechar 0
AnchorPoint: "omalonConnecting" -38.2227 133 basechar 0
AnchorPoint: "antikenoma" 737.777 165 basechar 0
AnchorPoint: "apli" 720.777 30 basechar 0
AnchorPoint: "noteTop" 231.777 676 basechar 0
AnchorPoint: "fthoraTop" 474.777 489 basechar 0
AnchorPoint: "fthoraBottom" 706.777 209 basechar 0
AnchorPoint: "diesis" 317.777 133 basechar 0
AnchorPoint: "yfesis" 1233.78 619 basechar 0
AnchorPoint: "klasmaTop" 515.777 487 basechar 0
AnchorPoint: "klasmaBottom" 702.777 160 basechar 0
AnchorPoint: "gorgonTop" 625.777 500 basechar 0
AnchorPoint: "psifiston" 757.777 113 basechar 0
LayerCount: 2
Fore
SplineSet
1344.77734375 1163 m 1
 1355.44433594 1161 1360.11132812 1155.5 1358.77734375 1146.5 c 0
 1357.44433594 1137.5 1350.77734375 1132.66699219 1338.77734375 1132 c 1
 1324.77734375 1127.33300781 1313.61132812 1109.66699219 1305.27734375 1079 c 0
 1296.94433594 1048.33300781 1287.77734375 1016 1277.77734375 982 c 0
 1255.11132812 902.666992188 1234.44433594 838.333007812 1215.77734375 789 c 0
 1197.11132812 739.666992188 1179.44433594 705.166992188 1162.77734375 685.5 c 0
 1146.11132812 665.833007812 1126.11132812 650.666992188 1102.77734375 640 c 0
 1066.77734375 624.666992188 1031.11132812 613.333007812 995.77734375 606 c 0
 960.444335938 598.666992188 930.111328125 595 904.77734375 595 c 1
 917.444335938 565 938.77734375 544 968.77734375 532 c 0
 998.77734375 520 1007.44433594 507.333007812 994.77734375 494 c 0
 987.444335938 486.666992188 964.27734375 496.333007812 925.27734375 523 c 0
 886.27734375 549.666992188 859.77734375 576 845.77734375 602 c 1
 845.77734375 618.666992188 852.444335938 625.666992188 865.77734375 623 c 0
 879.111328125 620.333007812 893.77734375 618.333007812 909.77734375 617 c 256
 925.111328125 616.333007812 940.944335938 617.333007812 957.27734375 620 c 0
 973.611328125 622.666992188 995.444335938 631 1022.77734375 645 c 0
 1036.11132812 651.666992188 1048.77734375 666.833007812 1060.77734375 690.5 c 0
 1072.77734375 714.166992188 1083.44433594 740.333007812 1092.77734375 769 c 0
 1102.11132812 797.666992188 1110.11132812 826.166992188 1116.77734375 854.5 c 0
 1123.44433594 882.833007812 1132.27734375 923.666992188 1143.27734375 977 c 0
 1154.27734375 1030.33300781 1163.77734375 1066 1171.77734375 1084 c 0
 1179.77734375 1102 1190.94433594 1116.66699219 1205.27734375 1128 c 0
 1219.61132812 1139.33300781 1233.27734375 1146.66699219 1246.27734375 1150 c 0
 1259.27734375 1153.33300781 1273.61132812 1155.66699219 1289.27734375 1157 c 0
 1304.94433594 1158.33300781 1323.44433594 1160.33300781 1344.77734375 1163 c 1
2.77734375 384 m 0
 6.111328125 389.333007812 9.9443359375 392.166992188 14.27734375 392.5 c 0
 18.611328125 392.833007812 23.111328125 391.666992188 27.77734375 389 c 0
 32.4443359375 386.333007812 38.4443359375 383.166992188 45.77734375 379.5 c 0
 53.111328125 375.833007812 62.4443359375 372.833007812 73.77734375 370.5 c 0
 85.111328125 368.166992188 101.111328125 367 121.77734375 367 c 2
 1145.77734375 367 l 2
 1164.44433594 367 1181.44433594 365.5 1196.77734375 362.5 c 0
 1212.11132812 359.5 1226.11132812 354.666992188 1238.77734375 348 c 0
 1251.44433594 341.333007812 1261.27734375 335.333007812 1268.27734375 330 c 0
 1275.27734375 324.666992188 1284.77734375 315.5 1296.77734375 302.5 c 0
 1308.77734375 289.5 1319.27734375 277 1328.27734375 265 c 0
 1337.27734375 253 1339.11132812 241.333007812 1333.77734375 230 c 1
 1328.44433594 222 1322.27734375 220.333007812 1315.27734375 225 c 0
 1308.27734375 229.666992188 1300.11132812 233.666992188 1290.77734375 237 c 0
 1281.44433594 240.333007812 1271.27734375 242.666992188 1260.27734375 244 c 0
 1249.27734375 245.333007812 1232.11132812 246 1208.77734375 246 c 2
 199.77734375 246 l 2
 184.444335938 246 170.444335938 247 157.77734375 249 c 0
 145.111328125 251 135.27734375 253.166992188 128.27734375 255.5 c 0
 121.27734375 257.833007812 113.77734375 261 105.77734375 265 c 0
 97.77734375 269 89.27734375 273.833007812 80.27734375 279.5 c 0
 71.27734375 285.166992188 61.77734375 293.166992188 51.77734375 303.5 c 0
 41.77734375 313.833007812 31.611328125 325.833007812 21.27734375 339.5 c 0
 10.9443359375 353.166992188 4.4443359375 362.666992188 1.77734375 368 c 0
 -0.888671875 373.333007812 -0.5556640625 378.666992188 2.77734375 384 c 0
EndSplineSet
EndChar

StartChar: oligonYpsiliLeft
Encoding: 57350 57350 38
Width: 1337
VWidth: 345
Flags: W
HStem: 246 121<100.497 1243.82> 595 22<138.487 217.883> 1132 31<554.098 592.711>
AnchorPoint: "gorgonBottom" 584.777 125 basechar 0
AnchorPoint: "yfenAbove" 502.777 1285 basechar 0
AnchorPoint: "yfenBelow" 503.777 -40 basechar 0
AnchorPoint: "koronis" 868.777 855 basechar 0
AnchorPoint: "endofonon" 719.777 -62 basechar 0
AnchorPoint: "measureNumber" 130.777 827 basechar 0
AnchorPoint: "isonIndicator" 1039.78 1098 basechar 0
AnchorPoint: "heteronConnecting" -259.223 -19 basechar 0
AnchorPoint: "heteron" 1004.78 227 basechar 0
AnchorPoint: "omalon" 948.777 133 basechar 0
AnchorPoint: "omalonConnecting" -38.2227 133 basechar 0
AnchorPoint: "antikenoma" 737.777 165 basechar 0
AnchorPoint: "apli" 720.777 30 basechar 0
AnchorPoint: "noteTop" 105.777 750 basechar 0
AnchorPoint: "fthoraTop" 806.777 501 basechar 0
AnchorPoint: "fthoraBottom" 706.777 209 basechar 0
AnchorPoint: "diesis" 317.777 133 basechar 0
AnchorPoint: "yfesis" 1233.78 619 basechar 0
AnchorPoint: "klasmaTop" 897.777 487 basechar 0
AnchorPoint: "klasmaBottom" 702.777 160 basechar 0
AnchorPoint: "gorgonTop" 1019.78 500 basechar 0
AnchorPoint: "psifiston" 757.777 113 basechar 0
LayerCount: 2
Fore
SplineSet
2.77734375 384 m 0
 6.111328125 389.333007812 9.9443359375 392.166992188 14.27734375 392.5 c 0
 18.611328125 392.833007812 23.111328125 391.666992188 27.77734375 389 c 0
 32.4443359375 386.333007812 38.4443359375 383.166992188 45.77734375 379.5 c 0
 53.111328125 375.833007812 62.4443359375 372.833007812 73.77734375 370.5 c 0
 85.111328125 368.166992188 101.111328125 367 121.77734375 367 c 2
 1145.77734375 367 l 2
 1164.44433594 367 1181.44433594 365.5 1196.77734375 362.5 c 0
 1212.11132812 359.5 1226.11132812 354.666992188 1238.77734375 348 c 0
 1251.44433594 341.333007812 1261.27734375 335.333007812 1268.27734375 330 c 0
 1275.27734375 324.666992188 1284.77734375 315.5 1296.77734375 302.5 c 0
 1308.77734375 289.5 1319.27734375 277 1328.27734375 265 c 0
 1337.27734375 253 1339.11132812 241.333007812 1333.77734375 230 c 1
 1328.44433594 222 1322.27734375 220.333007812 1315.27734375 225 c 0
 1308.27734375 229.666992188 1300.11132812 233.666992188 1290.77734375 237 c 0
 1281.44433594 240.333007812 1271.27734375 242.666992188 1260.27734375 244 c 0
 1249.27734375 245.333007812 1232.11132812 246 1208.77734375 246 c 2
 199.77734375 246 l 2
 184.444335938 246 170.444335938 247 157.77734375 249 c 0
 145.111328125 251 135.27734375 253.166992188 128.27734375 255.5 c 0
 121.27734375 257.833007812 113.77734375 261 105.77734375 265 c 0
 97.77734375 269 89.27734375 273.833007812 80.27734375 279.5 c 0
 71.27734375 285.166992188 61.77734375 293.166992188 51.77734375 303.5 c 0
 41.77734375 313.833007812 31.611328125 325.833007812 21.27734375 339.5 c 0
 10.9443359375 353.166992188 4.4443359375 362.666992188 1.77734375 368 c 0
 -0.888671875 373.333007812 -0.5556640625 378.666992188 2.77734375 384 c 0
578.77734375 1163 m 1
 589.444335938 1161 594.111328125 1155.5 592.77734375 1146.5 c 0
 591.444335938 1137.5 584.444335938 1132.66699219 571.77734375 1132 c 1
 557.77734375 1127.33300781 546.611328125 1109.66699219 538.27734375 1079 c 0
 529.944335938 1048.33300781 520.77734375 1016 510.77734375 982 c 0
 488.111328125 902.666992188 467.444335938 838.333007812 448.77734375 789 c 0
 430.111328125 739.666992188 412.444335938 705.166992188 395.77734375 685.5 c 0
 379.111328125 665.833007812 359.111328125 650.666992188 335.77734375 640 c 0
 299.77734375 624.666992188 264.27734375 613.333007812 229.27734375 606 c 0
 194.27734375 598.666992188 163.77734375 595 137.77734375 595 c 1
 150.444335938 565 171.77734375 544 201.77734375 532 c 0
 231.77734375 520 240.444335938 507.333007812 227.77734375 494 c 0
 220.444335938 486.666992188 197.444335938 496.333007812 158.77734375 523 c 0
 120.111328125 549.666992188 93.4443359375 576 78.77734375 602 c 1
 78.77734375 618.666992188 85.611328125 625.666992188 99.27734375 623 c 0
 112.944335938 620.333007812 127.444335938 618.333007812 142.77734375 617 c 256
 158.111328125 616.333007812 173.944335938 617.333007812 190.27734375 620 c 0
 206.611328125 622.666992188 228.444335938 631 255.77734375 645 c 0
 269.111328125 651.666992188 281.77734375 666.833007812 293.77734375 690.5 c 0
 305.77734375 714.166992188 316.611328125 740.333007812 326.27734375 769 c 0
 335.944335938 797.666992188 344.111328125 826.166992188 350.77734375 854.5 c 0
 357.444335938 882.833007812 366.27734375 923.666992188 377.27734375 977 c 0
 388.27734375 1030.33300781 397.611328125 1066 405.27734375 1084 c 0
 412.944335938 1102 423.944335938 1116.66699219 438.27734375 1128 c 0
 452.611328125 1139.33300781 466.27734375 1146.66699219 479.27734375 1150 c 0
 492.27734375 1153.33300781 506.77734375 1155.66699219 522.77734375 1157 c 0
 538.77734375 1158.33300781 557.444335938 1160.33300781 578.77734375 1163 c 1
EndSplineSet
EndChar

StartChar: oligonKentimaYpsiliRight
Encoding: 57351 57351 39
Width: 1359
VWidth: 345
Flags: W
HStem: 246 121<100.497 1243.82> 595 22<905.313 984.363> 755 28<489.684 531.821> 1132 31<1321.07 1358.71>
AnchorPoint: "gorgonBottom" 584.777 125 basechar 0
AnchorPoint: "yfenAbove" 502.777 1202 basechar 0
AnchorPoint: "yfenBelow" 503.777 -40 basechar 0
AnchorPoint: "koronis" 700.777 911 basechar 0
AnchorPoint: "endofonon" 719.777 -62 basechar 0
AnchorPoint: "measureNumber" 89.7773 753 basechar 0
AnchorPoint: "isonIndicator" 709.777 1181 basechar 0
AnchorPoint: "heteronConnecting" -259.223 -19 basechar 0
AnchorPoint: "heteron" 1004.78 227 basechar 0
AnchorPoint: "omalon" 948.777 133 basechar 0
AnchorPoint: "omalonConnecting" -38.2227 133 basechar 0
AnchorPoint: "antikenoma" 737.777 165 basechar 0
AnchorPoint: "apli" 720.777 30 basechar 0
AnchorPoint: "noteTop" 231.777 676 basechar 0
AnchorPoint: "fthoraTop" 275.777 507 basechar 0
AnchorPoint: "fthoraBottom" 706.777 209 basechar 0
AnchorPoint: "diesis" 317.777 133 basechar 0
AnchorPoint: "yfesis" 1233.78 619 basechar 0
AnchorPoint: "klasmaTop" 270.777 487 basechar 0
AnchorPoint: "klasmaBottom" 702.777 160 basechar 0
AnchorPoint: "gorgonTop" 625.777 839 basechar 0
AnchorPoint: "psifiston" 757.777 113 basechar 0
LayerCount: 2
Fore
SplineSet
510.77734375 783 m 0
 533.444335938 783 557.444335938 782.833007812 582.77734375 782.5 c 0
 608.111328125 782.166992188 630.77734375 780.333007812 650.77734375 777 c 1
 664.77734375 777 680.27734375 749.5 697.27734375 694.5 c 0
 714.27734375 639.5 734.444335938 591 757.77734375 549 c 0
 765.77734375 535 773.111328125 527.333007812 779.77734375 526 c 0
 785.77734375 524 790.27734375 520.5 793.27734375 515.5 c 0
 796.27734375 510.5 793.111328125 506 783.77734375 502 c 1
 760.444335938 498 736.944335938 496.333007812 713.27734375 497 c 0
 689.611328125 497.666992188 667.111328125 499.333007812 645.77734375 502 c 1
 625.77734375 510 609.27734375 535.5 596.27734375 578.5 c 0
 583.27734375 621.5 565.111328125 672 541.77734375 730 c 0
 539.77734375 733.333007812 535.611328125 737.833007812 529.27734375 743.5 c 0
 522.944335938 749.166992188 515.77734375 753 507.77734375 755 c 0
 497.111328125 757 490.944335938 762.166992188 489.27734375 770.5 c 0
 487.611328125 778.833007812 494.77734375 783 510.77734375 783 c 0
2.77734375 384 m 0
 6.111328125 389.333007812 9.9443359375 392.166992188 14.27734375 392.5 c 0
 18.611328125 392.833007812 23.111328125 391.666992188 27.77734375 389 c 0
 32.4443359375 386.333007812 38.4443359375 383.166992188 45.77734375 379.5 c 0
 53.111328125 375.833007812 62.4443359375 372.833007812 73.77734375 370.5 c 0
 85.111328125 368.166992188 101.111328125 367 121.77734375 367 c 2
 1145.77734375 367 l 2
 1164.44433594 367 1181.44433594 365.5 1196.77734375 362.5 c 0
 1212.11132812 359.5 1226.11132812 354.666992188 1238.77734375 348 c 0
 1251.44433594 341.333007812 1261.27734375 335.333007812 1268.27734375 330 c 0
 1275.27734375 324.666992188 1284.77734375 315.5 1296.77734375 302.5 c 0
 1308.77734375 289.5 1319.27734375 277 1328.27734375 265 c 0
 1337.27734375 253 1339.11132812 241.333007812 1333.77734375 230 c 1
 1328.44433594 222 1322.27734375 220.333007812 1315.27734375 225 c 0
 1308.27734375 229.666992188 1300.11132812 233.666992188 1290.77734375 237 c 0
 1281.44433594 240.333007812 1271.27734375 242.666992188 1260.27734375 244 c 0
 1249.27734375 245.333007812 1232.11132812 246 1208.77734375 246 c 2
 199.77734375 246 l 2
 184.444335938 246 170.444335938 247 157.77734375 249 c 0
 145.111328125 251 135.27734375 253.166992188 128.27734375 255.5 c 0
 121.27734375 257.833007812 113.77734375 261 105.77734375 265 c 0
 97.77734375 269 89.27734375 273.833007812 80.27734375 279.5 c 0
 71.27734375 285.166992188 61.77734375 293.166992188 51.77734375 303.5 c 0
 41.77734375 313.833007812 31.611328125 325.833007812 21.27734375 339.5 c 0
 10.9443359375 353.166992188 4.4443359375 362.666992188 1.77734375 368 c 0
 -0.888671875 373.333007812 -0.5556640625 378.666992188 2.77734375 384 c 0
1344.77734375 1163 m 1
 1355.44433594 1161 1360.11132812 1155.5 1358.77734375 1146.5 c 0
 1357.44433594 1137.5 1350.77734375 1132.66699219 1338.77734375 1132 c 1
 1324.77734375 1127.33300781 1313.61132812 1109.66699219 1305.27734375 1079 c 0
 1296.94433594 1048.33300781 1287.77734375 1016 1277.77734375 982 c 0
 1255.11132812 902.666992188 1234.44433594 838.333007812 1215.77734375 789 c 0
 1197.11132812 739.666992188 1179.44433594 705.166992188 1162.77734375 685.5 c 0
 1146.11132812 665.833007812 1126.11132812 650.666992188 1102.77734375 640 c 0
 1066.77734375 624.666992188 1031.11132812 613.333007812 995.77734375 606 c 0
 960.444335938 598.666992188 930.111328125 595 904.77734375 595 c 1
 917.444335938 565 938.77734375 544 968.77734375 532 c 0
 998.77734375 520 1007.44433594 507.333007812 994.77734375 494 c 0
 987.444335938 486.666992188 964.27734375 496.333007812 925.27734375 523 c 0
 886.27734375 549.666992188 859.77734375 576 845.77734375 602 c 1
 845.77734375 618.666992188 852.444335938 625.666992188 865.77734375 623 c 0
 879.111328125 620.333007812 893.77734375 618.333007812 909.77734375 617 c 256
 925.111328125 616.333007812 940.944335938 617.333007812 957.27734375 620 c 0
 973.611328125 622.666992188 995.444335938 631 1022.77734375 645 c 0
 1036.11132812 651.666992188 1048.77734375 666.833007812 1060.77734375 690.5 c 0
 1072.77734375 714.166992188 1083.44433594 740.333007812 1092.77734375 769 c 0
 1102.11132812 797.666992188 1110.11132812 826.166992188 1116.77734375 854.5 c 0
 1123.44433594 882.833007812 1132.27734375 923.666992188 1143.27734375 977 c 0
 1154.27734375 1030.33300781 1163.77734375 1066 1171.77734375 1084 c 0
 1179.77734375 1102 1190.94433594 1116.66699219 1205.27734375 1128 c 0
 1219.61132812 1139.33300781 1233.27734375 1146.66699219 1246.27734375 1150 c 0
 1259.27734375 1153.33300781 1273.61132812 1155.66699219 1289.27734375 1157 c 0
 1304.94433594 1158.33300781 1323.44433594 1160.33300781 1344.77734375 1163 c 1
EndSplineSet
EndChar

StartChar: oligonKentimaYpsiliMiddle
Encoding: 57352 57352 40
Width: 1337
VWidth: 345
Flags: W
HStem: 246 121<100.497 1243.82> 645 22<537.397 574.687> 790 19<588.857 662.818> 1243 27<973.288 1008.71>
AnchorPoint: "gorgonBottom" 584.777 125 basechar 0
AnchorPoint: "yfenAbove" 502.777 1403 basechar 0
AnchorPoint: "yfenBelow" 503.777 -40 basechar 0
AnchorPoint: "koronis" 192.777 835 basechar 0
AnchorPoint: "klasmaTop" 270.777 487 basechar 0
AnchorPoint: "measureNumber" 89.7773 753 basechar 0
AnchorPoint: "isonIndicator" 709.777 1390 basechar 0
AnchorPoint: "heteronConnecting" -259.223 -19 basechar 0
AnchorPoint: "heteron" 1004.78 227 basechar 0
AnchorPoint: "omalon" 948.777 133 basechar 0
AnchorPoint: "omalonConnecting" -38.2227 133 basechar 0
AnchorPoint: "antikenoma" 737.777 165 basechar 0
AnchorPoint: "apli" 720.777 30 basechar 0
AnchorPoint: "noteTop" 231.777 676 basechar 0
AnchorPoint: "fthoraTop" 1144.78 447 basechar 0
AnchorPoint: "fthoraBottom" 706.777 209 basechar 0
AnchorPoint: "diesis" 317.777 133 basechar 0
AnchorPoint: "yfesis" 1233.78 619 basechar 0
AnchorPoint: "klasmaBottom" 702.777 160 basechar 0
AnchorPoint: "gorgonTop" 1055.78 500 basechar 0
AnchorPoint: "psifiston" 757.777 113 basechar 0
LayerCount: 2
Fore
SplineSet
557.77734375 667 m 0
 578.444335938 667 599.77734375 666.833007812 621.77734375 666.5 c 0
 643.77734375 666.166992188 663.77734375 664.666992188 681.77734375 662 c 1
 694.444335938 662 707.27734375 640.5 720.27734375 597.5 c 0
 733.27734375 554.5 749.444335938 516.333007812 768.77734375 483 c 0
 774.77734375 471.666992188 780.77734375 465.666992188 786.77734375 465 c 0
 792.111328125 463.666992188 796.111328125 460.833007812 798.77734375 456.5 c 0
 801.444335938 452.166992188 798.444335938 448.666992188 789.77734375 446 c 1
 768.444335938 442.666992188 747.27734375 441.333007812 726.27734375 442 c 0
 705.27734375 442.666992188 685.444335938 444 666.77734375 446 c 1
 648.77734375 452.666992188 634.77734375 472.833007812 624.77734375 506.5 c 0
 614.77734375 540.166992188 600.444335938 579.666992188 581.77734375 625 c 1
 575.77734375 635.666992188 566.111328125 642.333007812 552.77734375 645 c 0
 542.77734375 646.333007812 537.611328125 650.333007812 537.27734375 657 c 0
 536.944335938 663.666992188 543.77734375 667 557.77734375 667 c 0
2.77734375 384 m 0
 6.111328125 389.333007812 9.9443359375 392.166992188 14.27734375 392.5 c 0
 18.611328125 392.833007812 23.111328125 391.666992188 27.77734375 389 c 0
 32.4443359375 386.333007812 38.4443359375 383.166992188 45.77734375 379.5 c 0
 53.111328125 375.833007812 62.4443359375 372.833007812 73.77734375 370.5 c 0
 85.111328125 368.166992188 101.111328125 367 121.77734375 367 c 2
 1145.77734375 367 l 2
 1164.44433594 367 1181.44433594 365.5 1196.77734375 362.5 c 0
 1212.11132812 359.5 1226.11132812 354.666992188 1238.77734375 348 c 0
 1251.44433594 341.333007812 1261.27734375 335.333007812 1268.27734375 330 c 0
 1275.27734375 324.666992188 1284.77734375 315.5 1296.77734375 302.5 c 0
 1308.77734375 289.5 1319.27734375 277 1328.27734375 265 c 0
 1337.27734375 253 1339.11132812 241.333007812 1333.77734375 230 c 1
 1328.44433594 222 1322.27734375 220.333007812 1315.27734375 225 c 0
 1308.27734375 229.666992188 1300.11132812 233.666992188 1290.77734375 237 c 0
 1281.44433594 240.333007812 1271.27734375 242.666992188 1260.27734375 244 c 0
 1249.27734375 245.333007812 1232.11132812 246 1208.77734375 246 c 2
 199.77734375 246 l 2
 184.444335938 246 170.444335938 247 157.77734375 249 c 0
 145.111328125 251 135.27734375 253.166992188 128.27734375 255.5 c 0
 121.27734375 257.833007812 113.77734375 261 105.77734375 265 c 0
 97.77734375 269 89.27734375 273.833007812 80.27734375 279.5 c 0
 71.27734375 285.166992188 61.77734375 293.166992188 51.77734375 303.5 c 0
 41.77734375 313.833007812 31.611328125 325.833007812 21.27734375 339.5 c 0
 10.9443359375 353.166992188 4.4443359375 362.666992188 1.77734375 368 c 0
 -0.888671875 373.333007812 -0.5556640625 378.666992188 2.77734375 384 c 0
995.77734375 1270 m 1
 1005.77734375 1268.66699219 1010.11132812 1264 1008.77734375 1256 c 0
 1007.44433594 1248 1001.11132812 1243.66699219 989.77734375 1243 c 1
 977.111328125 1239 966.77734375 1224.16699219 958.77734375 1198.5 c 0
 950.77734375 1172.83300781 942.444335938 1145.66699219 933.77734375 1117 c 0
 913.111328125 1049.66699219 894.111328125 995.166992188 876.77734375 953.5 c 0
 859.444335938 911.833007812 842.944335938 882.833007812 827.27734375 866.5 c 0
 811.611328125 850.166992188 793.111328125 837.666992188 771.77734375 829 c 0
 738.444335938 815.666992188 705.611328125 805.833007812 673.27734375 799.5 c 0
 640.944335938 793.166992188 612.77734375 790 588.77734375 790 c 1
 600.77734375 764 620.444335938 746.166992188 647.77734375 736.5 c 0
 675.111328125 726.833007812 683.111328125 716.333007812 671.77734375 705 c 0
 665.111328125 699 643.77734375 707.333007812 607.77734375 730 c 0
 571.77734375 752.666992188 547.111328125 775 533.77734375 797 c 1
 533.77734375 811 540.111328125 816.833007812 552.77734375 814.5 c 0
 565.444335938 812.166992188 578.77734375 810.333007812 592.77734375 809 c 0
 607.444335938 808.333007812 622.27734375 809.166992188 637.27734375 811.5 c 0
 652.27734375 813.833007812 672.444335938 820.666992188 697.77734375 832 c 0
 710.444335938 838 722.27734375 851 733.27734375 871 c 0
 744.27734375 891 754.111328125 913.166992188 762.77734375 937.5 c 0
 771.444335938 961.833007812 778.944335938 985.833007812 785.27734375 1009.5 c 0
 791.611328125 1033.16699219 799.77734375 1067.5 809.77734375 1112.5 c 0
 819.77734375 1157.5 828.444335938 1187.66699219 835.77734375 1203 c 0
 843.111328125 1218.33300781 853.27734375 1230.66699219 866.27734375 1240 c 0
 879.27734375 1249.33300781 891.77734375 1255.33300781 903.77734375 1258 c 0
 915.77734375 1260.66699219 929.27734375 1262.83300781 944.27734375 1264.5 c 0
 959.27734375 1266.16699219 976.444335938 1268 995.77734375 1270 c 1
EndSplineSet
EndChar

StartChar: oligonDoubleYpsili
Encoding: 57353 57353 41
Width: 1359
VWidth: 345
Flags: W
HStem: 246 121<100.497 1243.82> 595 22<138.487 217.883 905.313 984.363> 1132 31<554.098 592.711 1321.07 1358.71>
AnchorPoint: "gorgonBottom" 584.777 125 basechar 0
AnchorPoint: "yfenAbove" 502.777 1271 basechar 0
AnchorPoint: "yfenBelow" 503.777 -40 basechar 0
AnchorPoint: "koronis" 700.777 1261 basechar 0
AnchorPoint: "endofonon" 719.777 -62 basechar 0
AnchorPoint: "measureNumber" 77.7773 800 basechar 0
AnchorPoint: "isonIndicator" 709.777 1283 basechar 0
AnchorPoint: "heteronConnecting" -259.223 -19 basechar 0
AnchorPoint: "heteron" 1004.78 227 basechar 0
AnchorPoint: "omalon" 948.777 133 basechar 0
AnchorPoint: "omalonConnecting" -38.2227 133 basechar 0
AnchorPoint: "antikenoma" 737.777 165 basechar 0
AnchorPoint: "apli" 720.777 30 basechar 0
AnchorPoint: "noteTop" 111.777 772 basechar 0
AnchorPoint: "fthoraTop" 595.777 507 basechar 0
AnchorPoint: "fthoraBottom" 706.777 209 basechar 0
AnchorPoint: "diesis" 317.777 133 basechar 0
AnchorPoint: "yfesis" 1233.78 619 basechar 0
AnchorPoint: "klasmaBottom" 702.777 160 basechar 0
AnchorPoint: "gorgonTop" 674.777 500 basechar 0
AnchorPoint: "psifiston" 757.777 113 basechar 0
LayerCount: 2
Fore
SplineSet
2.77734375 384 m 0
 6.111328125 389.333007812 9.9443359375 392.166992188 14.27734375 392.5 c 0
 18.611328125 392.833007812 23.111328125 391.666992188 27.77734375 389 c 0
 32.4443359375 386.333007812 38.4443359375 383.166992188 45.77734375 379.5 c 0
 53.111328125 375.833007812 62.4443359375 372.833007812 73.77734375 370.5 c 0
 85.111328125 368.166992188 101.111328125 367 121.77734375 367 c 2
 1145.77734375 367 l 2
 1164.44433594 367 1181.44433594 365.5 1196.77734375 362.5 c 0
 1212.11132812 359.5 1226.11132812 354.666992188 1238.77734375 348 c 0
 1251.44433594 341.333007812 1261.27734375 335.333007812 1268.27734375 330 c 0
 1275.27734375 324.666992188 1284.77734375 315.5 1296.77734375 302.5 c 0
 1308.77734375 289.5 1319.27734375 277 1328.27734375 265 c 0
 1337.27734375 253 1339.11132812 241.333007812 1333.77734375 230 c 1
 1328.44433594 222 1322.27734375 220.333007812 1315.27734375 225 c 0
 1308.27734375 229.666992188 1300.11132812 233.666992188 1290.77734375 237 c 0
 1281.44433594 240.333007812 1271.27734375 242.666992188 1260.27734375 244 c 0
 1249.27734375 245.333007812 1232.11132812 246 1208.77734375 246 c 2
 199.77734375 246 l 2
 184.444335938 246 170.444335938 247 157.77734375 249 c 0
 145.111328125 251 135.27734375 253.166992188 128.27734375 255.5 c 0
 121.27734375 257.833007812 113.77734375 261 105.77734375 265 c 0
 97.77734375 269 89.27734375 273.833007812 80.27734375 279.5 c 0
 71.27734375 285.166992188 61.77734375 293.166992188 51.77734375 303.5 c 0
 41.77734375 313.833007812 31.611328125 325.833007812 21.27734375 339.5 c 0
 10.9443359375 353.166992188 4.4443359375 362.666992188 1.77734375 368 c 0
 -0.888671875 373.333007812 -0.5556640625 378.666992188 2.77734375 384 c 0
1344.77734375 1163 m 1
 1355.44433594 1161 1360.11132812 1155.5 1358.77734375 1146.5 c 0
 1357.44433594 1137.5 1350.77734375 1132.66699219 1338.77734375 1132 c 1
 1324.77734375 1127.33300781 1313.61132812 1109.66699219 1305.27734375 1079 c 0
 1296.94433594 1048.33300781 1287.77734375 1016 1277.77734375 982 c 0
 1255.11132812 902.666992188 1234.44433594 838.333007812 1215.77734375 789 c 0
 1197.11132812 739.666992188 1179.44433594 705.166992188 1162.77734375 685.5 c 0
 1146.11132812 665.833007812 1126.11132812 650.666992188 1102.77734375 640 c 0
 1066.77734375 624.666992188 1031.11132812 613.333007812 995.77734375 606 c 0
 960.444335938 598.666992188 930.111328125 595 904.77734375 595 c 1
 917.444335938 565 938.77734375 544 968.77734375 532 c 0
 998.77734375 520 1007.44433594 507.333007812 994.77734375 494 c 0
 987.444335938 486.666992188 964.27734375 496.333007812 925.27734375 523 c 0
 886.27734375 549.666992188 859.77734375 576 845.77734375 602 c 1
 845.77734375 618.666992188 852.444335938 625.666992188 865.77734375 623 c 0
 879.111328125 620.333007812 893.77734375 618.333007812 909.77734375 617 c 256
 925.111328125 616.333007812 940.944335938 617.333007812 957.27734375 620 c 0
 973.611328125 622.666992188 995.444335938 631 1022.77734375 645 c 0
 1036.11132812 651.666992188 1048.77734375 666.833007812 1060.77734375 690.5 c 0
 1072.77734375 714.166992188 1083.44433594 740.333007812 1092.77734375 769 c 0
 1102.11132812 797.666992188 1110.11132812 826.166992188 1116.77734375 854.5 c 0
 1123.44433594 882.833007812 1132.27734375 923.666992188 1143.27734375 977 c 0
 1154.27734375 1030.33300781 1163.77734375 1066 1171.77734375 1084 c 0
 1179.77734375 1102 1190.94433594 1116.66699219 1205.27734375 1128 c 0
 1219.61132812 1139.33300781 1233.27734375 1146.66699219 1246.27734375 1150 c 0
 1259.27734375 1153.33300781 1273.61132812 1155.66699219 1289.27734375 1157 c 0
 1304.94433594 1158.33300781 1323.44433594 1160.33300781 1344.77734375 1163 c 1
578.77734375 1163 m 1
 589.444335938 1161 594.111328125 1155.5 592.77734375 1146.5 c 0
 591.444335938 1137.5 584.444335938 1132.66699219 571.77734375 1132 c 1
 557.77734375 1127.33300781 546.611328125 1109.66699219 538.27734375 1079 c 0
 529.944335938 1048.33300781 520.77734375 1016 510.77734375 982 c 0
 488.111328125 902.666992188 467.444335938 838.333007812 448.77734375 789 c 0
 430.111328125 739.666992188 412.444335938 705.166992188 395.77734375 685.5 c 0
 379.111328125 665.833007812 359.111328125 650.666992188 335.77734375 640 c 0
 299.77734375 624.666992188 264.27734375 613.333007812 229.27734375 606 c 0
 194.27734375 598.666992188 163.77734375 595 137.77734375 595 c 1
 150.444335938 565 171.77734375 544 201.77734375 532 c 0
 231.77734375 520 240.444335938 507.333007812 227.77734375 494 c 0
 220.444335938 486.666992188 197.444335938 496.333007812 158.77734375 523 c 0
 120.111328125 549.666992188 93.4443359375 576 78.77734375 602 c 1
 78.77734375 618.666992188 85.611328125 625.666992188 99.27734375 623 c 0
 112.944335938 620.333007812 127.444335938 618.333007812 142.77734375 617 c 256
 158.111328125 616.333007812 173.944335938 617.333007812 190.27734375 620 c 0
 206.611328125 622.666992188 228.444335938 631 255.77734375 645 c 0
 269.111328125 651.666992188 281.77734375 666.833007812 293.77734375 690.5 c 0
 305.77734375 714.166992188 316.611328125 740.333007812 326.27734375 769 c 0
 335.944335938 797.666992188 344.111328125 826.166992188 350.77734375 854.5 c 0
 357.444335938 882.833007812 366.27734375 923.666992188 377.27734375 977 c 0
 388.27734375 1030.33300781 397.611328125 1066 405.27734375 1084 c 0
 412.944335938 1102 423.944335938 1116.66699219 438.27734375 1128 c 0
 452.611328125 1139.33300781 466.27734375 1146.66699219 479.27734375 1150 c 0
 492.27734375 1153.33300781 506.77734375 1155.66699219 522.77734375 1157 c 0
 538.77734375 1158.33300781 557.444335938 1160.33300781 578.77734375 1163 c 1
EndSplineSet
EndChar

StartChar: oligonKentimataDoubleYpsili
Encoding: 57354 57354 42
Width: 1413
VWidth: 345
Flags: W
HStem: 246 121<100.497 1243.82> 595 22<959.199 1037.97> 671 26<269.914 304.541 540.383 574.542> 848 17<403.871 475.258> 1132 31<1375 1412.71> 1248 24<770.331 804.227>
AnchorPoint: "gorgonBottom" 584.777 125 basechar 0
AnchorPoint: "yfenAbove" 583.777 1371 basechar 0
AnchorPoint: "yfenBelow" 584.777 -40 basechar 0
AnchorPoint: "koronis" 700.777 1371 basechar 0
AnchorPoint: "endofonon" 719.777 -62 basechar 0
AnchorPoint: "measureNumber" 89.7773 875 basechar 0
AnchorPoint: "isonIndicator" 709.777 1392 basechar 0
AnchorPoint: "heteronConnecting" -178.223 -19 basechar 0
AnchorPoint: "heteron" 1004.78 227 basechar 0
AnchorPoint: "omalon" 948.777 133 basechar 0
AnchorPoint: "omalonConnecting" 42.7773 133 basechar 0
AnchorPoint: "antikenoma" 737.777 165 basechar 0
AnchorPoint: "apli" 720.777 30 basechar 0
AnchorPoint: "noteTop" 73.7773 680 basechar 0
AnchorPoint: "fthoraTop" 231.777 1071 basechar 0
AnchorPoint: "fthoraBottom" 706.777 209 basechar 0
AnchorPoint: "diesis" 317.777 133 basechar 0
AnchorPoint: "yfesis" 1285.78 619 basechar 0
AnchorPoint: "klasmaBottom" 702.777 160 basechar 0
AnchorPoint: "psifiston" 757.777 113 basechar 0
LayerCount: 2
Fore
SplineSet
288.77734375 697 m 0
 308.77734375 697 329.77734375 696.666992188 351.77734375 696 c 0
 373.77734375 695.333007812 393.444335938 693.333007812 410.77734375 690 c 1
 423.444335938 690 436.77734375 668.666992188 450.77734375 626 c 0
 464.77734375 583.333007812 481.444335938 541.666992188 500.77734375 501 c 0
 506.77734375 487 513.111328125 479 519.77734375 477 c 0
 525.111328125 475 529.111328125 471.5 531.77734375 466.5 c 0
 534.444335938 461.5 531.444335938 457 522.77734375 453 c 1
 502.77734375 449 482.27734375 447.333007812 461.27734375 448 c 0
 440.27734375 448.666992188 420.444335938 450.333007812 401.77734375 453 c 1
 384.444335938 461 370.77734375 480.166992188 360.77734375 510.5 c 0
 350.77734375 540.833007812 335.444335938 585 314.77734375 643 c 0
 313.444335938 646.333007812 309.944335938 651.5 304.27734375 658.5 c 0
 298.611328125 665.5 292.444335938 669.666992188 285.77734375 671 c 0
 276.444335938 672.333007812 271.111328125 676.833007812 269.77734375 684.5 c 0
 268.444335938 692.166992188 274.77734375 696.333007812 288.77734375 697 c 0
559.77734375 697 m 0
 579.77734375 697 600.611328125 696.666992188 622.27734375 696 c 0
 643.944335938 695.333007812 663.77734375 693.333007812 681.77734375 690 c 1
 694.444335938 690 707.611328125 668.666992188 721.27734375 626 c 0
 734.944335938 583.333007812 751.444335938 541.666992188 770.77734375 501 c 0
 776.77734375 487 783.111328125 479 789.77734375 477 c 0
 795.111328125 475 799.111328125 471.5 801.77734375 466.5 c 0
 804.444335938 461.5 801.444335938 457 792.77734375 453 c 1
 772.77734375 449 752.444335938 447.333007812 731.77734375 448 c 0
 711.111328125 448.666992188 691.444335938 450.333007812 672.77734375 453 c 1
 655.444335938 461 641.77734375 480.166992188 631.77734375 510.5 c 0
 621.77734375 540.833007812 606.444335938 585 585.77734375 643 c 0
 583.77734375 646.333007812 579.944335938 651.5 574.27734375 658.5 c 0
 568.611328125 665.5 562.444335938 669.666992188 555.77734375 671 c 0
 546.444335938 672.333007812 541.27734375 676.833007812 540.27734375 684.5 c 0
 539.27734375 692.166992188 545.77734375 696.333007812 559.77734375 697 c 0
2.77734375 384 m 0
 6.111328125 389.333007812 9.9443359375 392.166992188 14.27734375 392.5 c 0
 18.611328125 392.833007812 23.111328125 391.666992188 27.77734375 389 c 0
 32.4443359375 386.333007812 38.4443359375 383.166992188 45.77734375 379.5 c 0
 53.111328125 375.833007812 62.4443359375 372.833007812 73.77734375 370.5 c 0
 85.111328125 368.166992188 101.111328125 367 121.77734375 367 c 2
 1145.77734375 367 l 2
 1164.44433594 367 1181.44433594 365.5 1196.77734375 362.5 c 0
 1212.11132812 359.5 1226.11132812 354.666992188 1238.77734375 348 c 0
 1251.44433594 341.333007812 1261.27734375 335.333007812 1268.27734375 330 c 0
 1275.27734375 324.666992188 1284.77734375 315.5 1296.77734375 302.5 c 0
 1308.77734375 289.5 1319.27734375 277 1328.27734375 265 c 0
 1337.27734375 253 1339.11132812 241.333007812 1333.77734375 230 c 1
 1328.44433594 222 1322.27734375 220.333007812 1315.27734375 225 c 0
 1308.27734375 229.666992188 1300.11132812 233.666992188 1290.77734375 237 c 0
 1281.44433594 240.333007812 1271.27734375 242.666992188 1260.27734375 244 c 0
 1249.27734375 245.333007812 1232.11132812 246 1208.77734375 246 c 2
 199.77734375 246 l 2
 184.444335938 246 170.444335938 247 157.77734375 249 c 0
 145.111328125 251 135.27734375 253.166992188 128.27734375 255.5 c 0
 121.27734375 257.833007812 113.77734375 261 105.77734375 265 c 0
 97.77734375 269 89.27734375 273.833007812 80.27734375 279.5 c 0
 71.27734375 285.166992188 61.77734375 293.166992188 51.77734375 303.5 c 0
 41.77734375 313.833007812 31.611328125 325.833007812 21.27734375 339.5 c 0
 10.9443359375 353.166992188 4.4443359375 362.666992188 1.77734375 368 c 0
 -0.888671875 373.333007812 -0.5556640625 378.666992188 2.77734375 384 c 0
1398.77734375 1163 m 1
 1409.44433594 1161 1414.11132812 1155.5 1412.77734375 1146.5 c 0
 1411.44433594 1137.5 1404.77734375 1132.66699219 1392.77734375 1132 c 1
 1378.77734375 1127.33300781 1367.44433594 1109.66699219 1358.77734375 1079 c 0
 1350.11132812 1048.33300781 1341.11132812 1016 1331.77734375 982 c 0
 1309.11132812 902.666992188 1288.44433594 838.333007812 1269.77734375 789 c 0
 1251.11132812 739.666992188 1233.27734375 705.166992188 1216.27734375 685.5 c 0
 1199.27734375 665.833007812 1179.11132812 650.666992188 1155.77734375 640 c 0
 1119.77734375 624.666992188 1084.27734375 613.333007812 1049.27734375 606 c 0
 1014.27734375 598.666992188 984.111328125 595 958.77734375 595 c 1
 971.444335938 565 992.611328125 544 1022.27734375 532 c 0
 1051.94433594 520 1060.44433594 507.333007812 1047.77734375 494 c 0
 1040.44433594 486.666992188 1017.44433594 496.333007812 978.77734375 523 c 0
 940.111328125 549.666992188 913.444335938 576 898.77734375 602 c 1
 898.77734375 618.666992188 905.611328125 625.666992188 919.27734375 623 c 0
 932.944335938 620.333007812 947.444335938 618.333007812 962.77734375 617 c 256
 978.111328125 616.333007812 994.111328125 617.333007812 1010.77734375 620 c 0
 1027.44433594 622.666992188 1049.44433594 631 1076.77734375 645 c 0
 1090.11132812 651.666992188 1102.61132812 666.833007812 1114.27734375 690.5 c 0
 1125.94433594 714.166992188 1136.61132812 740.333007812 1146.27734375 769 c 0
 1155.94433594 797.666992188 1164.11132812 826.166992188 1170.77734375 854.5 c 0
 1177.44433594 882.833007812 1186.27734375 923.666992188 1197.27734375 977 c 0
 1208.27734375 1030.33300781 1217.61132812 1066 1225.27734375 1084 c 0
 1232.94433594 1102 1243.94433594 1116.66699219 1258.27734375 1128 c 0
 1272.61132812 1139.33300781 1286.27734375 1146.66699219 1299.27734375 1150 c 0
 1312.27734375 1153.33300781 1326.77734375 1155.66699219 1342.77734375 1157 c 0
 1358.77734375 1158.33300781 1377.44433594 1160.33300781 1398.77734375 1163 c 1
791.77734375 1272 m 1
 801.111328125 1270.66699219 805.27734375 1266.5 804.27734375 1259.5 c 0
 803.27734375 1252.5 797.111328125 1248.66699219 785.77734375 1248 c 1
 773.77734375 1244 763.944335938 1230.83300781 756.27734375 1208.5 c 0
 748.611328125 1186.16699219 740.444335938 1162.33300781 731.77734375 1137 c 0
 711.77734375 1077.66699219 693.611328125 1029.66699219 677.27734375 993 c 0
 660.944335938 956.333007812 645.444335938 930.666992188 630.77734375 916 c 0
 616.111328125 901.333007812 598.444335938 890 577.77734375 882 c 0
 545.77734375 870.666992188 514.444335938 862.166992188 483.77734375 856.5 c 0
 453.111328125 850.833007812 426.444335938 848 403.77734375 848 c 1
 415.111328125 825.333007812 433.944335938 809.666992188 460.27734375 801 c 0
 486.611328125 792.333007812 494.111328125 783 482.77734375 773 c 0
 476.111328125 767.666992188 455.77734375 775 421.77734375 795 c 0
 387.77734375 815 364.444335938 834.666992188 351.77734375 854 c 1
 351.77734375 866.666992188 357.611328125 871.833007812 369.27734375 869.5 c 0
 380.944335938 867.166992188 393.77734375 865.666992188 407.77734375 865 c 0
 421.77734375 864.333007812 435.944335938 865 450.27734375 867 c 0
 464.611328125 869 483.77734375 875.333007812 507.77734375 886 c 0
 519.77734375 891.333007812 530.944335938 902.666992188 541.27734375 920 c 0
 551.611328125 937.333007812 560.944335938 956.833007812 569.27734375 978.5 c 0
 577.611328125 1000.16699219 584.77734375 1021.5 590.77734375 1042.5 c 0
 596.77734375 1063.5 604.444335938 1093.83300781 613.77734375 1133.5 c 0
 623.111328125 1173.16699219 631.27734375 1199.66699219 638.27734375 1213 c 0
 645.27734375 1226.33300781 655.111328125 1237.16699219 667.77734375 1245.5 c 0
 680.444335938 1253.83300781 692.611328125 1259.16699219 704.27734375 1261.5 c 0
 715.944335938 1263.83300781 728.77734375 1265.66699219 742.77734375 1267 c 0
 756.77734375 1268.33300781 773.111328125 1270 791.77734375 1272 c 1
EndSplineSet
EndChar

StartChar: isonApostrofos
Encoding: 57376 57376 43
Width: 1317
VWidth: 345
Flags: W
HStem: -226 32<1068.01 1120.8> 95 31<737.114 921.343> 252 117<696.333 961.628>
AnchorPoint: "yfenAbove" 510.018 891 basechar 0
AnchorPoint: "yfenBelow" 446.018 -236 basechar 0
AnchorPoint: "koronis" 553.018 881 basechar 0
AnchorPoint: "apli" 1167.02 -424 basechar 0
AnchorPoint: "measureNumber" 95.0176 773 basechar 0
AnchorPoint: "isonIndicator" 553.018 913 basechar 0
AnchorPoint: "noteTop" 245.018 661 basechar 0
AnchorPoint: "fthoraTop" 567.018 507 basechar 0
AnchorPoint: "fthoraBottom" 343.018 153 basechar 0
AnchorPoint: "diesis" 323.018 133 basechar 0
LayerCount: 2
Fore
SplineSet
1067.01757812 -218 m 1
 1059.68457031 -212 1059.18457031 -206.5 1065.51757812 -201.5 c 0
 1071.8515625 -196.5 1080.01757812 -194 1090.01757812 -194 c 0
 1100.68457031 -194 1115.8515625 -184.166992188 1135.51757812 -164.5 c 0
 1155.18457031 -144.833007812 1168.01757812 -121 1174.01757812 -93 c 0
 1184.01757812 -44.3330078125 1158.68457031 -4.3330078125 1098.01757812 27 c 0
 1032.01757812 59.6669921875 947.017578125 81.3330078125 843.017578125 92 c 0
 825.684570312 93.3330078125 806.184570312 94 784.517578125 94 c 0
 762.8515625 94 750.684570312 94.3330078125 748.017578125 95 c 0
 738.684570312 98.3330078125 735.017578125 104 737.017578125 112 c 0
 739.017578125 120 744.017578125 124.666992188 752.017578125 126 c 0
 759.3515625 126 777.3515625 125.166992188 806.017578125 123.5 c 0
 834.684570312 121.833007812 866.3515625 118.666992188 901.017578125 114 c 0
 940.3515625 108 980.184570312 100 1020.51757812 90 c 0
 1060.8515625 80 1098.3515625 68.3330078125 1133.01757812 55 c 0
 1172.3515625 39.6669921875 1203.68457031 24.1669921875 1227.01757812 8.5 c 0
 1250.3515625 -7.1669921875 1272.01757812 -27.6669921875 1292.01757812 -53 c 0
 1311.3515625 -79.6669921875 1319.3515625 -106 1316.01757812 -132 c 0
 1312.68457031 -158 1301.3515625 -178 1282.01757812 -192 c 0
 1264.68457031 -205.333007812 1244.3515625 -214.333007812 1221.01757812 -219 c 0
 1197.68457031 -223.666992188 1175.3515625 -226 1154.01757812 -226 c 256
 1122.01757812 -226 1122.01757812 -226 1110.51757812 -226 c 0
 1102.8515625 -226 1088.3515625 -223.333007812 1067.01757812 -218 c 1
26.017578125 443 m 1
 0.6845703125 489 -6.1484375 528.5 5.517578125 561.5 c 0
 17.1845703125 594.5 38.017578125 612 68.017578125 614 c 0
 87.3515625 615.333007812 102.184570312 613.833007812 112.517578125 609.5 c 0
 122.8515625 605.166992188 132.017578125 600.833007812 140.017578125 596.5 c 0
 148.017578125 592.166992188 155.517578125 587.5 162.517578125 582.5 c 0
 169.517578125 577.5 176.017578125 572.333007812 182.017578125 567 c 0
 188.017578125 561.666992188 192.184570312 556.833007812 194.517578125 552.5 c 0
 196.8515625 548.166992188 197.8515625 544.166992188 197.517578125 540.5 c 0
 197.184570312 536.833007812 195.8515625 534.333007812 193.517578125 533 c 0
 191.184570312 531.666992188 184.184570312 528.666992188 172.517578125 524 c 0
 160.8515625 519.333007812 145.684570312 511.833007812 127.017578125 501.5 c 0
 108.3515625 491.166992188 99.3515625 473.666992188 100.017578125 449 c 0
 100.017578125 423.666992188 126.3515625 399.833007812 179.017578125 377.5 c 0
 231.684570312 355.166992188 310.017578125 346 414.017578125 350 c 2
 861.017578125 369 l 2
 883.017578125 369 900.517578125 367.5 913.517578125 364.5 c 0
 926.517578125 361.5 938.3515625 357.666992188 949.017578125 353 c 0
 959.684570312 348.333007812 968.684570312 343.833007812 976.017578125 339.5 c 0
 983.3515625 335.166992188 992.017578125 328.5 1002.01757812 319.5 c 0
 1012.01757812 310.5 1023.51757812 299 1036.51757812 285 c 0
 1049.51757812 271 1058.18457031 260.666992188 1062.51757812 254 c 0
 1066.8515625 247.333007812 1069.01757812 240.833007812 1069.01757812 234.5 c 0
 1069.01757812 228.166992188 1066.8515625 224 1062.51757812 222 c 0
 1058.18457031 220 1053.68457031 219 1049.01757812 219 c 0
 1044.3515625 219 1039.3515625 220 1034.01757812 222 c 0
 1028.68457031 224 1022.18457031 226.333007812 1014.51757812 229 c 0
 1006.8515625 231.666992188 998.3515625 234.333007812 989.017578125 237 c 0
 979.684570312 239.666992188 971.017578125 241.666992188 963.017578125 243 c 0
 955.017578125 244.333007812 944.017578125 245.333007812 930.017578125 246 c 2
 823.017578125 252 l 1
 761.684570312 252 697.184570312 254.5 629.517578125 259.5 c 0
 561.8515625 264.5 498.017578125 271 438.017578125 279 c 0
 378.017578125 287 325.3515625 295.666992188 280.017578125 305 c 0
 234.684570312 314.333007812 203.684570312 322 187.017578125 328 c 0
 158.3515625 340 132.8515625 351.833007812 110.517578125 363.5 c 0
 88.1845703125 375.166992188 60.017578125 401.666992188 26.017578125 443 c 1
EndSplineSet
EndChar

StartChar: apostrofosSyndesmos
Encoding: 57378 57378 44
Width: 1039
VWidth: 345
Flags: W
HStem: -225 31<790.195 843.174> 95 29.5<459.811 653.296> 200 32<331.195 384.981> 519.5 30<0.811386 194.713>
AnchorPoint: "yfenAbove" 168.2 891 basechar 0
AnchorPoint: "yfenBelow" 169.2 -400 basechar 0
AnchorPoint: "koronis" 551.2 881 basechar 0
AnchorPoint: "apli" 865.2 -424 basechar 0
AnchorPoint: "measureNumber" 93.2002 803 basechar 0
AnchorPoint: "isonIndicator" 551.2 913 basechar 0
AnchorPoint: "noteTop" 115.2 699 basechar 0
AnchorPoint: "fthoraTop" 508.2 642 basechar 0
AnchorPoint: "fthoraBottom" 294.2 93 basechar 0
AnchorPoint: "gorgonTop" 859.2 193 basechar 0
AnchorPoint: "diesis" 254.2 127 basechar 0
LayerCount: 2
Fore
SplineSet
789.200195312 -217 m 1
 781.866210938 -211 781.533203125 -205.666992188 788.200195312 -201 c 0
 794.866210938 -196.333007812 803.200195312 -194 813.200195312 -194 c 0
 823.866210938 -194 839.033203125 -184 858.700195312 -164 c 0
 878.366210938 -144 891.200195312 -120 897.200195312 -92 c 0
 907.200195312 -43.3330078125 881.533203125 -3.3330078125 820.200195312 28 c 0
 754.200195312 60.6669921875 669.533203125 82.3330078125 566.200195312 93 c 0
 548.866210938 94.3330078125 529.200195312 95 507.200195312 95 c 0
 485.200195312 95 472.866210938 95.3330078125 470.200195312 96 c 0
 460.866210938 99.3330078125 457.366210938 105 459.700195312 113 c 0
 462.033203125 121 466.866210938 125.333007812 474.200195312 126 c 0
 481.533203125 126.666992188 499.700195312 126.166992188 528.700195312 124.5 c 0
 557.700195312 122.833007812 589.200195312 119.666992188 623.200195312 115 c 0
 662.533203125 109 702.366210938 101 742.700195312 91 c 0
 783.033203125 81 820.866210938 69.3330078125 856.200195312 56 c 0
 895.533203125 40.6669921875 926.866210938 25.1669921875 950.200195312 9.5 c 0
 973.533203125 -6.1669921875 994.866210938 -26.6669921875 1014.20019531 -52 c 0
 1033.53320312 -78.6669921875 1041.70019531 -105 1038.70019531 -131 c 0
 1035.70019531 -157 1024.20019531 -177.333007812 1004.20019531 -192 c 0
 986.866210938 -205.333007812 966.700195312 -214.166992188 943.700195312 -218.5 c 0
 920.700195312 -222.833007812 898.533203125 -225 877.200195312 -225 c 256
 855.866210938 -225 841.200195312 -224.833007812 833.200195312 -224.5 c 0
 825.200195312 -224.166992188 810.533203125 -221.666992188 789.200195312 -217 c 1
330.200195312 208 m 1
 322.866210938 214 322.533203125 219.5 329.200195312 224.5 c 0
 335.866210938 229.5 344.200195312 232 354.200195312 232 c 0
 364.866210938 232 380.033203125 241.666992188 399.700195312 261 c 0
 419.366210938 280.333007812 432.200195312 304.333007812 438.200195312 333 c 0
 448.200195312 381.666992188 422.533203125 421.666992188 361.200195312 453 c 0
 295.866210938 485.666992188 211.200195312 507 107.200195312 517 c 0
 89.2001953125 519 69.533203125 519.833007812 48.2001953125 519.5 c 0
 26.8662109375 519.166992188 14.533203125 519.666992188 11.2001953125 521 c 0
 1.8662109375 524.333007812 -1.6337890625 530 0.7001953125 538 c 0
 3.033203125 546 7.8662109375 550.333007812 15.2001953125 551 c 256
 22.533203125 551.666992188 40.533203125 551.166992188 69.2001953125 549.5 c 0
 97.8662109375 547.833007812 129.533203125 544.666992188 164.200195312 540 c 0
 203.533203125 534 243.366210938 526 283.700195312 516 c 0
 324.033203125 506 361.866210938 494.333007812 397.200195312 481 c 0
 436.533203125 465.666992188 467.866210938 450.166992188 491.200195312 434.5 c 0
 514.533203125 418.833007812 535.866210938 398 555.200195312 372 c 0
 574.533203125 345.333007812 582.700195312 319.166992188 579.700195312 293.5 c 0
 576.700195312 267.833007812 565.533203125 248 546.200195312 234 c 0
 528.866210938 220.666992188 508.533203125 211.666992188 485.200195312 207 c 0
 461.866210938 202.333007812 439.533203125 200 418.200195312 200 c 0
 387.200195312 200 387.200195312 200 374.700195312 200 c 0
 366.366210938 200 351.533203125 202.666992188 330.200195312 208 c 1
EndSplineSet
EndChar

StartChar: yporroi
Encoding: 57379 57379 45
Width: 307
VWidth: 345
Flags: W
HStem: 417 30<260.301 306.669>
VStem: 1.25 305.5
AnchorPoint: "diesisSecondary" 513.25 887 basechar 0
AnchorPoint: "yfesisSecondary" -92.75 -223 basechar 0
AnchorPoint: "yfesis" 234.25 609 basechar 0
AnchorPoint: "barline" 212.25 590 basechar 0
AnchorPoint: "yfenAbove" 109.25 887 basechar 0
AnchorPoint: "yfenBelow" 167.25 -40 basechar 0
AnchorPoint: "koronis" 136.25 881 basechar 0
AnchorPoint: "endofonon" 118.25 -146 basechar 0
AnchorPoint: "heteronConnecting" -256.75 -19 basechar 0
AnchorPoint: "measureNumber" -1.75 483 basechar 0
AnchorPoint: "isonIndicator" 138.25 913 basechar 0
AnchorPoint: "heteron" 242.25 -86 basechar 0
AnchorPoint: "apli" 87.25 42 basechar 0
AnchorPoint: "antikenoma" 123.25 100 basechar 0
AnchorPoint: "noteTop" 82.25 675 basechar 0
AnchorPoint: "fthoraTop" 234.25 609 basechar 0
AnchorPoint: "fthoraBottom" 74.25 101 basechar 0
AnchorPoint: "diesis" 193.25 60 basechar 0
AnchorPoint: "gorgonTop" 326.25 527 basechar 0
LayerCount: 2
Fore
SplineSet
284.25 447 m 0
 299.583007812 447 307.083007812 442.333007812 306.75 433 c 0
 306.416992188 423.666992188 300.916992188 418.333007812 290.25 417 c 0
 272.25 413 260.25 405.333007812 254.25 394 c 0
 230.25 336.666992188 211.75 286.333007812 198.75 243 c 0
 185.75 199.666992188 169.25 174 149.25 166 c 1
 127.916992188 163.333007812 105.416992188 161.666992188 81.75 161 c 0
 58.0830078125 160.333007812 34.5830078125 162 11.25 166 c 1
 1.25 170 -2.0830078125 174.333007812 1.25 179 c 0
 4.5830078125 183.666992188 9.5830078125 187 16.25 189 c 0
 22.9169921875 190.333007812 29.9169921875 198.333007812 37.25 213 c 0
 60.5830078125 254.333007812 80.0830078125 301.166992188 95.75 353.5 c 0
 111.416992188 405.833007812 127.916992188 435 145.25 441 c 0
 167.916992188 447.666992188 190.916992188 450.333007812 214.25 449 c 0
 237.583007812 447.666992188 260.916992188 447 284.25 447 c 0
EndSplineSet
EndChar

StartChar: runningElafron
Encoding: 57381 57381 46
Width: 1491
VWidth: 345
Flags: W
HStem: 142 23<216.713 304.154 1251.05 1293.87> 453 23<486.369 532.115 970.346 1040.41> 466.5 38.5<261.382 490.335>
VStem: 1.25 148<230.031 374.932>
AnchorPoint: "stavros" 909.25 495 basechar 0
AnchorPoint: "diesisSecondary" 121.25 895 basechar 0
AnchorPoint: "barline" 905.25 598 basechar 0
AnchorPoint: "fthoraTopSecondary" 1212.25 673 basechar 0
AnchorPoint: "yfesisSecondary" 1310.25 578 basechar 0
AnchorPoint: "yfenAbove" 610.25 891 basechar 0
AnchorPoint: "yfenBelow" 561.25 -40 basechar 0
AnchorPoint: "koronis" 948.25 746 basechar 0
AnchorPoint: "endofonon" 1030.25 -37 basechar 0
AnchorPoint: "measureNumber" 90.25 653 basechar 0
AnchorPoint: "isonIndicator" 936.25 939 basechar 0
AnchorPoint: "heteronConnecting" -258.75 -19 basechar 0
AnchorPoint: "omalonConnecting" -80.75 89 basechar 0
AnchorPoint: "apli" 540.25 13 basechar 0
AnchorPoint: "antikenoma" 1109.25 101 basechar 0
AnchorPoint: "noteTop" 660.25 703 basechar 0
AnchorPoint: "fthoraTop" 506.25 660 basechar 0
AnchorPoint: "fthoraBottom" 547.25 70 basechar 0
AnchorPoint: "gorgonTop" 555.25 580 basechar 0
AnchorPoint: "diesis" 345.25 20 basechar 0
AnchorPoint: "yfesis" 898.25 536 basechar 0
AnchorPoint: "klasmaTop" 468.25 620 basechar 0
LayerCount: 2
Fore
SplineSet
1252.25 146 m 1xd0
 1244.91699219 151.333007812 1244.41699219 156.5 1250.75 161.5 c 0
 1257.08300781 166.5 1265.25 169 1275.25 169 c 0
 1285.91699219 169 1300.41699219 178.5 1318.75 197.5 c 0
 1337.08300781 216.5 1349.25 239.666992188 1355.25 267 c 0
 1364.58300781 313 1340.25 351 1282.25 381 c 0
 1260.25 391.666992188 1232.91699219 401.166992188 1200.25 409.5 c 0
 1167.58300781 417.833007812 1135.58300781 424.833007812 1104.25 430.5 c 0
 1072.91699219 436.166992188 1045.41699219 441 1021.75 445 c 0
 998.083007812 449 984.25 451.666992188 980.25 453 c 0
 971.583007812 456.333007812 968.25 461 970.25 467 c 0
 972.25 473 976.916992188 476 984.25 476 c 256
 991.583007812 476 1033.08300781 470.5 1108.75 459.5 c 0
 1184.41699219 448.5 1253.58300781 431 1316.25 407 c 0
 1353.58300781 392.333007812 1383.41699219 377.666992188 1405.75 363 c 0
 1428.08300781 348.333007812 1448.58300781 328.666992188 1467.25 304 c 256
 1485.91699219 279.333007812 1493.75 254.5 1490.75 229.5 c 0
 1487.75 204.5 1476.91699219 185 1458.25 171 c 0
 1440.91699219 158.333007812 1421.25 149.833007812 1399.25 145.5 c 0
 1377.25 141.166992188 1356.25 139 1336.25 139 c 256
 1306.25 139 1306.25 139 1294.25 139 c 0
 1286.25 139 1272.25 141.333007812 1252.25 146 c 1xd0
295.25 140 m 1
 269.916992188 130.666992188 227.25 131.333007812 167.25 142 c 1
 131.916992188 150.666992188 100.75 162.333007812 73.75 177 c 0
 46.75 191.666992188 25.9169921875 217.333007812 11.25 254 c 1
 1.25 289.333007812 -2.0830078125 317.5 1.25 338.5 c 0
 4.5830078125 359.5 16.25 384 36.25 412 c 1
 55.5830078125 435.333007812 78.0830078125 453 103.75 465 c 0
 129.416992188 477 160.916992188 486.666992188 198.25 494 c 0
 235.583007812 501.333007812 265.916992188 505 289.25 505 c 0xb0
 312.583007812 505 337.916992188 504.333007812 365.25 503 c 0
 391.916992188 501.666992188 416.583007812 499.5 439.25 496.5 c 0
 461.916992188 493.5 489.583007812 487 522.25 477 c 0
 576.25 462.333007812 629.583007812 442 682.25 416 c 0
 711.583007812 401.333007812 742.916992188 385.5 776.25 368.5 c 0
 809.583007812 351.5 846.583007812 331.333007812 887.25 308 c 0
 905.916992188 296.666992188 926.25 284.666992188 948.25 272 c 0
 970.25 259.333007812 994.25 246.333007812 1020.25 233 c 1
 1039.58300781 221 1058.58300781 208.833007812 1077.25 196.5 c 0
 1095.91699219 184.166992188 1103.75 171.833007812 1100.75 159.5 c 0
 1097.75 147.166992188 1090.58300781 141.333007812 1079.25 142 c 0
 1067.91699219 142.666992188 1032.25 142.333007812 972.25 141 c 0
 912.25 139.666992188 859.916992188 139.333007812 815.25 140 c 1
 797.25 153.333007812 797.416992188 163 815.75 169 c 0
 834.083007812 175 847.583007812 182.333007812 856.25 191 c 0
 872.916992188 208.333007812 880.416992188 222 878.75 232 c 0
 877.083007812 242 874.416992188 249.833007812 870.75 255.5 c 0
 867.083007812 261.166992188 861.583007812 267.166992188 854.25 273.5 c 0
 846.916992188 279.833007812 828.75 293 799.75 313 c 0
 770.75 333 734.916992188 354 692.25 376 c 1
 653.583007812 392.666992188 623.25 406.333007812 601.25 417 c 0
 579.25 427.666992188 543.25 439.666992188 493.25 453 c 1xd0
 456.583007812 460.333007812 419.416992188 464.833007812 381.75 466.5 c 0xb0
 344.083007812 468.166992188 305.583007812 462.666992188 266.25 450 c 1
 238.916992188 438 219.583007812 427.833007812 208.25 419.5 c 0
 196.916992188 411.166992188 184.583007812 396.333007812 171.25 375 c 0
 159.25 355 152.25 338 150.25 324 c 0
 148.25 310 147.916992188 294 149.25 276 c 0
 149.916992188 257.333007812 152.083007812 243.833007812 155.75 235.5 c 0
 159.416992188 227.166992188 164.25 218.833007812 170.25 210.5 c 0
 176.25 202.166992188 183.75 194.5 192.75 187.5 c 0
 201.75 180.5 215.583007812 175.5 234.25 172.5 c 0
 252.916992188 169.5 271.25 167 289.25 165 c 0
 297.25 163.666992188 302.25 160.333007812 304.25 155 c 0
 306.25 149.666992188 303.25 144.666992188 295.25 140 c 1
EndSplineSet
EndChar

StartChar: elafron
Encoding: 57380 57380 47
Width: 1102
VWidth: 345
Flags: W
HStem: 140 25<214.245 304.639> 466.5 38.5<261.382 490.811>
VStem: 1.25 149<230.031 375.995>
AnchorPoint: "yfenAbove" 514.25 901 basechar 0
AnchorPoint: "yfenBelow" 505.25 -40 basechar 0
AnchorPoint: "koronis" 481.25 746 basechar 0
AnchorPoint: "endofonon" 553.25 -37 basechar 0
AnchorPoint: "measureNumber" 93.25 613 basechar 0
AnchorPoint: "isonIndicator" 449.25 939 basechar 0
AnchorPoint: "gorgonBottom" 408.25 -18 basechar 0
AnchorPoint: "heteronConnecting" -255.75 -19 basechar 0
AnchorPoint: "omalonConnecting" -76.75 89 basechar 0
AnchorPoint: "apli" 509.25 -1 basechar 0
AnchorPoint: "antikenoma" 487.25 70 basechar 0
AnchorPoint: "noteTop" 163.25 703 basechar 0
AnchorPoint: "fthoraTop" 439.25 660 basechar 0
AnchorPoint: "fthoraBottom" 530.25 70 basechar 0
AnchorPoint: "gorgonTop" 548.25 580 basechar 0
AnchorPoint: "diesis" 348.25 20 basechar 0
AnchorPoint: "yfesis" 901.25 536 basechar 0
AnchorPoint: "klasmaTop" 481.25 620 basechar 0
LayerCount: 2
Fore
SplineSet
296.25 140 m 1
 270.916992188 130.666992188 227.916992188 131.333007812 167.25 142 c 1
 131.916992188 150.666992188 100.75 162.333007812 73.75 177 c 0
 46.75 191.666992188 25.9169921875 217.333007812 11.25 254 c 1
 1.25 289.333007812 -2.0830078125 317.5 1.25 338.5 c 0
 4.5830078125 359.5 16.25 384 36.25 412 c 1
 55.5830078125 435.333007812 78.0830078125 453 103.75 465 c 0
 129.416992188 477 160.916992188 486.666992188 198.25 494 c 0
 235.583007812 501.333007812 265.916992188 505 289.25 505 c 0
 312.583007812 505 337.916992188 504.333007812 365.25 503 c 0
 391.916992188 501.666992188 416.75 499.5 439.75 496.5 c 0
 462.75 493.5 490.583007812 487 523.25 477 c 0
 577.25 462.333007812 630.583007812 442 683.25 416 c 0
 712.583007812 401.333007812 743.75 385.5 776.75 368.5 c 0
 809.75 351.5 846.583007812 331.333007812 887.25 308 c 0
 905.916992188 296.666992188 926.416992188 284.666992188 948.75 272 c 0
 971.083007812 259.333007812 994.916992188 246.333007812 1020.25 233 c 1
 1039.58300781 221 1058.75 208.833007812 1077.75 196.5 c 0
 1096.75 184.166992188 1104.75 171.833007812 1101.75 159.5 c 0
 1098.75 147.166992188 1091.58300781 141.333007812 1080.25 142 c 0
 1068.91699219 142.666992188 1033.08300781 142.333007812 972.75 141 c 0
 912.416992188 139.666992188 859.916992188 139.333007812 815.25 140 c 1
 797.25 153.333007812 797.416992188 163 815.75 169 c 0
 834.083007812 175 847.916992188 182.333007812 857.25 191 c 0
 873.916992188 208.333007812 881.25 222 879.25 232 c 0
 877.25 242 874.416992188 249.833007812 870.75 255.5 c 0
 867.083007812 261.166992188 861.583007812 267.166992188 854.25 273.5 c 0
 846.916992188 279.833007812 828.75 293 799.75 313 c 0
 770.75 333 734.916992188 354 692.25 376 c 1
 653.583007812 392.666992188 623.25 406.333007812 601.25 417 c 0
 579.25 427.666992188 543.583007812 439.666992188 494.25 453 c 1
 457.583007812 460.333007812 420.25 464.833007812 382.25 466.5 c 0
 344.25 468.166992188 305.583007812 462.666992188 266.25 450 c 1
 238.916992188 438 219.75 427.833007812 208.75 419.5 c 0
 197.75 411.166992188 185.25 396.333007812 171.25 375 c 0
 159.25 355 152.416992188 338 150.75 324 c 0
 149.083007812 310 148.916992188 294 150.25 276 c 0
 150.916992188 257.333007812 153.083007812 243.833007812 156.75 235.5 c 0
 160.416992188 227.166992188 165.083007812 218.833007812 170.75 210.5 c 0
 176.416992188 202.166992188 183.75 194.5 192.75 187.5 c 0
 201.75 180.5 215.583007812 175.5 234.25 172.5 c 0
 252.916992188 169.5 271.25 167 289.25 165 c 0
 297.25 163.666992188 302.416992188 160.333007812 304.75 155 c 0
 307.083007812 149.666992188 304.25 144.666992188 296.25 140 c 1
EndSplineSet
EndChar

StartChar: elafronApostrofos
Encoding: 57382 57382 48
Width: 1102
VWidth: 345
Flags: W
HStem: 35 22<501.017 546.983> 140 25<214.245 304.639> 329 21<220.345 284.011> 466.5 38.5<261.382 490.811>
VStem: 1.25 149<230.031 375.995>
AnchorPoint: "gorgonBottom" 408.25 -93 basechar 0
AnchorPoint: "yfenAbove" 534.25 891 basechar 0
AnchorPoint: "yfenBelow" 505.25 -210 basechar 0
AnchorPoint: "koronis" 481.25 746 basechar 0
AnchorPoint: "endofonon" 553.25 -37 basechar 0
AnchorPoint: "measureNumber" 93.25 643 basechar 0
AnchorPoint: "isonIndicator" 449.25 939 basechar 0
AnchorPoint: "heteronConnecting" -255.75 -19 basechar 0
AnchorPoint: "omalonConnecting" -76.75 89 basechar 0
AnchorPoint: "apli" 521.25 -93 basechar 0
AnchorPoint: "antikenoma" 502.25 -29 basechar 0
AnchorPoint: "noteTop" 153.25 703 basechar 0
AnchorPoint: "fthoraTop" 439.25 660 basechar 0
AnchorPoint: "fthoraBottom" 530.25 -30 basechar 0
AnchorPoint: "gorgonTop" 548.25 580 basechar 0
AnchorPoint: "diesis" 348.25 20 basechar 0
AnchorPoint: "yfesis" 901.25 536 basechar 0
AnchorPoint: "klasmaTop" 481.25 620 basechar 0
LayerCount: 2
Fore
SplineSet
296.25 140 m 1
 270.916992188 130.666992188 227.916992188 131.333007812 167.25 142 c 1
 131.916992188 150.666992188 100.75 162.333007812 73.75 177 c 0
 46.75 191.666992188 25.9169921875 217.333007812 11.25 254 c 1
 1.25 289.333007812 -2.0830078125 317.5 1.25 338.5 c 0
 4.5830078125 359.5 16.25 384 36.25 412 c 1
 55.5830078125 435.333007812 78.0830078125 453 103.75 465 c 0
 129.416992188 477 160.916992188 486.666992188 198.25 494 c 0
 235.583007812 501.333007812 265.916992188 505 289.25 505 c 0
 312.583007812 505 337.916992188 504.333007812 365.25 503 c 0
 391.916992188 501.666992188 416.75 499.5 439.75 496.5 c 0
 462.75 493.5 490.583007812 487 523.25 477 c 0
 577.25 462.333007812 630.583007812 442 683.25 416 c 0
 712.583007812 401.333007812 743.75 385.5 776.75 368.5 c 0
 809.75 351.5 846.583007812 331.333007812 887.25 308 c 0
 905.916992188 296.666992188 926.416992188 284.666992188 948.75 272 c 0
 971.083007812 259.333007812 994.916992188 246.333007812 1020.25 233 c 1
 1039.58300781 221 1058.75 208.833007812 1077.75 196.5 c 0
 1096.75 184.166992188 1104.75 171.833007812 1101.75 159.5 c 0
 1098.75 147.166992188 1091.58300781 141.333007812 1080.25 142 c 0
 1068.91699219 142.666992188 1033.08300781 142.333007812 972.75 141 c 0
 912.416992188 139.666992188 859.916992188 139.333007812 815.25 140 c 1
 797.25 153.333007812 797.416992188 163 815.75 169 c 0
 834.083007812 175 847.916992188 182.333007812 857.25 191 c 0
 873.916992188 208.333007812 881.25 222 879.25 232 c 0
 877.25 242 874.416992188 249.833007812 870.75 255.5 c 0
 867.083007812 261.166992188 861.583007812 267.166992188 854.25 273.5 c 0
 846.916992188 279.833007812 828.75 293 799.75 313 c 0
 770.75 333 734.916992188 354 692.25 376 c 1
 653.583007812 392.666992188 623.25 406.333007812 601.25 417 c 0
 579.25 427.666992188 543.583007812 439.666992188 494.25 453 c 1
 457.583007812 460.333007812 420.25 464.833007812 382.25 466.5 c 0
 344.25 468.166992188 305.583007812 462.666992188 266.25 450 c 1
 238.916992188 438 219.75 427.833007812 208.75 419.5 c 0
 197.75 411.166992188 185.25 396.333007812 171.25 375 c 0
 159.25 355 152.416992188 338 150.75 324 c 0
 149.083007812 310 148.916992188 294 150.25 276 c 0
 150.916992188 257.333007812 153.083007812 243.833007812 156.75 235.5 c 0
 160.416992188 227.166992188 165.083007812 218.833007812 170.75 210.5 c 0
 176.416992188 202.166992188 183.75 194.5 192.75 187.5 c 0
 201.75 180.5 215.583007812 175.5 234.25 172.5 c 0
 252.916992188 169.5 271.25 167 289.25 165 c 0
 297.25 163.666992188 302.416992188 160.333007812 304.75 155 c 0
 307.083007812 149.666992188 304.25 144.666992188 296.25 140 c 1
502.25 35 m 1
 495.583007812 40.3330078125 495.083007812 45.3330078125 500.75 50 c 0
 506.416992188 54.6669921875 513.916992188 57 523.25 57 c 0
 533.25 57 546.916992188 65.8330078125 564.25 83.5 c 0
 581.583007812 101.166992188 593.25 123 599.25 149 c 0
 608.583007812 193 585.583007812 229.333007812 530.25 258 c 0
 508.916992188 268 482.25 277 450.25 285 c 0
 418.25 293 386.583007812 300 355.25 306 c 0
 323.916992188 312 296.25 316.833007812 272.25 320.5 c 0
 248.25 324.166992188 234.25 327 230.25 329 c 0
 221.583007812 332.333007812 218.25 336.666992188 220.25 342 c 0
 222.25 347.333007812 226.583007812 350 233.25 350 c 0
 236.583007812 350 250.083007812 348.666992188 273.75 346 c 0
 297.416992188 343.333007812 325.75 339.166992188 358.75 333.5 c 0
 391.75 327.833007812 426.416992188 320.833007812 462.75 312.5 c 0
 499.083007812 304.833007812 532.25 295 562.25 283 c 0
 597.583007812 269 625.916992188 255 647.25 241 c 0
 668.583007812 227 687.916992188 208 705.25 184 c 0
 722.583007812 160 729.916992188 136.333007812 727.25 113 c 0
 724.583007812 89.6669921875 714.583007812 71.3330078125 697.25 58 c 0
 681.25 46 662.583007812 38 641.25 34 c 0
 619.916992188 30 599.916992188 28 581.25 28 c 256
 562.583007812 28 549.416992188 28.1669921875 541.75 28.5 c 0
 534.083007812 28.8330078125 520.916992188 31 502.25 35 c 1
EndSplineSet
EndChar

StartChar: chamiliApostrofos
Encoding: 57384 57384 49
Width: 987
VWidth: 345
Flags: W
HStem: -93 29<521.137 568.499> 207 21<240.361 304.072> 290 30<523.218 716.266 833.266 972.422>
AnchorPoint: "yfenAbove" 411.266 921 basechar 0
AnchorPoint: "yfenBelow" 382.266 -300 basechar 0
AnchorPoint: "koronis" 648.266 910 basechar 0
AnchorPoint: "endofonon" 560.266 -257 basechar 0
AnchorPoint: "measureNumber" 100.266 943 basechar 0
AnchorPoint: "isonIndicator" 456.266 1039 basechar 0
AnchorPoint: "heteronConnecting" -242.734 -180 basechar 0
AnchorPoint: "omalonConnecting" -65.7344 -40 basechar 0
AnchorPoint: "apli" 504.266 -211 basechar 0
AnchorPoint: "antikenoma" 507.266 -129 basechar 0
AnchorPoint: "noteTop" 170.266 933 basechar 0
AnchorPoint: "fthoraTop" 701.266 765 basechar 0
AnchorPoint: "fthoraBottom" 537.266 -130 basechar 0
AnchorPoint: "gorgonTop" 747.266 680 basechar 0
AnchorPoint: "diesis" 256.266 16 basechar 0
AnchorPoint: "yfesis" 881.266 747 basechar 0
AnchorPoint: "klasmaTop" 675.266 513 basechar 0
LayerCount: 2
Fore
SplineSet
833.265625 290 m 1
 842.265625 252 l 2
 842.932617188 249.333007812 846.598632812 242.833007812 853.265625 232.5 c 0
 859.932617188 222.166992188 863.265625 215.666992188 863.265625 213 c 256
 863.265625 210.333007812 857.765625 208 846.765625 206 c 0
 835.765625 204 828.265625 203 824.265625 203 c 2
 763.265625 203 l 2
 755.265625 203 747.765625 208.666992188 740.765625 220 c 0
 733.765625 231.333007812 729.265625 242 727.265625 252 c 2
 719.265625 290 l 1
 641.265625 290 569.765625 293.166992188 504.765625 299.5 c 0
 440.432617188 305.833007812 394.265625 311.333007812 366.265625 316 c 0
 263.598632812 332 199.598632812 368.666992188 174.265625 426 c 0
 168.265625 438.666992188 158.265625 464 144.265625 502 c 0
 130.265625 540 115.432617188 579.333007812 99.765625 620 c 0
 84.0986328125 660.666992188 69.265625 697.5 55.265625 730.5 c 0
 41.265625 763.5 31.5986328125 781.333007812 26.265625 784 c 0
 -1.0673828125 793.333007812 -7.0673828125 803.666992188 8.265625 815 c 1
 42.265625 817.666992188 74.4326171875 819.333007812 104.765625 820 c 0
 135.098632812 820.666992188 166.598632812 819.666992188 199.265625 817 c 0
 215.265625 816.333007812 228.765625 804.666992188 239.765625 782 c 0
 250.765625 759.333007812 260.432617188 732 268.765625 700 c 0
 277.098632812 668 284.598632812 634 291.265625 598 c 0
 297.932617188 562 304.598632812 530 311.265625 502 c 0
 325.265625 446 342.598632812 407.833007812 363.265625 387.5 c 0
 383.932617188 367.166992188 419.265625 350.333007812 469.265625 337 c 0
 519.932617188 323.666992188 602.265625 318 716.265625 320 c 1
 703.265625 389 l 2
 702.598632812 392.333007812 699.265625 396.666992188 693.265625 402 c 0
 687.265625 407.333007812 684.265625 411.666992188 684.265625 415 c 0
 684.265625 419 689.765625 421.666992188 700.765625 423 c 0
 711.765625 424.333007812 719.265625 425 723.265625 425 c 2
 784.265625 425 l 2
 791.598632812 425 798.765625 419.833007812 805.765625 409.5 c 0
 812.765625 399.166992188 817.598632812 388 820.265625 376 c 2
 830.265625 321 l 1
 874.932617188 321.666992188 905.432617188 323.166992188 921.765625 325.5 c 0
 938.098632812 327.833007812 955.265625 330.333007812 973.265625 333 c 1
 980.598632812 332.333007812 985.098632812 329 986.765625 323 c 0
 988.432617188 317 986.932617188 311.333007812 982.265625 306 c 0
 975.598632812 300.666992188 961.932617188 296.666992188 941.265625 294 c 0
 920.598632812 291.333007812 884.598632812 290 833.265625 290 c 1
520.265625 -85 m 1
 513.598632812 -80.3330078125 513.098632812 -75.6669921875 518.765625 -71 c 0
 524.432617188 -66.3330078125 531.598632812 -64 540.265625 -64 c 0
 550.265625 -64 564.098632812 -55.1669921875 581.765625 -37.5 c 0
 599.432617188 -19.8330078125 610.932617188 2 616.265625 28 c 0
 625.598632812 72 602.932617188 108 548.265625 136 c 0
 527.598632812 146 501.098632812 155 468.765625 163 c 0
 436.432617188 171 404.765625 178 373.765625 184 c 0
 342.765625 190 315.432617188 194.833007812 291.765625 198.5 c 0
 268.098632812 202.166992188 254.265625 205 250.265625 207 c 0
 241.598632812 209.666992188 238.265625 213.833007812 240.265625 219.5 c 0
 242.265625 225.166992188 246.598632812 228 253.265625 228 c 0
 259.932617188 228 301.265625 222.5 377.265625 211.5 c 0
 453.265625 200.5 520.598632812 183.333007812 579.265625 160 c 0
 614.598632812 146 642.932617188 132.166992188 664.265625 118.5 c 0
 685.598632812 104.833007812 704.932617188 86.3330078125 722.265625 63 c 0
 739.598632812 39.6669921875 746.932617188 16.1669921875 744.265625 -7.5 c 0
 741.598632812 -31.1669921875 731.598632812 -49.3330078125 714.265625 -62 c 0
 698.265625 -74 679.765625 -82.1669921875 658.765625 -86.5 c 0
 637.765625 -90.8330078125 617.932617188 -93 599.265625 -93 c 256
 580.598632812 -93 567.432617188 -92.8330078125 559.765625 -92.5 c 0
 552.098632812 -92.1669921875 538.932617188 -89.6669921875 520.265625 -85 c 1
EndSplineSet
EndChar

StartChar: chamili
Encoding: 57383 57383 50
Width: 987
VWidth: 345
Flags: W
HStem: 290 30<523.218 716.266 833.266 972.422>
AnchorPoint: "yfenAbove" 411.266 921 basechar 0
AnchorPoint: "yfenBelow" 382.266 -40 basechar 0
AnchorPoint: "koronis" 698.266 916 basechar 0
AnchorPoint: "endofonon" 560.266 -37 basechar 0
AnchorPoint: "measureNumber" 100.266 943 basechar 0
AnchorPoint: "isonIndicator" 456.266 1039 basechar 0
AnchorPoint: "gorgonBottom" 321.266 125 basechar 0
AnchorPoint: "heteronConnecting" -242.734 -19 basechar 0
AnchorPoint: "omalonConnecting" -69.7344 89 basechar 0
AnchorPoint: "apli" 568.266 76 basechar 0
AnchorPoint: "antikenoma" 570.266 169 basechar 0
AnchorPoint: "noteTop" 170.266 923 basechar 0
AnchorPoint: "fthoraTop" 701.266 765 basechar 0
AnchorPoint: "fthoraBottom" 537.266 240 basechar 0
AnchorPoint: "gorgonTop" 747.266 680 basechar 0
AnchorPoint: "diesis" 321.266 201 basechar 0
AnchorPoint: "yfesis" 881.266 747 basechar 0
AnchorPoint: "klasmaTop" 675.266 513 basechar 0
LayerCount: 2
Fore
SplineSet
833.265625 290 m 1
 842.265625 252 l 2
 842.932617188 249.333007812 846.598632812 242.833007812 853.265625 232.5 c 0
 859.932617188 222.166992188 863.265625 215.666992188 863.265625 213 c 256
 863.265625 210.333007812 857.765625 208 846.765625 206 c 0
 835.765625 204 828.265625 203 824.265625 203 c 2
 763.265625 203 l 2
 755.265625 203 747.765625 208.666992188 740.765625 220 c 0
 733.765625 231.333007812 729.265625 242 727.265625 252 c 2
 719.265625 290 l 1
 641.265625 290 569.765625 293.166992188 504.765625 299.5 c 0
 440.432617188 305.833007812 394.265625 311.333007812 366.265625 316 c 0
 263.598632812 332 199.598632812 368.666992188 174.265625 426 c 0
 168.265625 438.666992188 158.265625 464 144.265625 502 c 0
 130.265625 540 115.432617188 579.333007812 99.765625 620 c 0
 84.0986328125 660.666992188 69.265625 697.5 55.265625 730.5 c 0
 41.265625 763.5 31.5986328125 781.333007812 26.265625 784 c 0
 -1.0673828125 793.333007812 -7.0673828125 803.666992188 8.265625 815 c 1
 42.265625 817.666992188 74.4326171875 819.333007812 104.765625 820 c 0
 135.098632812 820.666992188 166.598632812 819.666992188 199.265625 817 c 0
 215.265625 816.333007812 228.765625 804.666992188 239.765625 782 c 0
 250.765625 759.333007812 260.432617188 732 268.765625 700 c 0
 277.098632812 668 284.598632812 634 291.265625 598 c 0
 297.932617188 562 304.598632812 530 311.265625 502 c 0
 325.265625 446 342.598632812 407.833007812 363.265625 387.5 c 0
 383.932617188 367.166992188 419.265625 350.333007812 469.265625 337 c 0
 519.932617188 323.666992188 602.265625 318 716.265625 320 c 1
 703.265625 389 l 2
 702.598632812 392.333007812 699.265625 396.666992188 693.265625 402 c 0
 687.265625 407.333007812 684.265625 411.666992188 684.265625 415 c 0
 684.265625 419 689.765625 421.666992188 700.765625 423 c 0
 711.765625 424.333007812 719.265625 425 723.265625 425 c 2
 784.265625 425 l 2
 791.598632812 425 798.765625 419.833007812 805.765625 409.5 c 0
 812.765625 399.166992188 817.598632812 388 820.265625 376 c 2
 830.265625 321 l 1
 874.932617188 321.666992188 905.432617188 323.166992188 921.765625 325.5 c 0
 938.098632812 327.833007812 955.265625 330.333007812 973.265625 333 c 1
 980.598632812 332.333007812 985.098632812 329 986.765625 323 c 0
 988.432617188 317 986.932617188 311.333007812 982.265625 306 c 0
 975.598632812 300.666992188 961.932617188 296.666992188 941.265625 294 c 0
 920.598632812 291.333007812 884.598632812 290 833.265625 290 c 1
EndSplineSet
EndChar

StartChar: chamiliElafron
Encoding: 57385 57385 51
Width: 1102
VWidth: 345
Flags: W
HStem: 140 25<214.245 304.639> 466.5 38.5<261.382 490.811> 591 30<545.203 738.25 857.25 996.345>
VStem: 1.25 149<230.031 375.995>
AnchorPoint: "yfenAbove" 531.25 1301 basechar 0
AnchorPoint: "yfenBelow" 502.25 -40 basechar 0
AnchorPoint: "koronis" 691.25 1226 basechar 0
AnchorPoint: "endofonon" 553.25 -37 basechar 0
AnchorPoint: "measureNumber" 93.25 1233 basechar 0
AnchorPoint: "isonIndicator" 449.25 1369 basechar 0
AnchorPoint: "heteronConnecting" -258.75 -19 basechar 0
AnchorPoint: "omalonConnecting" -78.75 89 basechar 0
AnchorPoint: "apli" 496.25 -10 basechar 0
AnchorPoint: "antikenoma" 490.25 91 basechar 0
AnchorPoint: "noteTop" 163.25 1223 basechar 0
AnchorPoint: "fthoraTop" 694.25 1065 basechar 0
AnchorPoint: "fthoraBottom" 530.25 90 basechar 0
AnchorPoint: "gorgonTop" 740.25 1010 basechar 0
AnchorPoint: "diesis" 379.25 16 basechar 0
AnchorPoint: "yfesis" 926.25 1051 basechar 0
AnchorPoint: "klasmaTop" 728.25 820 basechar 0
LayerCount: 2
Fore
SplineSet
857.25 591 m 1
 865.25 553 l 2
 865.25 550.333007812 868.75 543.833007812 875.75 533.5 c 0
 882.75 523.166992188 886.25 516.666992188 886.25 514 c 256
 886.25 511.333007812 880.75 509 869.75 507 c 0
 858.75 505 851.25 504 847.25 504 c 2
 786.25 504 l 2
 778.25 504 770.75 509.5 763.75 520.5 c 0
 756.75 531.5 752.25 542.333007812 750.25 553 c 2
 741.25 591 l 1
 663.25 591 591.75 594.166992188 526.75 600.5 c 0
 461.75 606.833007812 415.583007812 612 388.25 616 c 0
 337.583007812 624 295.75 638 262.75 658 c 0
 229.75 678 207.916992188 700.666992188 197.25 726 c 0
 191.25 738.666992188 181.25 764 167.25 802 c 0
 153.25 840 138.416992188 879.5 122.75 920.5 c 0
 107.083007812 961.5 92.25 998.5 78.25 1031.5 c 0
 64.25 1064.5 54.5830078125 1082.33300781 49.25 1085 c 0
 21.9169921875 1094.33300781 15.9169921875 1104.33300781 31.25 1115 c 1
 99.9169921875 1121 163.25 1122 221.25 1118 c 0
 237.25 1117.33300781 250.75 1105.66699219 261.75 1083 c 0
 272.75 1060.33300781 282.583007812 1033 291.25 1001 c 0
 299.916992188 969 307.583007812 935 314.25 899 c 0
 320.916992188 863 327.916992188 831 335.25 803 c 0
 349.25 746.333007812 366.416992188 707.833007812 386.75 687.5 c 0
 407.083007812 667.166992188 441.916992188 650.333007812 491.25 637 c 0
 540.583007812 623.666992188 622.916992188 618.333007812 738.25 621 c 1
 726.25 689 l 2
 725.583007812 692.333007812 722.25 696.833007812 716.25 702.5 c 0
 710.25 708.166992188 707.25 712.666992188 707.25 716 c 0
 707.25 720 712.583007812 722.666992188 723.25 724 c 0
 733.916992188 725.333007812 741.583007812 726 746.25 726 c 2
 807.25 726 l 2
 814.583007812 726 821.75 720.833007812 828.75 710.5 c 0
 835.75 700.166992188 840.583007812 689 843.25 677 c 2
 853.25 621 l 1
 897.916992188 621.666992188 928.25 623.333007812 944.25 626 c 0
 960.25 628.666992188 977.916992188 631 997.25 633 c 1
 1004.58300781 632.333007812 1008.91699219 629.166992188 1010.25 623.5 c 0
 1011.58300781 617.833007812 1009.91699219 612.333007812 1005.25 607 c 0
 998.583007812 601 985.083007812 596.833007812 964.75 594.5 c 0
 944.416992188 592.166992188 908.583007812 591 857.25 591 c 1
296.25 140 m 1
 270.916992188 130.666992188 227.916992188 131.333007812 167.25 142 c 1
 131.916992188 150.666992188 100.75 162.333007812 73.75 177 c 0
 46.75 191.666992188 25.9169921875 217.333007812 11.25 254 c 1
 1.25 289.333007812 -2.0830078125 317.5 1.25 338.5 c 0
 4.5830078125 359.5 16.25 384 36.25 412 c 1
 55.5830078125 435.333007812 78.0830078125 453 103.75 465 c 0
 129.416992188 477 160.916992188 486.666992188 198.25 494 c 0
 235.583007812 501.333007812 265.916992188 505 289.25 505 c 0
 312.583007812 505 337.916992188 504.333007812 365.25 503 c 0
 391.916992188 501.666992188 416.75 499.5 439.75 496.5 c 0
 462.75 493.5 490.583007812 487 523.25 477 c 0
 577.25 462.333007812 630.583007812 442 683.25 416 c 0
 712.583007812 401.333007812 743.75 385.5 776.75 368.5 c 0
 809.75 351.5 846.583007812 331.333007812 887.25 308 c 0
 905.916992188 296.666992188 926.416992188 284.666992188 948.75 272 c 0
 971.083007812 259.333007812 994.916992188 246.333007812 1020.25 233 c 1
 1039.58300781 221 1058.75 208.833007812 1077.75 196.5 c 0
 1096.75 184.166992188 1104.75 171.833007812 1101.75 159.5 c 0
 1098.75 147.166992188 1091.58300781 141.333007812 1080.25 142 c 0
 1068.91699219 142.666992188 1033.08300781 142.333007812 972.75 141 c 0
 912.416992188 139.666992188 859.916992188 139.333007812 815.25 140 c 1
 797.25 153.333007812 797.416992188 163 815.75 169 c 0
 834.083007812 175 847.916992188 182.333007812 857.25 191 c 0
 873.916992188 208.333007812 881.25 222 879.25 232 c 0
 877.25 242 874.416992188 249.833007812 870.75 255.5 c 0
 867.083007812 261.166992188 861.583007812 267.166992188 854.25 273.5 c 0
 846.916992188 279.833007812 828.75 293 799.75 313 c 0
 770.75 333 734.916992188 354 692.25 376 c 1
 653.583007812 392.666992188 623.25 406.333007812 601.25 417 c 0
 579.25 427.666992188 543.583007812 439.666992188 494.25 453 c 1
 457.583007812 460.333007812 420.25 464.833007812 382.25 466.5 c 0
 344.25 468.166992188 305.583007812 462.666992188 266.25 450 c 1
 238.916992188 438 219.75 427.833007812 208.75 419.5 c 0
 197.75 411.166992188 185.25 396.333007812 171.25 375 c 0
 159.25 355 152.416992188 338 150.75 324 c 0
 149.083007812 310 148.916992188 294 150.25 276 c 0
 150.916992188 257.333007812 153.083007812 243.833007812 156.75 235.5 c 0
 160.416992188 227.166992188 165.083007812 218.833007812 170.75 210.5 c 0
 176.416992188 202.166992188 183.75 194.5 192.75 187.5 c 0
 201.75 180.5 215.583007812 175.5 234.25 172.5 c 0
 252.916992188 169.5 271.25 167 289.25 165 c 0
 297.25 163.666992188 302.416992188 160.333007812 304.75 155 c 0
 307.083007812 149.666992188 304.25 144.666992188 296.25 140 c 1
EndSplineSet
EndChar

StartChar: chamiliElafronApostrofos
Encoding: 57386 57386 52
Width: 1102
VWidth: 345
Flags: W
HStem: 35 22<501.017 546.983> 140 25<214.245 304.639> 329 21<220.345 284.011> 466.5 38.5<261.382 490.811> 591 30<545.203 738.25 857.25 996.345>
VStem: 1.25 149<230.031 375.995>
AnchorPoint: "yfenAbove" 534.25 1251 basechar 0
AnchorPoint: "yfenBelow" 505.25 -230 basechar 0
AnchorPoint: "koronis" 691.25 1216 basechar 0
AnchorPoint: "endofonon" 553.25 -107 basechar 0
AnchorPoint: "measureNumber" 93.25 1233 basechar 0
AnchorPoint: "isonIndicator" 449.25 1369 basechar 0
AnchorPoint: "heteronConnecting" -255.75 -19 basechar 0
AnchorPoint: "omalonConnecting" -75.75 89 basechar 0
AnchorPoint: "apli" 496.25 -110 basechar 0
AnchorPoint: "antikenoma" 498.25 -18 basechar 0
AnchorPoint: "noteTop" 163.25 1223 basechar 0
AnchorPoint: "fthoraTop" 694.25 1085 basechar 0
AnchorPoint: "fthoraBottom" 530.25 -20 basechar 0
AnchorPoint: "gorgonTop" 740.25 1010 basechar 0
AnchorPoint: "diesis" 379.25 16 basechar 0
AnchorPoint: "yfesis" 926.25 1051 basechar 0
AnchorPoint: "klasmaTop" 728.25 820 basechar 0
LayerCount: 2
Fore
SplineSet
857.25 591 m 1
 865.25 553 l 2
 865.25 550.333007812 868.75 543.833007812 875.75 533.5 c 0
 882.75 523.166992188 886.25 516.666992188 886.25 514 c 256
 886.25 511.333007812 880.75 509 869.75 507 c 0
 858.75 505 851.25 504 847.25 504 c 2
 786.25 504 l 2
 778.25 504 770.75 509.5 763.75 520.5 c 0
 756.75 531.5 752.25 542.333007812 750.25 553 c 2
 741.25 591 l 1
 663.25 591 591.75 594.166992188 526.75 600.5 c 0
 461.75 606.833007812 415.583007812 612 388.25 616 c 0
 337.583007812 624 295.75 638 262.75 658 c 0
 229.75 678 207.916992188 700.666992188 197.25 726 c 0
 191.25 738.666992188 181.25 764 167.25 802 c 0
 153.25 840 138.416992188 879.5 122.75 920.5 c 0
 107.083007812 961.5 92.25 998.5 78.25 1031.5 c 0
 64.25 1064.5 54.5830078125 1082.33300781 49.25 1085 c 0
 21.9169921875 1094.33300781 15.9169921875 1104.33300781 31.25 1115 c 1
 99.9169921875 1121 163.25 1122 221.25 1118 c 0
 237.25 1117.33300781 250.75 1105.66699219 261.75 1083 c 0
 272.75 1060.33300781 282.583007812 1033 291.25 1001 c 0
 299.916992188 969 307.583007812 935 314.25 899 c 0
 320.916992188 863 327.916992188 831 335.25 803 c 0
 349.25 746.333007812 366.416992188 707.833007812 386.75 687.5 c 0
 407.083007812 667.166992188 441.916992188 650.333007812 491.25 637 c 0
 540.583007812 623.666992188 622.916992188 618.333007812 738.25 621 c 1
 726.25 689 l 2
 725.583007812 692.333007812 722.25 696.833007812 716.25 702.5 c 0
 710.25 708.166992188 707.25 712.666992188 707.25 716 c 0
 707.25 720 712.583007812 722.666992188 723.25 724 c 0
 733.916992188 725.333007812 741.583007812 726 746.25 726 c 2
 807.25 726 l 2
 814.583007812 726 821.75 720.833007812 828.75 710.5 c 0
 835.75 700.166992188 840.583007812 689 843.25 677 c 2
 853.25 621 l 1
 897.916992188 621.666992188 928.25 623.333007812 944.25 626 c 0
 960.25 628.666992188 977.916992188 631 997.25 633 c 1
 1004.58300781 632.333007812 1008.91699219 629.166992188 1010.25 623.5 c 0
 1011.58300781 617.833007812 1009.91699219 612.333007812 1005.25 607 c 0
 998.583007812 601 985.083007812 596.833007812 964.75 594.5 c 0
 944.416992188 592.166992188 908.583007812 591 857.25 591 c 1
296.25 140 m 1
 270.916992188 130.666992188 227.916992188 131.333007812 167.25 142 c 1
 131.916992188 150.666992188 100.75 162.333007812 73.75 177 c 0
 46.75 191.666992188 25.9169921875 217.333007812 11.25 254 c 1
 1.25 289.333007812 -2.0830078125 317.5 1.25 338.5 c 0
 4.5830078125 359.5 16.25 384 36.25 412 c 1
 55.5830078125 435.333007812 78.0830078125 453 103.75 465 c 0
 129.416992188 477 160.916992188 486.666992188 198.25 494 c 0
 235.583007812 501.333007812 265.916992188 505 289.25 505 c 0
 312.583007812 505 337.916992188 504.333007812 365.25 503 c 0
 391.916992188 501.666992188 416.75 499.5 439.75 496.5 c 0
 462.75 493.5 490.583007812 487 523.25 477 c 0
 577.25 462.333007812 630.583007812 442 683.25 416 c 0
 712.583007812 401.333007812 743.75 385.5 776.75 368.5 c 0
 809.75 351.5 846.583007812 331.333007812 887.25 308 c 0
 905.916992188 296.666992188 926.416992188 284.666992188 948.75 272 c 0
 971.083007812 259.333007812 994.916992188 246.333007812 1020.25 233 c 1
 1039.58300781 221 1058.75 208.833007812 1077.75 196.5 c 0
 1096.75 184.166992188 1104.75 171.833007812 1101.75 159.5 c 0
 1098.75 147.166992188 1091.58300781 141.333007812 1080.25 142 c 0
 1068.91699219 142.666992188 1033.08300781 142.333007812 972.75 141 c 0
 912.416992188 139.666992188 859.916992188 139.333007812 815.25 140 c 1
 797.25 153.333007812 797.416992188 163 815.75 169 c 0
 834.083007812 175 847.916992188 182.333007812 857.25 191 c 0
 873.916992188 208.333007812 881.25 222 879.25 232 c 0
 877.25 242 874.416992188 249.833007812 870.75 255.5 c 0
 867.083007812 261.166992188 861.583007812 267.166992188 854.25 273.5 c 0
 846.916992188 279.833007812 828.75 293 799.75 313 c 0
 770.75 333 734.916992188 354 692.25 376 c 1
 653.583007812 392.666992188 623.25 406.333007812 601.25 417 c 0
 579.25 427.666992188 543.583007812 439.666992188 494.25 453 c 1
 457.583007812 460.333007812 420.25 464.833007812 382.25 466.5 c 0
 344.25 468.166992188 305.583007812 462.666992188 266.25 450 c 1
 238.916992188 438 219.75 427.833007812 208.75 419.5 c 0
 197.75 411.166992188 185.25 396.333007812 171.25 375 c 0
 159.25 355 152.416992188 338 150.75 324 c 0
 149.083007812 310 148.916992188 294 150.25 276 c 0
 150.916992188 257.333007812 153.083007812 243.833007812 156.75 235.5 c 0
 160.416992188 227.166992188 165.083007812 218.833007812 170.75 210.5 c 0
 176.416992188 202.166992188 183.75 194.5 192.75 187.5 c 0
 201.75 180.5 215.583007812 175.5 234.25 172.5 c 0
 252.916992188 169.5 271.25 167 289.25 165 c 0
 297.25 163.666992188 302.416992188 160.333007812 304.75 155 c 0
 307.083007812 149.666992188 304.25 144.666992188 296.25 140 c 1
502.25 35 m 1
 495.583007812 40.3330078125 495.083007812 45.3330078125 500.75 50 c 0
 506.416992188 54.6669921875 513.916992188 57 523.25 57 c 0
 533.25 57 546.916992188 65.8330078125 564.25 83.5 c 0
 581.583007812 101.166992188 593.25 123 599.25 149 c 0
 608.583007812 193 585.583007812 229.333007812 530.25 258 c 0
 508.916992188 268 482.25 277 450.25 285 c 0
 418.25 293 386.583007812 300 355.25 306 c 0
 323.916992188 312 296.25 316.833007812 272.25 320.5 c 0
 248.25 324.166992188 234.25 327 230.25 329 c 0
 221.583007812 332.333007812 218.25 336.666992188 220.25 342 c 0
 222.25 347.333007812 226.583007812 350 233.25 350 c 0
 236.583007812 350 250.083007812 348.666992188 273.75 346 c 0
 297.416992188 343.333007812 325.75 339.166992188 358.75 333.5 c 0
 391.75 327.833007812 426.416992188 320.833007812 462.75 312.5 c 0
 499.083007812 304.833007812 532.25 295 562.25 283 c 0
 597.583007812 269 625.916992188 255 647.25 241 c 0
 668.583007812 227 687.916992188 208 705.25 184 c 0
 722.583007812 160 729.916992188 136.333007812 727.25 113 c 0
 724.583007812 89.6669921875 714.583007812 71.3330078125 697.25 58 c 0
 681.25 46 662.583007812 38 641.25 34 c 0
 619.916992188 30 599.916992188 28 581.25 28 c 256
 562.583007812 28 549.416992188 28.1669921875 541.75 28.5 c 0
 534.083007812 28.8330078125 520.916992188 31 502.25 35 c 1
EndSplineSet
EndChar

StartChar: doubleChamili
Encoding: 57387 57387 53
Width: 985
VWidth: 345
Flags: W
HStem: 290 30<520.269 712.728 830.728 970.822> 711 30<520.269 712.728 830.728 970.822>
AnchorPoint: "yfenAbove" 408.728 1241 basechar 0
AnchorPoint: "yfenBelow" 379.728 -40 basechar 0
AnchorPoint: "koronis" 701.728 1226 basechar 0
AnchorPoint: "endofonon" 563.728 -37 basechar 0
AnchorPoint: "measureNumber" 103.728 1223 basechar 0
AnchorPoint: "isonIndicator" 459.728 1386 basechar 0
AnchorPoint: "heteronConnecting" -245.272 -19 basechar 0
AnchorPoint: "omalonConnecting" -69.2725 89 basechar 0
AnchorPoint: "apli" 526.728 70 basechar 0
AnchorPoint: "antikenoma" 525.728 175 basechar 0
AnchorPoint: "noteTop" 173.728 1223 basechar 0
AnchorPoint: "fthoraTop" 704.728 1105 basechar 0
AnchorPoint: "fthoraBottom" 540.728 240 basechar 0
AnchorPoint: "gorgonTop" 750.728 1027 basechar 0
AnchorPoint: "diesis" 395.728 161 basechar 0
AnchorPoint: "yfesis" 896.728 1097 basechar 0
AnchorPoint: "klasmaTop" 638.728 933 basechar 0
LayerCount: 2
Fore
SplineSet
830.727539062 290 m 1
 839.727539062 252 l 2
 839.727539062 249.333007812 843.227539062 242.833007812 850.227539062 232.5 c 0
 857.227539062 222.166992188 860.727539062 215.666992188 860.727539062 213 c 256
 860.727539062 210.333007812 855.227539062 208 844.227539062 206 c 0
 833.227539062 204 825.727539062 203 821.727539062 203 c 2
 760.727539062 203 l 2
 752.727539062 203 745.227539062 208.666992188 738.227539062 220 c 0
 731.227539062 231.333007812 726.727539062 242 724.727539062 252 c 2
 716.727539062 290 l 1
 638.727539062 290 567.060546875 293.166992188 501.727539062 299.5 c 0
 436.393554688 305.833007812 390.060546875 311.333007812 362.727539062 316 c 0
 312.060546875 324 270.227539062 338 237.227539062 358 c 0
 204.227539062 378 182.393554688 400.666992188 171.727539062 426 c 0
 166.393554688 438.666992188 156.727539062 457.5 142.727539062 482.5 c 0
 128.727539062 507.5 114.060546875 532.666992188 98.7275390625 558 c 0
 83.3935546875 583.333007812 68.8935546875 606 55.2275390625 626 c 0
 41.560546875 646 32.060546875 657 26.7275390625 659 c 0
 -0.6064453125 668.333007812 -6.6064453125 678.666992188 8.7275390625 690 c 1
 42.060546875 692.666992188 74.060546875 694.5 104.727539062 695.5 c 0
 135.393554688 696.5 166.727539062 695.666992188 198.727539062 693 c 0
 230.727539062 691 253.560546875 672.666992188 267.227539062 638 c 0
 280.893554688 603.333007812 294.727539062 558 308.727539062 502 c 0
 322.727539062 446 339.893554688 407.833007812 360.227539062 387.5 c 0
 380.560546875 367.166992188 415.727539062 350.333007812 465.727539062 337 c 0
 516.393554688 323 598.727539062 317.333007812 712.727539062 320 c 1
 700.727539062 389 l 2
 700.060546875 392.333007812 696.727539062 396.666992188 690.727539062 402 c 0
 684.727539062 407.333007812 681.727539062 411.666992188 681.727539062 415 c 0
 681.727539062 419 687.060546875 421.666992188 697.727539062 423 c 0
 708.393554688 424.333007812 716.060546875 425 720.727539062 425 c 2
 781.727539062 425 l 2
 789.060546875 425 796.227539062 419.833007812 803.227539062 409.5 c 0
 810.227539062 399.166992188 815.060546875 388 817.727539062 376 c 2
 827.727539062 321 l 1
 872.393554688 321.666992188 902.727539062 323.166992188 918.727539062 325.5 c 0
 934.727539062 327.833007812 952.393554688 330.333007812 971.727539062 333 c 1
 979.060546875 332.333007812 983.393554688 329 984.727539062 323 c 0
 986.060546875 317 984.393554688 311.333007812 979.727539062 306 c 0
 973.060546875 300.666992188 959.393554688 296.666992188 938.727539062 294 c 0
 918.060546875 291.333007812 882.060546875 290 830.727539062 290 c 1
830.727539062 711 m 1
 839.727539062 673 l 2
 839.727539062 670.333007812 843.227539062 663.833007812 850.227539062 653.5 c 0
 857.227539062 643.166992188 860.727539062 636.666992188 860.727539062 634 c 0
 860.727539062 631.333007812 855.227539062 628.833007812 844.227539062 626.5 c 0
 833.227539062 624.166992188 825.727539062 623 821.727539062 623 c 2
 760.727539062 623 l 2
 752.727539062 623 745.227539062 628.666992188 738.227539062 640 c 0
 731.227539062 651.333007812 726.727539062 662.333007812 724.727539062 673 c 2
 716.727539062 711 l 1
 638.727539062 711 567.060546875 714 501.727539062 720 c 0
 436.393554688 726 390.060546875 731.333007812 362.727539062 736 c 0
 312.060546875 744 270.227539062 758 237.227539062 778 c 0
 204.227539062 798 182.393554688 820.666992188 171.727539062 846 c 0
 166.393554688 858.666992188 156.727539062 877.5 142.727539062 902.5 c 0
 128.727539062 927.5 114.060546875 952.666992188 98.7275390625 978 c 0
 83.3935546875 1003.33300781 68.8935546875 1026 55.2275390625 1046 c 0
 41.560546875 1066 32.060546875 1077.33300781 26.7275390625 1080 c 0
 -1.2724609375 1089.33300781 -7.2724609375 1099.66699219 8.7275390625 1111 c 1
 42.060546875 1113.66699219 74.060546875 1115.33300781 104.727539062 1116 c 0
 135.393554688 1116.66699219 166.727539062 1115.66699219 198.727539062 1113 c 0
 230.727539062 1111 253.560546875 1092.83300781 267.227539062 1058.5 c 0
 280.893554688 1024.16699219 294.727539062 979 308.727539062 923 c 0
 322.727539062 866.333007812 339.893554688 827.833007812 360.227539062 807.5 c 0
 380.560546875 787.166992188 415.727539062 770.666992188 465.727539062 758 c 0
 516.393554688 744 598.727539062 738.333007812 712.727539062 741 c 1
 700.727539062 809 l 2
 700.060546875 812.333007812 696.727539062 816.833007812 690.727539062 822.5 c 0
 684.727539062 828.166992188 681.727539062 832.666992188 681.727539062 836 c 0
 681.727539062 840 687.060546875 842.666992188 697.727539062 844 c 0
 708.393554688 845.333007812 716.060546875 846 720.727539062 846 c 2
 781.727539062 846 l 2
 789.060546875 846 796.227539062 840.833007812 803.227539062 830.5 c 0
 810.227539062 820.166992188 815.060546875 809 817.727539062 797 c 2
 827.727539062 741 l 1
 872.393554688 741.666992188 902.727539062 743.166992188 918.727539062 745.5 c 0
 934.727539062 747.833007812 952.393554688 750.333007812 971.727539062 753 c 1
 979.060546875 752.333007812 983.393554688 749 984.727539062 743 c 0
 986.060546875 737 984.393554688 731.666992188 979.727539062 727 c 0
 973.060546875 721.666992188 959.393554688 717.666992188 938.727539062 715 c 0
 918.060546875 712.333007812 882.060546875 711 830.727539062 711 c 1
EndSplineSet
EndChar

StartChar: petastiIson
Encoding: 57408 57408 54
Width: 1179
VWidth: 345
Flags: W
HStem: 133.5 38<686.737 918.047> 469.5 28.5<331.058 371.674 874.629 979.756> 607 123<893.018 1065.46>
VStem: 1028.52 149.5<261.308 407.941>
AnchorPoint: "yfenAbove" 449.018 1049 basechar 0
AnchorPoint: "yfenBelow" 512.018 -40 basechar 0
AnchorPoint: "koronis" 653.018 1046 basechar 0
AnchorPoint: "endofonon" 695.018 -127 basechar 0
AnchorPoint: "heteronConnecting" -74.9824 -19 basechar 0
AnchorPoint: "yfesis" 1102.02 915 basechar 0
AnchorPoint: "psifiston" 777.018 140 basechar 0
AnchorPoint: "measureNumber" 95.0176 1073 basechar 0
AnchorPoint: "isonIndicator" 637.018 1096 basechar 0
AnchorPoint: "apli" 688.018 -10 basechar 0
AnchorPoint: "antikenoma" 636.018 62 basechar 0
AnchorPoint: "fthoraBottom" 275.018 162 basechar 0
AnchorPoint: "noteTop" 221.018 1040 basechar 0
AnchorPoint: "fthoraTop" 657.018 846 basechar 0
AnchorPoint: "diesis" 387.018 147 basechar 0
AnchorPoint: "klasmaBottom" 723.018 83 basechar 0
LayerCount: 2
Fore
SplineSet
883.017578125 498 m 1
 908.350585938 507.333007812 951.350585938 506.666992188 1012.01757812 496 c 1
 1047.35058594 486.666992188 1078.51757812 474.833007812 1105.51757812 460.5 c 0
 1132.51757812 446.166992188 1153.35058594 420.666992188 1168.01757812 384 c 1
 1178.01757812 348.666992188 1181.35058594 320.333007812 1178.01757812 299 c 0
 1174.68457031 277.666992188 1163.01757812 253.333007812 1143.01757812 226 c 1
 1123.68457031 202.666992188 1101.18457031 185.166992188 1075.51757812 173.5 c 0
 1049.85058594 161.833007812 1018.01757812 152 980.017578125 144 c 0
 942.684570312 136.666992188 912.350585938 133.166992188 889.017578125 133.5 c 0
 865.684570312 133.833007812 840.684570312 134.333007812 814.017578125 135 c 0
 787.350585938 136.333007812 762.517578125 138.5 739.517578125 141.5 c 0
 716.517578125 144.5 688.684570312 151 656.017578125 161 c 0
 602.017578125 175.666992188 548.684570312 196 496.017578125 222 c 0
 466.684570312 236.666992188 435.350585938 252.5 402.017578125 269.5 c 0
 368.684570312 286.5 331.684570312 306.666992188 291.017578125 330 c 0
 272.350585938 341.333007812 252.017578125 353.5 230.017578125 366.5 c 0
 208.017578125 379.5 184.350585938 392.666992188 159.017578125 406 c 1
 139.684570312 418 120.517578125 430.166992188 101.517578125 442.5 c 0
 82.517578125 454.833007812 74.517578125 467.166992188 77.517578125 479.5 c 0
 80.517578125 491.833007812 87.6845703125 497.666992188 99.017578125 497 c 0
 110.350585938 496.333007812 146.017578125 496.5 206.017578125 497.5 c 0
 266.017578125 498.5 318.684570312 498.666992188 364.017578125 498 c 1
 382.017578125 484.666992188 381.684570312 475.166992188 363.017578125 469.5 c 0
 344.350585938 463.833007812 330.684570312 456.666992188 322.017578125 448 c 0
 305.350585938 430.666992188 298.017578125 416.833007812 300.017578125 406.5 c 0
 302.017578125 396.166992188 304.684570312 388.166992188 308.017578125 382.5 c 0
 311.350585938 376.833007812 316.684570312 370.833007812 324.017578125 364.5 c 0
 331.350585938 358.166992188 349.517578125 345 378.517578125 325 c 0
 407.517578125 305 443.684570312 284 487.017578125 262 c 1
 525.684570312 245.333007812 556.017578125 231.666992188 578.017578125 221 c 0
 600.017578125 210.333007812 635.684570312 198.333007812 685.017578125 185 c 1
 721.684570312 177.666992188 759.017578125 173.166992188 797.017578125 171.5 c 0
 835.017578125 169.833007812 873.684570312 175.333007812 913.017578125 188 c 1
 940.350585938 200 959.517578125 210.333007812 970.517578125 219 c 0
 981.517578125 227.666992188 994.017578125 242.333007812 1008.01757812 263 c 0
 1020.01757812 283 1026.85058594 300 1028.51757812 314 c 0
 1030.18457031 328 1030.35058594 344 1029.01757812 362 c 0
 1028.35058594 380.666992188 1026.18457031 394.166992188 1022.51757812 402.5 c 0
 1018.85058594 410.833007812 1014.01757812 419.333007812 1008.01757812 428 c 0
 1002.01757812 436.666992188 994.684570312 444.5 986.017578125 451.5 c 0
 977.350585938 458.5 963.684570312 463.333007812 945.017578125 466 c 0
 926.350585938 468.666992188 908.017578125 471 890.017578125 473 c 0
 882.017578125 474.333007812 876.850585938 477.666992188 874.517578125 483 c 0
 872.184570312 488.333007812 875.017578125 493.333007812 883.017578125 498 c 1
26.017578125 804 m 1
 0.6845703125 850 -6.1484375 889.5 5.517578125 922.5 c 0
 17.1845703125 955.5 38.017578125 973 68.017578125 975 c 0
 87.3515625 976.333007812 102.184570312 975 112.517578125 971 c 0
 122.8515625 967 132.017578125 962.666992188 140.017578125 958 c 0
 148.017578125 953.333007812 155.517578125 948.5 162.517578125 943.5 c 0
 169.517578125 938.5 176.017578125 933.333007812 182.017578125 928 c 0
 188.017578125 922.666992188 192.184570312 917.833007812 194.517578125 913.5 c 0
 196.8515625 909.166992188 197.8515625 905.333007812 197.517578125 902 c 0
 197.184570312 898.666992188 195.8515625 896.166992188 193.517578125 894.5 c 0
 191.184570312 892.833007812 184.184570312 889.666992188 172.517578125 885 c 0
 160.8515625 880.333007812 145.684570312 872.833007812 127.017578125 862.5 c 0
 108.3515625 852.166992188 99.3515625 834.666992188 100.017578125 810 c 0
 100.017578125 784.666992188 126.3515625 760.833007812 179.017578125 738.5 c 0
 231.684570312 716.166992188 310.017578125 707.333007812 414.017578125 712 c 2
 963.017578125 730 l 2
 985.017578125 730 1002.51757812 728.5 1015.51757812 725.5 c 0
 1028.51757812 722.5 1040.3515625 718.833007812 1051.01757812 714.5 c 0
 1061.68457031 710.166992188 1070.8515625 705.666992188 1078.51757812 701 c 0
 1086.18457031 696.333007812 1094.8515625 689.5 1104.51757812 680.5 c 0
 1114.18457031 671.5 1125.68457031 660 1139.01757812 646 c 0
 1152.3515625 632 1161.01757812 621.666992188 1165.01757812 615 c 0
 1169.01757812 608.333007812 1171.01757812 602 1171.01757812 596 c 0
 1171.01757812 590 1169.01757812 585.833007812 1165.01757812 583.5 c 0
 1161.01757812 581.166992188 1156.51757812 580 1151.51757812 580 c 0
 1146.51757812 580 1141.3515625 581.166992188 1136.01757812 583.5 c 0
 1130.68457031 585.833007812 1124.3515625 588.166992188 1117.01757812 590.5 c 0
 1109.68457031 592.833007812 1101.18457031 595.333007812 1091.51757812 598 c 0
 1081.8515625 600.666992188 1073.18457031 602.666992188 1065.51757812 604 c 0
 1057.8515625 605.333007812 1047.01757812 606.333007812 1033.01757812 607 c 2
 823.017578125 613 l 1
 761.684570312 613 697.184570312 615.5 629.517578125 620.5 c 0
 561.8515625 625.5 498.017578125 632 438.017578125 640 c 0
 378.017578125 648 325.3515625 656.666992188 280.017578125 666 c 0
 234.684570312 675.333007812 203.684570312 683.333007812 187.017578125 690 c 0
 158.3515625 702 132.8515625 713.666992188 110.517578125 725 c 0
 88.1845703125 736.333007812 60.017578125 762.666992188 26.017578125 804 c 1
EndSplineSet
EndChar

StartChar: petasti
Encoding: 57409 57409 55
Width: 1102
VWidth: 345
Flags: W
HStem: 133.5 38<609.833 841.143> 469.5 28.5<254.154 294.77 797.725 902.852>
VStem: 951.613 149.5<261.308 407.941>
AnchorPoint: "yfenAbove" 372.113 1049 basechar 0
AnchorPoint: "yfenBelow" 395.113 -40 basechar 0
AnchorPoint: "koronis" 651.113 1046 basechar 0
AnchorPoint: "endofonon" 693.113 -127 basechar 0
AnchorPoint: "heteronConnecting" -151.887 -19 basechar 0
AnchorPoint: "yfesis" 1034.11 691 basechar 0
AnchorPoint: "measureNumber" 93.1133 743 basechar 0
AnchorPoint: "isonIndicator" 585.113 913 basechar 0
AnchorPoint: "apli" 686.113 -80 basechar 0
AnchorPoint: "antikenoma" 634.113 62 basechar 0
AnchorPoint: "fthoraBottom" 273.113 162 basechar 0
AnchorPoint: "noteTop" 135.113 636 basechar 0
AnchorPoint: "fthoraTop" 577.113 600 basechar 0
AnchorPoint: "diesis" 385.113 147 basechar 0
AnchorPoint: "psifiston" 716.113 140 basechar 0
AnchorPoint: "klasmaBottom" 721.113 83 basechar 0
LayerCount: 2
Fore
SplineSet
806.11328125 498 m 1
 831.447265625 507.333007812 874.447265625 506.666992188 935.11328125 496 c 1
 970.447265625 486.666992188 1001.61328125 474.833007812 1028.61328125 460.5 c 0
 1055.61328125 446.166992188 1076.44726562 420.666992188 1091.11328125 384 c 1
 1101.11328125 348.666992188 1104.44726562 320.333007812 1101.11328125 299 c 0
 1097.78027344 277.666992188 1086.11328125 253.333007812 1066.11328125 226 c 1
 1046.78027344 202.666992188 1024.28027344 185.166992188 998.61328125 173.5 c 0
 972.947265625 161.833007812 941.11328125 152 903.11328125 144 c 0
 865.780273438 136.666992188 835.447265625 133.166992188 812.11328125 133.5 c 0
 788.780273438 133.833007812 763.780273438 134.333007812 737.11328125 135 c 0
 710.447265625 136.333007812 685.61328125 138.5 662.61328125 141.5 c 0
 639.61328125 144.5 611.780273438 151 579.11328125 161 c 0
 525.11328125 175.666992188 471.780273438 196 419.11328125 222 c 0
 389.780273438 236.666992188 358.447265625 252.5 325.11328125 269.5 c 0
 291.780273438 286.5 254.780273438 306.666992188 214.11328125 330 c 0
 195.447265625 341.333007812 175.11328125 353.5 153.11328125 366.5 c 0
 131.11328125 379.5 107.447265625 392.666992188 82.11328125 406 c 1
 62.7802734375 418 43.61328125 430.166992188 24.61328125 442.5 c 0
 5.61328125 454.833007812 -2.38671875 467.166992188 0.61328125 479.5 c 0
 3.61328125 491.833007812 10.7802734375 497.666992188 22.11328125 497 c 0
 33.447265625 496.333007812 69.11328125 496.5 129.11328125 497.5 c 0
 189.11328125 498.5 241.780273438 498.666992188 287.11328125 498 c 1
 305.11328125 484.666992188 304.780273438 475.166992188 286.11328125 469.5 c 0
 267.447265625 463.833007812 253.780273438 456.666992188 245.11328125 448 c 0
 228.447265625 430.666992188 221.11328125 416.833007812 223.11328125 406.5 c 0
 225.11328125 396.166992188 227.780273438 388.166992188 231.11328125 382.5 c 0
 234.447265625 376.833007812 239.780273438 370.833007812 247.11328125 364.5 c 0
 254.447265625 358.166992188 272.61328125 345 301.61328125 325 c 0
 330.61328125 305 366.780273438 284 410.11328125 262 c 1
 448.780273438 245.333007812 479.11328125 231.666992188 501.11328125 221 c 0
 523.11328125 210.333007812 558.780273438 198.333007812 608.11328125 185 c 1
 644.780273438 177.666992188 682.11328125 173.166992188 720.11328125 171.5 c 0
 758.11328125 169.833007812 796.780273438 175.333007812 836.11328125 188 c 1
 863.447265625 200 882.61328125 210.333007812 893.61328125 219 c 0
 904.61328125 227.666992188 917.11328125 242.333007812 931.11328125 263 c 0
 943.11328125 283 949.947265625 300 951.61328125 314 c 0
 953.280273438 328 953.447265625 344 952.11328125 362 c 0
 951.447265625 380.666992188 949.280273438 394.166992188 945.61328125 402.5 c 0
 941.947265625 410.833007812 937.11328125 419.333007812 931.11328125 428 c 0
 925.11328125 436.666992188 917.780273438 444.5 909.11328125 451.5 c 0
 900.447265625 458.5 886.780273438 463.333007812 868.11328125 466 c 0
 849.447265625 468.666992188 831.11328125 471 813.11328125 473 c 0
 805.11328125 474.333007812 799.947265625 477.666992188 797.61328125 483 c 0
 795.280273438 488.333007812 798.11328125 493.333007812 806.11328125 498 c 1
EndSplineSet
EndChar

StartChar: petastiOligon
Encoding: 57410 57410 56
Width: 1233
VWidth: 345
Flags: W
HStem: 133.5 38<689.497 920.646> 469.5 28.5<334.28 374.449 877.389 982.516> 636 114<92.0379 1146.65>
VStem: 1031.28 149.5<261.308 407.941>
AnchorPoint: "yfenAbove" 502.777 1049 basechar 0
AnchorPoint: "yfenBelow" 505.777 -40 basechar 0
AnchorPoint: "koronis" 657.777 1046 basechar 0
AnchorPoint: "endofonon" 699.777 -127 basechar 0
AnchorPoint: "heteronConnecting" -21.2227 -19 basechar 0
AnchorPoint: "yfesis" 1040.78 991 basechar 0
AnchorPoint: "psifiston" 787.777 140 basechar 0
AnchorPoint: "measureNumber" 99.7773 953 basechar 0
AnchorPoint: "isonIndicator" 651.777 913 basechar 0
AnchorPoint: "apli" 712.777 -80 basechar 0
AnchorPoint: "antikenoma" 640.777 62 basechar 0
AnchorPoint: "fthoraBottom" 279.777 162 basechar 0
AnchorPoint: "noteTop" 141.777 916 basechar 0
AnchorPoint: "fthoraTop" 661.777 846 basechar 0
AnchorPoint: "klasmaBottom" 727.777 83 basechar 0
AnchorPoint: "diesis" 391.777 147 basechar 0
LayerCount: 2
Fore
SplineSet
2.77734375 766.5 m 0
 6.111328125 771.5 9.611328125 774.166992188 13.27734375 774.5 c 0
 16.9443359375 774.833007812 21.111328125 773.666992188 25.77734375 771 c 0
 30.4443359375 768.333007812 36.111328125 765.333007812 42.77734375 762 c 0
 49.4443359375 758.666992188 58.27734375 755.833007812 69.27734375 753.5 c 0
 80.27734375 751.166992188 95.4443359375 750 114.77734375 750 c 2
 1052.77734375 750 l 2
 1070.77734375 750 1086.94433594 748.5 1101.27734375 745.5 c 0
 1115.61132812 742.5 1128.77734375 737.833007812 1140.77734375 731.5 c 0
 1152.77734375 725.166992188 1162.11132812 719.5 1168.77734375 714.5 c 0
 1175.44433594 709.5 1184.61132812 701.166992188 1196.27734375 689.5 c 0
 1207.94433594 677.833007812 1217.77734375 666.166992188 1225.77734375 654.5 c 0
 1233.77734375 642.833007812 1235.44433594 631.666992188 1230.77734375 621 c 0
 1226.11132812 613 1220.44433594 611.333007812 1213.77734375 616 c 0
 1207.11132812 620.666992188 1199.27734375 624.666992188 1190.27734375 628 c 0
 1181.27734375 631.333007812 1171.61132812 633.5 1161.27734375 634.5 c 0
 1150.94433594 635.5 1135.11132812 636 1113.77734375 636 c 2
 187.77734375 636 l 2
 173.111328125 636 159.944335938 637 148.27734375 639 c 0
 136.611328125 641 127.444335938 643.166992188 120.77734375 645.5 c 0
 114.111328125 647.833007812 107.111328125 650.666992188 99.77734375 654 c 0
 92.4443359375 657.333007812 84.611328125 661.833007812 76.27734375 667.5 c 0
 67.9443359375 673.166992188 58.9443359375 680.833007812 49.27734375 690.5 c 0
 39.611328125 700.166992188 29.9443359375 711.333007812 20.27734375 724 c 0
 10.611328125 736.666992188 4.4443359375 745.666992188 1.77734375 751 c 0
 -0.888671875 756.333007812 -0.5556640625 761.5 2.77734375 766.5 c 0
885.77734375 498 m 1
 911.111328125 507.333007812 954.111328125 506.666992188 1014.77734375 496 c 1
 1050.11132812 486.666992188 1081.27734375 474.833007812 1108.27734375 460.5 c 0
 1135.27734375 446.166992188 1156.11132812 420.666992188 1170.77734375 384 c 1
 1180.77734375 348.666992188 1184.11132812 320.333007812 1180.77734375 299 c 0
 1177.44433594 277.666992188 1165.77734375 253.333007812 1145.77734375 226 c 1
 1126.44433594 202.666992188 1103.94433594 185.166992188 1078.27734375 173.5 c 0
 1052.61132812 161.833007812 1021.11132812 152 983.77734375 144 c 0
 946.444335938 136.666992188 916.111328125 133.166992188 892.77734375 133.5 c 0
 869.444335938 133.833007812 844.111328125 134.333007812 816.77734375 135 c 0
 790.111328125 136.333007812 765.27734375 138.5 742.27734375 141.5 c 0
 719.27734375 144.5 691.444335938 151 658.77734375 161 c 0
 604.77734375 175.666992188 551.444335938 196 498.77734375 222 c 0
 469.444335938 236.666992188 438.27734375 252.5 405.27734375 269.5 c 0
 372.27734375 286.5 335.444335938 306.666992188 294.77734375 330 c 0
 276.111328125 341.333007812 255.611328125 353.5 233.27734375 366.5 c 0
 210.944335938 379.5 187.111328125 392.666992188 161.77734375 406 c 1
 142.444335938 418 123.27734375 430.166992188 104.27734375 442.5 c 0
 85.27734375 454.833007812 77.27734375 467.166992188 80.27734375 479.5 c 0
 83.27734375 491.833007812 90.4443359375 497.666992188 101.77734375 497 c 0
 113.111328125 496.333007812 148.944335938 496.5 209.27734375 497.5 c 0
 269.611328125 498.5 322.111328125 498.666992188 366.77734375 498 c 1
 384.77734375 484.666992188 384.611328125 475.166992188 366.27734375 469.5 c 0
 347.944335938 463.833007812 334.111328125 456.666992188 324.77734375 448 c 0
 308.111328125 430.666992188 300.77734375 416.833007812 302.77734375 406.5 c 0
 304.77734375 396.166992188 307.611328125 388.166992188 311.27734375 382.5 c 0
 314.944335938 376.833007812 320.444335938 370.833007812 327.77734375 364.5 c 0
 335.111328125 358.166992188 353.27734375 345 382.27734375 325 c 0
 411.27734375 305 447.111328125 284 489.77734375 262 c 1
 528.444335938 245.333007812 558.77734375 231.666992188 580.77734375 221 c 0
 602.77734375 210.333007812 638.444335938 198.333007812 687.77734375 185 c 1
 724.444335938 177.666992188 761.77734375 173.166992188 799.77734375 171.5 c 0
 837.77734375 169.833007812 876.444335938 175.333007812 915.77734375 188 c 1
 943.111328125 200 962.27734375 210.333007812 973.27734375 219 c 0
 984.27734375 227.666992188 996.77734375 242.333007812 1010.77734375 263 c 0
 1022.77734375 283 1029.61132812 300 1031.27734375 314 c 0
 1032.94433594 328 1033.11132812 344 1031.77734375 362 c 0
 1031.11132812 380.666992188 1028.94433594 394.166992188 1025.27734375 402.5 c 0
 1021.61132812 410.833007812 1016.94433594 419.333007812 1011.27734375 428 c 0
 1005.61132812 436.666992188 998.27734375 444.5 989.27734375 451.5 c 0
 980.27734375 458.5 966.444335938 463.333007812 947.77734375 466 c 0
 929.111328125 468.666992188 910.77734375 471 892.77734375 473 c 0
 884.77734375 474.333007812 879.611328125 477.666992188 877.27734375 483 c 0
 874.944335938 488.333007812 877.77734375 493.333007812 885.77734375 498 c 1
EndSplineSet
EndChar

StartChar: petastiKentima
Encoding: 57411 57411 57
Width: 1102
VWidth: 345
Flags: W
HStem: 133.5 38<609.833 841.143> 469.5 28.5<254.154 294.77 797.725 902.852> 800 29<352.897 395.03>
VStem: 951.613 149.5<261.308 407.941>
AnchorPoint: "yfenAbove" 365.113 1049 basechar 0
AnchorPoint: "yfenBelow" 428.113 -40 basechar 0
AnchorPoint: "koronis" 651.113 1046 basechar 0
AnchorPoint: "endofonon" 693.113 -127 basechar 0
AnchorPoint: "heteronConnecting" -158.887 -19 basechar 0
AnchorPoint: "yfesis" 1034.11 691 basechar 0
AnchorPoint: "psifiston" 716.113 140 basechar 0
AnchorPoint: "measureNumber" 93.1133 853 basechar 0
AnchorPoint: "isonIndicator" 585.113 949 basechar 0
AnchorPoint: "apli" 686.113 -80 basechar 0
AnchorPoint: "antikenoma" 634.113 62 basechar 0
AnchorPoint: "fthoraBottom" 273.113 162 basechar 0
AnchorPoint: "noteTop" 79.1133 670 basechar 0
AnchorPoint: "fthoraTop" 1012.11 660 basechar 0
AnchorPoint: "diesis" 385.113 147 basechar 0
AnchorPoint: "klasmaBottom" 721.113 83 basechar 0
LayerCount: 2
Fore
SplineSet
806.11328125 498 m 1
 831.447265625 507.333007812 874.447265625 506.666992188 935.11328125 496 c 1
 970.447265625 486.666992188 1001.61328125 474.833007812 1028.61328125 460.5 c 0
 1055.61328125 446.166992188 1076.44726562 420.666992188 1091.11328125 384 c 1
 1101.11328125 348.666992188 1104.44726562 320.333007812 1101.11328125 299 c 0
 1097.78027344 277.666992188 1086.11328125 253.333007812 1066.11328125 226 c 1
 1046.78027344 202.666992188 1024.28027344 185.166992188 998.61328125 173.5 c 0
 972.947265625 161.833007812 941.11328125 152 903.11328125 144 c 0
 865.780273438 136.666992188 835.447265625 133.166992188 812.11328125 133.5 c 0
 788.780273438 133.833007812 763.780273438 134.333007812 737.11328125 135 c 0
 710.447265625 136.333007812 685.61328125 138.5 662.61328125 141.5 c 0
 639.61328125 144.5 611.780273438 151 579.11328125 161 c 0
 525.11328125 175.666992188 471.780273438 196 419.11328125 222 c 0
 389.780273438 236.666992188 358.447265625 252.5 325.11328125 269.5 c 0
 291.780273438 286.5 254.780273438 306.666992188 214.11328125 330 c 0
 195.447265625 341.333007812 175.11328125 353.5 153.11328125 366.5 c 0
 131.11328125 379.5 107.447265625 392.666992188 82.11328125 406 c 1
 62.7802734375 418 43.61328125 430.166992188 24.61328125 442.5 c 0
 5.61328125 454.833007812 -2.38671875 467.166992188 0.61328125 479.5 c 0
 3.61328125 491.833007812 10.7802734375 497.666992188 22.11328125 497 c 0
 33.447265625 496.333007812 69.11328125 496.5 129.11328125 497.5 c 0
 189.11328125 498.5 241.780273438 498.666992188 287.11328125 498 c 1
 305.11328125 484.666992188 304.780273438 475.166992188 286.11328125 469.5 c 0
 267.447265625 463.833007812 253.780273438 456.666992188 245.11328125 448 c 0
 228.447265625 430.666992188 221.11328125 416.833007812 223.11328125 406.5 c 0
 225.11328125 396.166992188 227.780273438 388.166992188 231.11328125 382.5 c 0
 234.447265625 376.833007812 239.780273438 370.833007812 247.11328125 364.5 c 0
 254.447265625 358.166992188 272.61328125 345 301.61328125 325 c 0
 330.61328125 305 366.780273438 284 410.11328125 262 c 1
 448.780273438 245.333007812 479.11328125 231.666992188 501.11328125 221 c 0
 523.11328125 210.333007812 558.780273438 198.333007812 608.11328125 185 c 1
 644.780273438 177.666992188 682.11328125 173.166992188 720.11328125 171.5 c 0
 758.11328125 169.833007812 796.780273438 175.333007812 836.11328125 188 c 1
 863.447265625 200 882.61328125 210.333007812 893.61328125 219 c 0
 904.61328125 227.666992188 917.11328125 242.333007812 931.11328125 263 c 0
 943.11328125 283 949.947265625 300 951.61328125 314 c 0
 953.280273438 328 953.447265625 344 952.11328125 362 c 0
 951.447265625 380.666992188 949.280273438 394.166992188 945.61328125 402.5 c 0
 941.947265625 410.833007812 937.11328125 419.333007812 931.11328125 428 c 0
 925.11328125 436.666992188 917.780273438 444.5 909.11328125 451.5 c 0
 900.447265625 458.5 886.780273438 463.333007812 868.11328125 466 c 0
 849.447265625 468.666992188 831.11328125 471 813.11328125 473 c 0
 805.11328125 474.333007812 799.947265625 477.666992188 797.61328125 483 c 0
 795.280273438 488.333007812 798.11328125 493.333007812 806.11328125 498 c 1
374.11328125 829 m 0
 396.780273438 829 420.61328125 828.666992188 445.61328125 828 c 0
 470.61328125 827.333007812 493.447265625 825.333007812 514.11328125 822 c 1
 528.11328125 822 543.61328125 794.5 560.61328125 739.5 c 0
 577.61328125 684.5 597.780273438 636.333007812 621.11328125 595 c 0
 628.447265625 581 635.780273438 573 643.11328125 571 c 0
 649.11328125 569 653.780273438 565.5 657.11328125 560.5 c 0
 660.447265625 555.5 657.11328125 551 647.11328125 547 c 1
 623.780273438 543 600.280273438 541.333007812 576.61328125 542 c 0
 552.947265625 542.666992188 530.447265625 544.333007812 509.11328125 547 c 1
 489.11328125 555 472.61328125 580.666992188 459.61328125 624 c 0
 446.61328125 667.333007812 428.11328125 717.666992188 404.11328125 775 c 0
 402.11328125 778.333007812 398.11328125 782.833007812 392.11328125 788.5 c 0
 386.11328125 794.166992188 379.11328125 798 371.11328125 800 c 0
 360.447265625 802 354.280273438 807.166992188 352.61328125 815.5 c 0
 350.947265625 823.833007812 358.11328125 828.333007812 374.11328125 829 c 0
EndSplineSet
EndChar

StartChar: petastiYpsiliRight
Encoding: 57412 57412 58
Width: 1188
VWidth: 345
Flags: W
HStem: 133.5 38<609.833 840.982> 469.5 28.5<254.616 294.785 797.725 902.852> 682 22<754.124 830.149> 1195 30<1151.12 1188.05>
VStem: 951.613 149.5<261.308 407.941>
AnchorPoint: "yfenAbove" 370.113 1309 basechar 0
AnchorPoint: "yfenBelow" 433.113 -40 basechar 0
AnchorPoint: "koronis" 356.113 876 basechar 0
AnchorPoint: "endofonon" 698.113 -127 basechar 0
AnchorPoint: "heteronConnecting" -153.887 -19 basechar 0
AnchorPoint: "yfesis" 1039.11 691 basechar 0
AnchorPoint: "psifiston" 721.113 140 basechar 0
AnchorPoint: "measureNumber" 98.1133 853 basechar 0
AnchorPoint: "isonIndicator" 560.113 1129 basechar 0
AnchorPoint: "apli" 691.113 -80 basechar 0
AnchorPoint: "antikenoma" 639.113 62 basechar 0
AnchorPoint: "fthoraBottom" 278.113 162 basechar 0
AnchorPoint: "noteTop" 140.113 676 basechar 0
AnchorPoint: "fthoraTop" 520.113 868 basechar 0
AnchorPoint: "diesis" 390.113 147 basechar 0
AnchorPoint: "klasmaBottom" 726.113 83 basechar 0
LayerCount: 2
Fore
SplineSet
806.11328125 498 m 1
 831.447265625 507.333007812 874.447265625 506.666992188 935.11328125 496 c 1
 970.447265625 486.666992188 1001.61328125 474.833007812 1028.61328125 460.5 c 0
 1055.61328125 446.166992188 1076.44726562 420.666992188 1091.11328125 384 c 1
 1101.11328125 348.666992188 1104.44726562 320.333007812 1101.11328125 299 c 0
 1097.78027344 277.666992188 1086.11328125 253.333007812 1066.11328125 226 c 1
 1046.78027344 202.666992188 1024.28027344 185.166992188 998.61328125 173.5 c 0
 972.947265625 161.833007812 941.447265625 152 904.11328125 144 c 0
 866.780273438 136.666992188 836.447265625 133.166992188 813.11328125 133.5 c 0
 789.780273438 133.833007812 764.447265625 134.333007812 737.11328125 135 c 0
 710.447265625 136.333007812 685.61328125 138.5 662.61328125 141.5 c 0
 639.61328125 144.5 611.780273438 151 579.11328125 161 c 0
 525.11328125 175.666992188 471.780273438 196 419.11328125 222 c 0
 389.780273438 236.666992188 358.61328125 252.5 325.61328125 269.5 c 0
 292.61328125 286.5 255.780273438 306.666992188 215.11328125 330 c 0
 196.447265625 341.333007812 175.947265625 353.5 153.61328125 366.5 c 0
 131.280273438 379.5 107.447265625 392.666992188 82.11328125 406 c 1
 62.7802734375 418 43.61328125 430.166992188 24.61328125 442.5 c 0
 5.61328125 454.833007812 -2.38671875 467.166992188 0.61328125 479.5 c 0
 3.61328125 491.833007812 10.7802734375 497.666992188 22.11328125 497 c 0
 33.447265625 496.333007812 69.11328125 496.5 129.11328125 497.5 c 0
 189.11328125 498.5 241.780273438 498.666992188 287.11328125 498 c 1
 305.11328125 484.666992188 304.947265625 475.166992188 286.61328125 469.5 c 0
 268.280273438 463.833007812 254.447265625 456.666992188 245.11328125 448 c 0
 228.447265625 430.666992188 221.11328125 416.833007812 223.11328125 406.5 c 0
 225.11328125 396.166992188 227.947265625 388.166992188 231.61328125 382.5 c 0
 235.280273438 376.833007812 240.780273438 370.833007812 248.11328125 364.5 c 0
 255.447265625 358.166992188 273.447265625 345 302.11328125 325 c 0
 330.780273438 305 366.780273438 284 410.11328125 262 c 1
 448.780273438 245.333007812 479.11328125 231.666992188 501.11328125 221 c 0
 523.11328125 210.333007812 558.780273438 198.333007812 608.11328125 185 c 1
 644.780273438 177.666992188 682.11328125 173.166992188 720.11328125 171.5 c 0
 758.11328125 169.833007812 796.780273438 175.333007812 836.11328125 188 c 1
 863.447265625 200 882.61328125 210.333007812 893.61328125 219 c 0
 904.61328125 227.666992188 917.11328125 242.333007812 931.11328125 263 c 0
 943.11328125 283 949.947265625 300 951.61328125 314 c 0
 953.280273438 328 953.447265625 344 952.11328125 362 c 0
 951.447265625 380.666992188 949.280273438 394.166992188 945.61328125 402.5 c 0
 941.947265625 410.833007812 937.280273438 419.333007812 931.61328125 428 c 0
 925.947265625 436.666992188 918.61328125 444.5 909.61328125 451.5 c 0
 900.61328125 458.5 886.780273438 463.333007812 868.11328125 466 c 0
 849.447265625 468.666992188 831.11328125 471 813.11328125 473 c 0
 805.11328125 474.333007812 799.947265625 477.666992188 797.61328125 483 c 0
 795.280273438 488.333007812 798.11328125 493.333007812 806.11328125 498 c 1
1174.11328125 1225 m 1
 1184.78027344 1223 1189.44726562 1217.83300781 1188.11328125 1209.5 c 0
 1186.78027344 1201.16699219 1180.11328125 1196.33300781 1168.11328125 1195 c 1
 1154.78027344 1190.33300781 1144.11328125 1173.5 1136.11328125 1144.5 c 0
 1128.11328125 1115.5 1119.44726562 1085 1110.11328125 1053 c 0
 1088.78027344 977 1069.11328125 915.333007812 1051.11328125 868 c 0
 1033.11328125 820.666992188 1016.11328125 787.666992188 1000.11328125 769 c 0
 984.11328125 750.333007812 965.11328125 736 943.11328125 726 c 0
 908.447265625 711.333007812 874.447265625 700.333007812 841.11328125 693 c 0
 807.780273438 685.666992188 778.780273438 682 754.11328125 682 c 1
 766.780273438 653.333007812 787.280273438 633.5 815.61328125 622.5 c 0
 843.947265625 611.5 852.11328125 599.666992188 840.11328125 587 c 0
 832.780273438 579.666992188 810.61328125 588.833007812 773.61328125 614.5 c 0
 736.61328125 640.166992188 711.11328125 665.333007812 697.11328125 690 c 1
 697.11328125 705.333007812 703.61328125 711.833007812 716.61328125 709.5 c 0
 729.61328125 707.166992188 743.780273438 705.333007812 759.11328125 704 c 256
 773.780273438 703.333007812 788.780273438 704.333007812 804.11328125 707 c 0
 819.447265625 709.666992188 840.11328125 717.666992188 866.11328125 731 c 0
 879.447265625 737.666992188 891.780273438 752.166992188 903.11328125 774.5 c 0
 914.447265625 796.833007812 924.61328125 821.666992188 933.61328125 849 c 0
 942.61328125 876.333007812 950.447265625 903.5 957.11328125 930.5 c 0
 963.780273438 957.5 972.11328125 996.5 982.11328125 1047.5 c 0
 992.11328125 1098.5 1000.94726562 1132.66699219 1008.61328125 1150 c 0
 1016.28027344 1167.33300781 1026.94726562 1181.33300781 1040.61328125 1192 c 0
 1054.28027344 1202.66699219 1067.28027344 1209.5 1079.61328125 1212.5 c 0
 1091.94726562 1215.5 1105.78027344 1217.66699219 1121.11328125 1219 c 0
 1136.44726562 1220.33300781 1154.11328125 1222.33300781 1174.11328125 1225 c 1
EndSplineSet
EndChar

StartChar: petastiYpsiliLeft
Encoding: 57413 57413 59
Width: 1102
VWidth: 345
Flags: W
HStem: 133.5 38<609.833 840.982> 469.5 28.5<254.616 294.785 797.725 902.852> 653 23<151.823 234.302> 1190 32<567.434 606.047>
VStem: 951.613 149.5<261.308 407.941>
AnchorPoint: "yfenAbove" 370.113 1299 basechar 0
AnchorPoint: "yfenBelow" 433.113 -40 basechar 0
AnchorPoint: "koronis" 851.113 807 basechar 0
AnchorPoint: "endofonon" 698.113 -127 basechar 0
AnchorPoint: "heteronConnecting" -153.887 -19 basechar 0
AnchorPoint: "yfesis" 1039.11 691 basechar 0
AnchorPoint: "psifiston" 721.113 140 basechar 0
AnchorPoint: "measureNumber" 98.1133 853 basechar 0
AnchorPoint: "isonIndicator" 590.113 1342 basechar 0
AnchorPoint: "apli" 691.113 -80 basechar 0
AnchorPoint: "antikenoma" 639.113 62 basechar 0
AnchorPoint: "fthoraBottom" 278.113 162 basechar 0
AnchorPoint: "noteTop" 120.113 956 basechar 0
AnchorPoint: "fthoraTop" 884.113 648 basechar 0
AnchorPoint: "diesis" 390.113 147 basechar 0
AnchorPoint: "klasmaBottom" 726.113 83 basechar 0
LayerCount: 2
Fore
SplineSet
806.11328125 498 m 1
 831.447265625 507.333007812 874.447265625 506.666992188 935.11328125 496 c 1
 970.447265625 486.666992188 1001.61328125 474.833007812 1028.61328125 460.5 c 0
 1055.61328125 446.166992188 1076.44726562 420.666992188 1091.11328125 384 c 1
 1101.11328125 348.666992188 1104.44726562 320.333007812 1101.11328125 299 c 0
 1097.78027344 277.666992188 1086.11328125 253.333007812 1066.11328125 226 c 1
 1046.78027344 202.666992188 1024.28027344 185.166992188 998.61328125 173.5 c 0
 972.947265625 161.833007812 941.447265625 152 904.11328125 144 c 0
 866.780273438 136.666992188 836.447265625 133.166992188 813.11328125 133.5 c 0
 789.780273438 133.833007812 764.447265625 134.333007812 737.11328125 135 c 0
 710.447265625 136.333007812 685.61328125 138.5 662.61328125 141.5 c 0
 639.61328125 144.5 611.780273438 151 579.11328125 161 c 0
 525.11328125 175.666992188 471.780273438 196 419.11328125 222 c 0
 389.780273438 236.666992188 358.61328125 252.5 325.61328125 269.5 c 0
 292.61328125 286.5 255.780273438 306.666992188 215.11328125 330 c 0
 196.447265625 341.333007812 175.947265625 353.5 153.61328125 366.5 c 0
 131.280273438 379.5 107.447265625 392.666992188 82.11328125 406 c 1
 62.7802734375 418 43.61328125 430.166992188 24.61328125 442.5 c 0
 5.61328125 454.833007812 -2.38671875 467.166992188 0.61328125 479.5 c 0
 3.61328125 491.833007812 10.7802734375 497.666992188 22.11328125 497 c 0
 33.447265625 496.333007812 69.11328125 496.5 129.11328125 497.5 c 0
 189.11328125 498.5 241.780273438 498.666992188 287.11328125 498 c 1
 305.11328125 484.666992188 304.947265625 475.166992188 286.61328125 469.5 c 0
 268.280273438 463.833007812 254.447265625 456.666992188 245.11328125 448 c 0
 228.447265625 430.666992188 221.11328125 416.833007812 223.11328125 406.5 c 0
 225.11328125 396.166992188 227.947265625 388.166992188 231.61328125 382.5 c 0
 235.280273438 376.833007812 240.780273438 370.833007812 248.11328125 364.5 c 0
 255.447265625 358.166992188 273.447265625 345 302.11328125 325 c 0
 330.780273438 305 366.780273438 284 410.11328125 262 c 1
 448.780273438 245.333007812 479.11328125 231.666992188 501.11328125 221 c 0
 523.11328125 210.333007812 558.780273438 198.333007812 608.11328125 185 c 1
 644.780273438 177.666992188 682.11328125 173.166992188 720.11328125 171.5 c 0
 758.11328125 169.833007812 796.780273438 175.333007812 836.11328125 188 c 1
 863.447265625 200 882.61328125 210.333007812 893.61328125 219 c 0
 904.61328125 227.666992188 917.11328125 242.333007812 931.11328125 263 c 0
 943.11328125 283 949.947265625 300 951.61328125 314 c 0
 953.280273438 328 953.447265625 344 952.11328125 362 c 0
 951.447265625 380.666992188 949.280273438 394.166992188 945.61328125 402.5 c 0
 941.947265625 410.833007812 937.280273438 419.333007812 931.61328125 428 c 0
 925.947265625 436.666992188 918.61328125 444.5 909.61328125 451.5 c 0
 900.61328125 458.5 886.780273438 463.333007812 868.11328125 466 c 0
 849.447265625 468.666992188 831.11328125 471 813.11328125 473 c 0
 805.11328125 474.333007812 799.947265625 477.666992188 797.61328125 483 c 0
 795.280273438 488.333007812 798.11328125 493.333007812 806.11328125 498 c 1
592.11328125 1222 m 1
 602.780273438 1220 607.447265625 1214.5 606.11328125 1205.5 c 0
 604.780273438 1196.5 597.780273438 1191.33300781 585.11328125 1190 c 1
 571.11328125 1185.33300781 559.947265625 1167.83300781 551.61328125 1137.5 c 0
 543.280273438 1107.16699219 534.11328125 1075 524.11328125 1041 c 0
 501.447265625 961.666992188 480.780273438 897.333007812 462.11328125 848 c 0
 443.447265625 798.666992188 425.780273438 764 409.11328125 744 c 0
 392.447265625 724 372.447265625 709 349.11328125 699 c 0
 313.11328125 683.666992188 277.61328125 672.166992188 242.61328125 664.5 c 0
 207.61328125 656.833007812 177.11328125 653 151.11328125 653 c 1
 163.780273438 623 185.11328125 602.166992188 215.11328125 590.5 c 0
 245.11328125 578.833007812 253.780273438 566.333007812 241.11328125 553 c 0
 233.780273438 545.666992188 210.780273438 555.333007812 172.11328125 582 c 0
 133.447265625 608.666992188 106.780273438 635 92.11328125 661 c 1
 92.11328125 677.666992188 98.947265625 684.666992188 112.61328125 682 c 0
 126.280273438 679.333007812 140.780273438 677.333007812 156.11328125 676 c 256
 171.447265625 675.333007812 187.280273438 676.166992188 203.61328125 678.5 c 0
 219.947265625 680.833007812 241.780273438 689 269.11328125 703 c 0
 282.447265625 709.666992188 295.11328125 724.833007812 307.11328125 748.5 c 0
 319.11328125 772.166992188 329.947265625 798.5 339.61328125 827.5 c 0
 349.280273438 856.5 357.447265625 885.166992188 364.11328125 913.5 c 0
 370.780273438 941.833007812 379.447265625 982.666992188 390.11328125 1036 c 0
 400.780273438 1089.33300781 410.11328125 1125 418.11328125 1143 c 0
 426.11328125 1161 437.280273438 1175.5 451.61328125 1186.5 c 0
 465.947265625 1197.5 479.61328125 1204.66699219 492.61328125 1208 c 0
 505.61328125 1211.33300781 520.11328125 1213.83300781 536.11328125 1215.5 c 0
 552.11328125 1217.16699219 570.780273438 1219.33300781 592.11328125 1222 c 1
EndSplineSet
EndChar

